v 2 4 -1
v 1.5 5 -1
v 1 4.5 -1
v 1 5 -1
v 1.5 5 1
v 2 4 1
v 1 4.5 1
v 1 5 1
v 0 5 -1
v 0 6 -1
v 0 5 1
v 0 6 1
v 0 4.5 1
v 0 4.5 -1
v 1 3 -0.5
v 0.5 4 -0.5
v 0 3.5 -0.5
v 0 4 -0.5
v 0.5 4 0.5
v 1 3 0.5
v 0 3.5 0.5
v 0 4 0.5
v 1 2 -0.5
v 0.5 3 -0.5
v 0 2.5 -0.5
v 0 3 -0.5
v 0.5 3 0.5
v 1 2 0.5
v 0 2.5 0.5
v 0 3 0.5
v 1 1 -0.5
v 0.5 2 -0.5
v 0 1.5 -0.5
v 0 2 -0.5
v 0.5 2 0.5
v 1 1 0.5
v 0 1.5 0.5
v 0 2 0.5
v 1 0 -0.5
v 0.5 1 -0.5
v 0 0.5 -0.5
v 0 1 -0.5
v 0.5 1 0.5
v 1 0 0.5
v 0 0.5 0.5
v 0 1 0.5
v -0.9999999 6 -1
v -0.5 7 -1
v -0.9999999 6 1
v -0.5 7 1
v -1 5 1
v -1 5 -1
v -2 5 1
v -2 5 -1
v -1 6 -1
v -1 6 1
v -1 4.5 -1
v -1 4.5 1
v -2 4.5 1
v -2 4.5 -1
v -1 4 -0.5
v -1 4 0.5
v -1.5 4 -0.5
v -1.5 4 0.5
v -1 3.5 -0.5
v -1 3.5 0.5
v -2 3 0.5
v -2 3 -0.5
v -1 3 -0.5
v -1 3 0.5
v -1.5 3 -0.5
v -1.5 3 0.5
v -1 2.5 -0.5
v -1 2.5 0.5
v -2 2 0.5
v -2 2 -0.5
v -1 2 -0.5
v -1 2 0.5
v -1.5 2 -0.5
v -1.5 2 0.5
v -1 1.5 -0.5
v -1 1.5 0.5
v -2 1 0.5
v -2 1 -0.5
v -1 1 -0.5
v -1 1 0.5
v -1.5 1 -0.5
v -1.5 1 0.5
v -1 0.5 -0.5
v -1 0.5 0.5
v -2 0 0.5
v -2 0 -0.5
v -2.5 5 -1
v -2.5 5 1
v -3 4 1
v -3 4 -1
v 0 0 1
v 0 0 -1
v -1 0 1
v -1 0 -1
v 2 0 -0.5
v 2 0 0.5
v 1 -0.5 -0.5
v 1 -0.5 0.5
v 1 -1 0.5
v 1.5 -1 0.5
v 1 -1 -0.5
v 1.5 -1 -0.5
v 0.5 -0.5 -0.5
v 0.5 -0.5 0.5
v 0 -1 0.5
v 5.960464E-08 0 0.5
v 0.5000001 0 0.5
v 0 -1 -0.5
v 0.5000001 0 -0.5
v 5.960464E-08 0 -0.5
v -1 -1 0.5
v -1 -1 -0.5
v -2 -1 0.5
v -2 -1 -0.5
v -1.5 -0.5 0.5
v -1 0 0.5
v -1.5 0 0.5
v -2 -0.5 0.5
v -1 0 -0.5
v -1.5 0 -0.5
v -2 -0.5 -0.5
v -1.5 -0.5 -0.5
v -2.5 -1 0.5
v -3 0 0.5
v -2.5 -1 -0.5
v -3 0 -0.5
v 0 -1 1
v 0 -1 -1
v -1 -1 1
v -1 -1 -1
v 0 -4 -0.5
v 0 -4 0.5
v -1 -4 -0.5
v -1 -4 0.5
v -1 -4.5 -0.5
v -1 -4.5 0.5
v 0 -4.5 -0.5
v -0.5 -5 -0.5
v 0 -4.5 0.5
v -0.5 -5 0.5

vn 0 0 -1
vn 0.8944272 0.4472136 0
vn -0.4472136 -0.8944272 0
vn 0 0 1
vn -1 0 0
vn 0 1 0
vn 0.7071068 0.7071068 0
vn 0 -1 0
vn 1 0 0
vn -0.4472136 -0.8944272 0
vn -0.8944272 0.4472136 0
vn 0.8944272 0.4472136 0
vn -0.7071068 0.7071068 0
vn -0.8944272 0.4472136 0
vn 0.4472136 -0.8944272 0
vn 0.4472136 -0.8944272 0
vn -0.4472136 0.8944272 0
vn 0.8944272 -0.4472136 0
vn 0.4472136 0.8944272 0
vn -0.8944272 -0.4472136 0
vn 0.7071068 -0.7071068 0
vn -0.7071068 -0.7071068 0

vt 0 0

usemtl color13

f 3/1/1 2/1/1 1/1/1
f 2/1/1 3/1/1 4/1/1
f 5/1/2 1/1/2 2/1/2
f 1/1/2 5/1/2 6/1/2
f 7/1/3 1/1/3 6/1/3
f 1/1/3 7/1/3 3/1/3
f 5/1/4 7/1/4 6/1/4
f 7/1/4 5/1/4 8/1/4
f 7/1/5 4/1/5 3/1/5
f 4/1/5 7/1/5 8/1/5
f 4/1/6 5/1/6 2/1/6
f 5/1/6 4/1/6 8/1/6
f 11/1/5 10/1/5 9/1/5
f 10/1/5 11/1/5 12/1/5
f 10/1/1 4/1/1 9/1/1
f 10/1/7 8/1/7 4/1/7
f 8/1/7 10/1/7 12/1/7
f 12/1/4 11/1/4 8/1/4
f 11/1/8 4/1/8 8/1/8
f 4/1/8 11/1/8 9/1/8
f 8/1/9 3/1/9 4/1/9
f 3/1/9 8/1/9 7/1/9
f 9/1/6 8/1/6 4/1/6
f 8/1/6 9/1/6 11/1/6
f 13/1/8 3/1/8 7/1/8
f 3/1/8 13/1/8 14/1/8
f 9/1/1 3/1/1 14/1/1
f 3/1/1 9/1/1 4/1/1
f 13/1/5 9/1/5 14/1/5
f 9/1/5 13/1/5 11/1/5
f 7/1/4 11/1/4 13/1/4
f 11/1/4 7/1/4 8/1/4
f 17/1/1 16/1/1 15/1/1
f 16/1/1 17/1/1 18/1/1
f 19/1/2 15/1/2 16/1/2
f 15/1/2 19/1/2 20/1/2
f 21/1/10 15/1/10 20/1/10
f 15/1/10 21/1/10 17/1/10
f 19/1/4 21/1/4 20/1/4
f 21/1/4 19/1/4 22/1/4
f 21/1/5 18/1/5 17/1/5
f 18/1/5 21/1/5 22/1/5
f 18/1/6 19/1/6 16/1/6
f 19/1/6 18/1/6 22/1/6
f 25/1/1 24/1/1 23/1/1
f 24/1/1 25/1/1 26/1/1
f 27/1/2 23/1/2 24/1/2
f 23/1/2 27/1/2 28/1/2
f 29/1/10 23/1/10 28/1/10
f 23/1/10 29/1/10 25/1/10
f 27/1/4 29/1/4 28/1/4
f 29/1/4 27/1/4 30/1/4
f 29/1/5 26/1/5 25/1/5
f 26/1/5 29/1/5 30/1/5
f 26/1/6 27/1/6 24/1/6
f 27/1/6 26/1/6 30/1/6
f 33/1/1 32/1/1 31/1/1
f 32/1/1 33/1/1 34/1/1
f 35/1/2 31/1/2 32/1/2
f 31/1/2 35/1/2 36/1/2
f 37/1/10 31/1/10 36/1/10
f 31/1/10 37/1/10 33/1/10
f 35/1/4 37/1/4 36/1/4
f 37/1/4 35/1/4 38/1/4
f 37/1/5 34/1/5 33/1/5
f 34/1/5 37/1/5 38/1/5
f 34/1/6 35/1/6 32/1/6
f 35/1/6 34/1/6 38/1/6
f 41/1/1 40/1/1 39/1/1
f 40/1/1 41/1/1 42/1/1
f 43/1/2 39/1/2 40/1/2
f 39/1/2 43/1/2 44/1/2
f 45/1/10 39/1/10 44/1/10
f 39/1/10 45/1/10 41/1/10
f 43/1/4 45/1/4 44/1/4
f 45/1/4 43/1/4 46/1/4
f 45/1/5 42/1/5 41/1/5
f 42/1/5 45/1/5 46/1/5
f 42/1/6 43/1/6 40/1/6
f 43/1/6 42/1/6 46/1/6
f 49/1/11 48/1/11 47/1/11
f 48/1/11 49/1/11 50/1/11
f 50/1/4 49/1/4 12/1/4
f 50/1/12 10/1/12 48/1/12
f 10/1/12 50/1/12 12/1/12
f 48/1/1 10/1/1 47/1/1
f 49/1/8 10/1/8 12/1/8
f 10/1/8 49/1/8 47/1/8
f 53/1/8 52/1/8 51/1/8
f 52/1/8 53/1/8 54/1/8
f 49/1/4 53/1/4 51/1/4
f 47/1/1 52/1/1 54/1/1
f 56/1/9 52/1/9 55/1/9
f 52/1/9 56/1/9 51/1/9
f 53/1/13 55/1/13 54/1/13
f 55/1/13 53/1/13 56/1/13
f 51/1/9 57/1/9 52/1/9
f 57/1/9 51/1/9 58/1/9
f 54/1/6 51/1/6 52/1/6
f 51/1/6 54/1/6 53/1/6
f 59/1/8 57/1/8 58/1/8
f 57/1/8 59/1/8 60/1/8
f 54/1/1 57/1/1 60/1/1
f 57/1/1 54/1/1 52/1/1
f 59/1/5 54/1/5 60/1/5
f 54/1/5 59/1/5 53/1/5
f 58/1/4 53/1/4 59/1/4
f 53/1/4 58/1/4 51/1/4
f 63/1/6 62/1/6 61/1/6
f 62/1/6 63/1/6 64/1/6
f 62/1/9 65/1/9 61/1/9
f 65/1/9 62/1/9 66/1/9
f 66/1/4 64/1/4 67/1/4
f 64/1/4 66/1/4 62/1/4
f 68/1/14 64/1/14 63/1/14
f 64/1/14 68/1/14 67/1/14
f 63/1/1 65/1/1 68/1/1
f 65/1/1 63/1/1 61/1/1
f 67/1/15 65/1/15 66/1/15
f 65/1/15 67/1/15 68/1/15
f 71/1/6 70/1/6 69/1/6
f 70/1/6 71/1/6 72/1/6
f 70/1/9 73/1/9 69/1/9
f 73/1/9 70/1/9 74/1/9
f 74/1/4 72/1/4 75/1/4
f 72/1/4 74/1/4 70/1/4
f 76/1/14 72/1/14 71/1/14
f 72/1/14 76/1/14 75/1/14
f 71/1/1 73/1/1 76/1/1
f 73/1/1 71/1/1 69/1/1
f 75/1/15 73/1/15 74/1/15
f 73/1/15 75/1/15 76/1/15
f 79/1/6 78/1/6 77/1/6
f 78/1/6 79/1/6 80/1/6
f 78/1/9 81/1/9 77/1/9
f 81/1/9 78/1/9 82/1/9
f 82/1/4 80/1/4 83/1/4
f 80/1/4 82/1/4 78/1/4
f 84/1/14 80/1/14 79/1/14
f 80/1/14 84/1/14 83/1/14
f 79/1/1 81/1/1 84/1/1
f 81/1/1 79/1/1 77/1/1
f 83/1/15 81/1/15 82/1/15
f 81/1/15 83/1/15 84/1/15
f 87/1/6 86/1/6 85/1/6
f 86/1/6 87/1/6 88/1/6
f 86/1/9 89/1/9 85/1/9
f 89/1/9 86/1/9 90/1/9
f 90/1/4 88/1/4 91/1/4
f 88/1/4 90/1/4 86/1/4
f 92/1/14 88/1/14 87/1/14
f 88/1/14 92/1/14 91/1/14
f 87/1/1 89/1/1 92/1/1
f 89/1/1 87/1/1 85/1/1
f 91/1/15 89/1/15 90/1/15
f 89/1/15 91/1/15 92/1/15
f 93/1/6 53/1/6 54/1/6
f 53/1/6 93/1/6 94/1/6
f 53/1/9 60/1/9 54/1/9
f 60/1/9 53/1/9 59/1/9
f 59/1/4 94/1/4 95/1/4
f 94/1/4 59/1/4 53/1/4
f 96/1/11 94/1/11 93/1/11
f 94/1/11 96/1/11 95/1/11
f 93/1/1 60/1/1 96/1/1
f 60/1/1 93/1/1 54/1/1
f 95/1/16 60/1/16 59/1/16
f 60/1/16 95/1/16 96/1/16
f 99/1/8 98/1/8 97/1/8
f 98/1/8 99/1/8 100/1/8
f 99/1/5 55/1/5 100/1/5
f 55/1/5 99/1/5 56/1/5
f 47/1/1 98/1/1 100/1/1
f 98/1/1 47/1/1 10/1/1
f 12/1/4 99/1/4 97/1/4
f 99/1/4 12/1/4 49/1/4
f 12/1/9 98/1/9 10/1/9
f 98/1/9 12/1/9 97/1/9
f 55/1/6 12/1/6 10/1/6
f 12/1/6 55/1/6 56/1/6

usemtl color14

f 103/1/17 102/1/17 101/1/17
f 102/1/17 103/1/17 104/1/17
f 106/1/4 104/1/4 105/1/4
f 104/1/4 106/1/4 102/1/4
f 105/1/5 103/1/5 107/1/5
f 103/1/5 105/1/5 104/1/5
f 101/1/18 106/1/18 108/1/18
f 106/1/18 101/1/18 102/1/18
f 103/1/1 108/1/1 107/1/1
f 108/1/1 103/1/1 101/1/1
f 105/1/8 108/1/8 106/1/8
f 108/1/8 105/1/8 107/1/8
f 109/1/6 104/1/6 103/1/6
f 104/1/6 109/1/6 110/1/6
f 104/1/9 107/1/9 103/1/9
f 107/1/9 104/1/9 105/1/9
f 104/1/4 111/1/4 105/1/4
f 111/1/4 104/1/4 110/1/4
f 111/1/4 110/1/4 112/1/4
f 112/1/4 110/1/4 113/1/4
f 111/1/8 107/1/8 105/1/8
f 107/1/8 111/1/8 114/1/8
f 116/1/6 113/1/6 115/1/6
f 113/1/6 116/1/6 112/1/6
f 111/1/5 116/1/5 114/1/5
f 116/1/5 111/1/5 112/1/5
f 113/1/9 109/1/9 115/1/9
f 109/1/9 113/1/9 110/1/9
f 114/1/1 103/1/1 107/1/1
f 103/1/1 114/1/1 109/1/1
f 109/1/1 114/1/1 116/1/1
f 109/1/1 116/1/1 115/1/1
f 119/1/8 118/1/8 117/1/8
f 118/1/8 119/1/8 120/1/8
f 117/1/4 121/1/4 119/1/4
f 121/1/4 117/1/4 122/1/4
f 121/1/4 122/1/4 123/1/4
f 124/1/4 119/1/4 121/1/4
f 122/1/9 118/1/9 125/1/9
f 118/1/9 122/1/9 117/1/9
f 126/1/6 122/1/6 125/1/6
f 122/1/6 126/1/6 123/1/6
f 119/1/5 127/1/5 120/1/5
f 127/1/5 119/1/5 124/1/5
f 127/1/1 118/1/1 120/1/1
f 118/1/1 127/1/1 128/1/1
f 118/1/1 128/1/1 125/1/1
f 125/1/1 128/1/1 126/1/1
f 121/1/5 126/1/5 128/1/5
f 126/1/5 121/1/5 123/1/5
f 127/1/6 121/1/6 128/1/6
f 121/1/6 127/1/6 124/1/6
f 119/1/4 130/1/4 129/1/4
f 130/1/4 119/1/4 124/1/4
f 124/1/9 120/1/9 127/1/9
f 120/1/9 124/1/9 119/1/9
f 129/1/8 120/1/8 119/1/8
f 120/1/8 129/1/8 131/1/8
f 127/1/19 130/1/19 124/1/19
f 130/1/19 127/1/19 132/1/19
f 132/1/1 120/1/1 131/1/1
f 120/1/1 132/1/1 127/1/1
f 129/1/20 132/1/20 131/1/20
f 132/1/20 129/1/20 130/1/20
f 135/1/8 134/1/8 133/1/8
f 134/1/8 135/1/8 136/1/8
f 135/1/5 100/1/5 136/1/5
f 100/1/5 135/1/5 99/1/5
f 100/1/1 134/1/1 136/1/1
f 134/1/1 100/1/1 98/1/1
f 97/1/4 135/1/4 133/1/4
f 135/1/4 97/1/4 99/1/4
f 97/1/9 134/1/9 98/1/9
f 134/1/9 97/1/9 133/1/9
f 100/1/6 97/1/6 98/1/6
f 97/1/6 100/1/6 99/1/6

usemtl color2

f 139/1/6 138/1/6 137/1/6
f 138/1/6 139/1/6 140/1/6
f 142/1/5 139/1/5 141/1/5
f 139/1/5 142/1/5 140/1/5
f 145/1/21 144/1/21 143/1/21
f 144/1/21 145/1/21 146/1/21
f 138/1/9 143/1/9 137/1/9
f 143/1/9 138/1/9 145/1/9
f 146/1/22 141/1/22 144/1/22
f 141/1/22 146/1/22 142/1/22
f 145/1/4 142/1/4 146/1/4
f 142/1/4 145/1/4 140/1/4
f 140/1/4 145/1/4 138/1/4
f 141/1/1 143/1/1 144/1/1
f 143/1/1 141/1/1 139/1/1
f 143/1/1 139/1/1 137/1/1
f 140/1/8 137/1/8 138/1/8
f 137/1/8 140/1/8 139/1/8
f 140/1/5 118/1/5 139/1/5
f 118/1/5 140/1/5 117/1/5
f 118/1/1 137/1/1 139/1/1
f 137/1/1 118/1/1 114/1/1
f 111/1/4 140/1/4 138/1/4
f 140/1/4 111/1/4 117/1/4
f 111/1/9 137/1/9 114/1/9
f 137/1/9 111/1/9 138/1/9
f 118/1/6 111/1/6 114/1/6
f 111/1/6 118/1/6 117/1/6

