v 3 -1 -1
v 3 -1 1
v 2 -1.5 -1
v 2 -1.5 1
v 2 -2 1
v 2.5 -2 1
v 2 -2 -1
v 2.5 -2 -1
v 1 -2 1
v 1 -2 -1
v 1 -1.5 -1
v 1 -1.5 1
v 0 8 -0.5
v 0 9 -0.5
v 0 8 0.5
v 0 9 0.5
v 1 8 -0.5
v 1 8 0.5
v 1 0 -0.5
v 1 -0.5 -0.5
v 1 0 0.5
v 1 -0.5 0.5
v 0 -1 0.5
v 0 0 0.5
v 0.5 -1 0.5
v 0.5170371 -0.8705904 0.5
v 0.5669873 -0.75 0.5
v 0.6464466 -0.6464466 0.5
v 0.75 -0.5669873 0.5
v 0.8705904 -0.5170371 0.5
v 0.5 -1 -0.5
v 0 -1 -0.5
v 0 0 -0.5
v 0.75 -0.5669873 -0.5
v 0.6464466 -0.6464466 -0.5
v 0.8705904 -0.5170371 -0.5
v 0.5669873 -0.75 -0.5
v 0.5170371 -0.8705904 -0.5
v 0.5 -1.5 -1
v 0.5 -1.5 1
v 0 -2 1
v 5.960464E-08 -1 1
v 0.5000001 -1 1
v 0 -2 -1
v 0.5000001 -1 -1
v 5.960464E-08 -1 -1
v -1 8 0.5
v -1 8 -0.5
v -0.5669873 -0.75 -0.5
v -0.6464466 -0.6464466 -0.5
v -0.5669873 -0.75 0.5
v -0.6464466 -0.6464466 0.5
v -0.5170371 -0.8705904 0.5
v -0.5170371 -0.8705904 -0.5
v -0.5 -1 0.5
v -0.5 -1 -0.5
v -0.75 -0.5669873 0.5
v -0.75 -0.5669873 -0.5
v -0.8705904 -0.5170371 0.5
v -0.8705904 -0.5170371 -0.5
v -1 -0.5 0.5
v -1 -0.5 -0.5
v -1 0 -0.5
v -1 0 0.5
v -1 -2 1
v -1 -2 -1
v -0.5 -1.5 1
v -0.5 -1 1
v -1 -1.5 1
v 0 -1 -1
v 0 -1 1
v -0.5 -1 -1
v -1 -1.5 -1
v -0.5 -1.5 -1
v -2 -2 1
v -2 -2 -1
v -2 -1.5 -1
v -2 -1.5 1
v -2.5 -2 1
v -3 -1 1
v -2.5 -2 -1
v -3 -1 -1
v 0 -3 -0.5
v 0.5 -3 -0.5
v 0 -2 -0.5
v 0.5 -2 -0.5
v 0.5 -2 0.5
v 0 -2 0.5
v 0.5 -3 0.5
v 0 -3 0.5
v 0 -4 -0.5
v 0.5 -4 -0.5
v 0.5 -4 0.5
v 0 -4 0.5
v 0 -5 -0.5
v 0.5 -5 -0.5
v 0.5 -5 0.5
v 0 -5 0.5
v -0.5 -3 0.5
v -0.5 -3 -0.5
v -0.5 -2 -0.5
v -0.5 -2 0.5
v -0.5 -4 0.5
v -0.5 -4 -0.5
v -0.5 -5 0.5
v -0.5 -5 -0.5
v 1 -6 -1
v 1 -5.5 -1
v 0 -6 -1
v 0.8705904 -5.482963 -1
v 0.75 -5.433012 -1
v 5.960464E-08 -5 -1
v 0.6464466 -5.353553 -1
v 0.5669873 -5.25 -1
v 0.5170371 -5.12941 -1
v 0.5 -5 -1
v 0.8705904 -5.482963 1
v 0.75 -5.433012 1
v 1 -5.5 1
v 0.6464466 -5.353553 1
v 0.5669873 -5.25 1
v 0.5170371 -5.12941 1
v 0.5 -5 1
v 1 -6 1
v 0 -6 1
v 5.960464E-08 -5 1
v 0.258819 -6.965926 1
v 0.258819 -6.965926 -1
v 0 -7 1
v 0 -7 -1
v 0.5 -6.866025 -1
v 0.5 -6.866025 1
v 0.7071068 -6.707107 -1
v 0.7071068 -6.707107 1
v 0.8660254 -6.5 1
v 0.8660254 -6.5 -1
v 0.9659258 -6.258819 1
v 0.9659258 -6.258819 -1
v -1 -6 -1
v -1 -5.5 -1
v -0.8705904 -5.482963 -1
v -0.75 -5.433012 -1
v -0.6464466 -5.353553 -1
v -0.5669873 -5.25 -1
v -0.5170371 -5.129409 -1
v -0.5 -5 -1
v -0.5669873 -5.25 1
v -0.5170371 -5.129409 1
v -0.6464466 -5.353553 1
v -0.75 -5.433012 1
v -0.8705904 -5.482963 1
v -1 -5.5 1
v -0.5 -5 1
v -1 -6 1
v 0 -5 -1
v 0 -5 1
v -0.5 -6.866025 1
v -0.5 -6.866025 -1
v -0.7071068 -6.707107 1
v -0.7071068 -6.707107 -1
v -0.258819 -6.965926 -1
v -0.258819 -6.965926 1
v -0.8660254 -6.5 -1
v -0.8660254 -6.5 1
v -0.9659258 -6.258819 -1
v -0.9659258 -6.258819 1

vn -0.4472136 0.8944272 0
vn 0 0 1
vn -1 0 0
vn 0.8944272 -0.4472136 0
vn 0 0 -1
vn 0 -1 0
vn 0 1 0
vn 1 0 0
vn 0.7071068 0.7071068 0
vn 0.5 -0.8660254 0
vn 0.7071068 -0.7071068 0
vn 0.258819 -0.9659258 0
vn 0.1305262 -0.9914449 0
vn 0.8660254 -0.5 0
vn 0.9659258 -0.258819 0
vn 0.9914449 -0.1305262 0
vn -0.7071068 0.7071068 0
vn -0.8660254 -0.5 0
vn -0.7071068 -0.7071068 0
vn -0.9659258 -0.258819 0
vn -0.9914449 -0.1305262 0
vn -0.5 -0.8660254 0
vn -0.258819 -0.9659258 0
vn -0.1305262 -0.9914449 0
vn 0.4472136 0.8944272 0
vn -0.8944272 -0.4472136 0
vn 0.2588191 0.9659258 0
vn 0.5 0.8660254 0
vn 0.1305262 0.9914449 0
vn 0.7071068 0.7071068 0
vn 0.8660254 0.5 0
vn 0.9659259 0.2588191 0
vn 0.9914449 0.1305262 0
vn 0.2588191 -0.9659259 0
vn 0.7071068 -0.7071068 0
vn 0.9659259 -0.2588191 0
vn -0.8660254 0.5 0
vn -0.9659259 0.2588191 0
vn -0.7071068 0.7071068 0
vn -0.5 0.8660254 0
vn -0.2588191 0.9659259 0
vn -0.1305262 0.9914449 0
vn -0.9914449 0.1305262 0
vn -0.7071068 -0.7071068 0
vn -0.2588191 -0.9659259 0
vn -0.9659259 -0.2588191 0

vt 0 0

usemtl color13

f 3/1/1 2/1/1 1/1/1
f 2/1/1 3/1/1 4/1/1
f 6/1/2 4/1/2 5/1/2
f 4/1/2 6/1/2 2/1/2
f 5/1/3 3/1/3 7/1/3
f 3/1/3 5/1/3 4/1/3
f 1/1/4 6/1/4 8/1/4
f 6/1/4 1/1/4 2/1/4
f 3/1/5 8/1/5 7/1/5
f 8/1/5 3/1/5 1/1/5
f 5/1/6 8/1/6 6/1/6
f 8/1/6 5/1/6 7/1/6
f 9/1/6 7/1/6 5/1/6
f 7/1/6 9/1/6 10/1/6
f 11/1/7 4/1/7 3/1/7
f 4/1/7 11/1/7 12/1/7
f 11/1/5 7/1/5 10/1/5
f 7/1/5 11/1/5 3/1/5
f 9/1/3 11/1/3 10/1/3
f 11/1/3 9/1/3 12/1/3
f 5/1/2 12/1/2 9/1/2
f 12/1/2 5/1/2 4/1/2
f 4/1/8 7/1/8 3/1/8
f 7/1/8 4/1/8 5/1/8
f 15/1/3 14/1/3 13/1/3
f 14/1/3 15/1/3 16/1/3
f 14/1/5 17/1/5 13/1/5
f 14/1/9 18/1/9 17/1/9
f 18/1/9 14/1/9 16/1/9
f 16/1/2 15/1/2 18/1/2
f 15/1/6 17/1/6 18/1/6
f 17/1/6 15/1/6 13/1/6
f 21/1/8 20/1/8 19/1/8
f 20/1/8 21/1/8 22/1/8
f 25/1/2 24/1/2 23/1/2
f 24/1/2 25/1/2 26/1/2
f 24/1/2 26/1/2 27/1/2
f 24/1/2 27/1/2 28/1/2
f 24/1/2 28/1/2 29/1/2
f 24/1/2 29/1/2 30/1/2
f 24/1/2 30/1/2 22/1/2
f 24/1/2 22/1/2 21/1/2
f 23/1/6 31/1/6 25/1/6
f 31/1/6 23/1/6 32/1/6
f 33/1/7 21/1/7 19/1/7
f 21/1/7 33/1/7 24/1/7
f 28/1/11 34/1/10 29/1/10
f 34/1/10 28/1/11 35/1/11
f 36/1/12 29/1/10 34/1/10
f 29/1/10 36/1/12 30/1/12
f 20/1/13 30/1/12 36/1/12
f 30/1/12 20/1/13 22/1/13
f 28/1/11 37/1/14 35/1/11
f 37/1/14 28/1/11 27/1/14
f 27/1/14 38/1/15 37/1/14
f 38/1/15 27/1/14 26/1/15
f 26/1/15 31/1/16 38/1/15
f 31/1/16 26/1/15 25/1/16
f 23/1/3 33/1/3 32/1/3
f 33/1/3 23/1/3 24/1/3
f 33/1/5 31/1/5 32/1/5
f 31/1/5 33/1/5 38/1/5
f 38/1/5 33/1/5 37/1/5
f 37/1/5 33/1/5 35/1/5
f 35/1/5 33/1/5 34/1/5
f 34/1/5 33/1/5 36/1/5
f 36/1/5 33/1/5 20/1/5
f 20/1/5 33/1/5 19/1/5
f 39/1/7 12/1/7 11/1/7
f 12/1/7 39/1/7 40/1/7
f 12/1/8 10/1/8 11/1/8
f 10/1/8 12/1/8 9/1/8
f 12/1/2 41/1/2 9/1/2
f 41/1/2 12/1/2 40/1/2
f 41/1/2 40/1/2 42/1/2
f 42/1/2 40/1/2 43/1/2
f 41/1/6 10/1/6 9/1/6
f 10/1/6 41/1/6 44/1/6
f 46/1/7 43/1/7 45/1/7
f 43/1/7 46/1/7 42/1/7
f 41/1/3 46/1/3 44/1/3
f 46/1/3 41/1/3 42/1/3
f 43/1/8 39/1/8 45/1/8
f 39/1/8 43/1/8 40/1/8
f 44/1/5 11/1/5 10/1/5
f 11/1/5 44/1/5 39/1/5
f 39/1/5 44/1/5 46/1/5
f 39/1/5 46/1/5 45/1/5
f 47/1/6 13/1/6 15/1/6
f 13/1/6 47/1/6 48/1/6
f 16/1/2 47/1/2 15/1/2
f 14/1/5 13/1/5 48/1/5
f 16/1/8 13/1/8 14/1/8
f 13/1/8 16/1/8 15/1/8
f 47/1/17 14/1/17 48/1/17
f 14/1/17 47/1/17 16/1/17
f 51/1/18 50/1/19 49/1/18
f 50/1/19 51/1/18 52/1/19
f 49/1/18 53/1/20 51/1/18
f 53/1/20 49/1/18 54/1/20
f 54/1/20 55/1/21 53/1/20
f 55/1/21 54/1/20 56/1/21
f 57/1/22 50/1/19 52/1/19
f 50/1/19 57/1/22 58/1/22
f 59/1/23 58/1/22 57/1/22
f 58/1/22 59/1/23 60/1/23
f 61/1/24 60/1/23 59/1/23
f 60/1/23 61/1/24 62/1/24
f 56/1/5 33/1/5 32/1/5
f 33/1/5 56/1/5 54/1/5
f 33/1/5 54/1/5 49/1/5
f 33/1/5 49/1/5 50/1/5
f 33/1/5 50/1/5 58/1/5
f 33/1/5 58/1/5 60/1/5
f 33/1/5 60/1/5 62/1/5
f 33/1/5 62/1/5 63/1/5
f 24/1/2 55/1/2 23/1/2
f 55/1/2 24/1/2 53/1/2
f 53/1/2 24/1/2 51/1/2
f 51/1/2 24/1/2 52/1/2
f 52/1/2 24/1/2 57/1/2
f 57/1/2 24/1/2 59/1/2
f 59/1/2 24/1/2 61/1/2
f 61/1/2 24/1/2 64/1/2
f 24/1/8 32/1/8 33/1/8
f 32/1/8 24/1/8 23/1/8
f 62/1/3 64/1/3 63/1/3
f 64/1/3 62/1/3 61/1/3
f 55/1/6 32/1/6 23/1/6
f 32/1/6 55/1/6 56/1/6
f 63/1/7 24/1/7 33/1/7
f 24/1/7 63/1/7 64/1/7
f 65/1/6 44/1/6 41/1/6
f 44/1/6 65/1/6 66/1/6
f 41/1/2 67/1/2 65/1/2
f 67/1/2 41/1/2 42/1/2
f 67/1/2 42/1/2 68/1/2
f 69/1/2 65/1/2 67/1/2
f 71/1/8 44/1/8 70/1/8
f 44/1/8 71/1/8 41/1/8
f 72/1/7 42/1/7 46/1/7
f 42/1/7 72/1/7 68/1/7
f 65/1/3 73/1/3 66/1/3
f 73/1/3 65/1/3 69/1/3
f 73/1/5 44/1/5 66/1/5
f 44/1/5 73/1/5 74/1/5
f 44/1/5 74/1/5 46/1/5
f 46/1/5 74/1/5 72/1/5
f 67/1/3 72/1/3 74/1/3
f 72/1/3 67/1/3 68/1/3
f 73/1/7 67/1/7 74/1/7
f 67/1/7 73/1/7 69/1/7
f 75/1/6 66/1/6 65/1/6
f 66/1/6 75/1/6 76/1/6
f 77/1/7 69/1/7 73/1/7
f 69/1/7 77/1/7 78/1/7
f 77/1/5 66/1/5 76/1/5
f 66/1/5 77/1/5 73/1/5
f 75/1/3 77/1/3 76/1/3
f 77/1/3 75/1/3 78/1/3
f 65/1/2 78/1/2 75/1/2
f 78/1/2 65/1/2 69/1/2
f 69/1/8 66/1/8 73/1/8
f 66/1/8 69/1/8 65/1/8
f 75/1/2 80/1/2 79/1/2
f 80/1/2 75/1/2 78/1/2
f 78/1/8 76/1/8 77/1/8
f 76/1/8 78/1/8 75/1/8
f 79/1/6 76/1/6 75/1/6
f 76/1/6 79/1/6 81/1/6
f 77/1/25 80/1/25 78/1/25
f 80/1/25 77/1/25 82/1/25
f 82/1/5 76/1/5 81/1/5
f 76/1/5 82/1/5 77/1/5
f 79/1/26 82/1/26 81/1/26
f 82/1/26 79/1/26 80/1/26
f 64/1/6 19/1/6 21/1/6
f 19/1/6 64/1/6 63/1/6
f 64/1/3 48/1/3 63/1/3
f 48/1/3 64/1/3 47/1/3
f 48/1/5 19/1/5 63/1/5
f 19/1/5 48/1/5 17/1/5
f 18/1/2 64/1/2 21/1/2
f 64/1/2 18/1/2 47/1/2
f 18/1/8 19/1/8 17/1/8
f 19/1/8 18/1/8 21/1/8
f 48/1/7 18/1/7 17/1/7
f 18/1/7 48/1/7 47/1/7

usemtl color2

f 85/1/5 84/1/5 83/1/5
f 84/1/5 85/1/5 86/1/5
f 85/1/7 87/1/7 86/1/7
f 87/1/7 85/1/7 88/1/7
f 90/1/6 84/1/6 89/1/6
f 84/1/6 90/1/6 83/1/6
f 90/1/3 85/1/3 83/1/3
f 85/1/3 90/1/3 88/1/3
f 89/1/2 88/1/2 90/1/2
f 88/1/2 89/1/2 87/1/2
f 87/1/8 84/1/8 86/1/8
f 84/1/8 87/1/8 89/1/8
f 83/1/5 92/1/5 91/1/5
f 92/1/5 83/1/5 84/1/5
f 83/1/7 89/1/7 84/1/7
f 89/1/7 83/1/7 90/1/7
f 94/1/6 92/1/6 93/1/6
f 92/1/6 94/1/6 91/1/6
f 94/1/3 83/1/3 91/1/3
f 83/1/3 94/1/3 90/1/3
f 93/1/2 90/1/2 94/1/2
f 90/1/2 93/1/2 89/1/2
f 89/1/8 92/1/8 84/1/8
f 92/1/8 89/1/8 93/1/8
f 91/1/5 96/1/5 95/1/5
f 96/1/5 91/1/5 92/1/5
f 91/1/7 93/1/7 92/1/7
f 93/1/7 91/1/7 94/1/7
f 98/1/6 96/1/6 97/1/6
f 96/1/6 98/1/6 95/1/6
f 98/1/3 91/1/3 95/1/3
f 91/1/3 98/1/3 94/1/3
f 97/1/2 94/1/2 98/1/2
f 94/1/2 97/1/2 93/1/2
f 93/1/8 96/1/8 92/1/8
f 96/1/8 93/1/8 97/1/8
f 99/1/6 83/1/6 90/1/6
f 83/1/6 99/1/6 100/1/6
f 101/1/5 83/1/5 100/1/5
f 83/1/5 101/1/5 85/1/5
f 99/1/3 101/1/3 100/1/3
f 101/1/3 99/1/3 102/1/3
f 101/1/7 88/1/7 85/1/7
f 88/1/7 101/1/7 102/1/7
f 90/1/2 102/1/2 99/1/2
f 102/1/2 90/1/2 88/1/2
f 88/1/8 83/1/8 85/1/8
f 83/1/8 88/1/8 90/1/8
f 103/1/6 91/1/6 94/1/6
f 91/1/6 103/1/6 104/1/6
f 100/1/5 91/1/5 104/1/5
f 91/1/5 100/1/5 83/1/5
f 103/1/3 100/1/3 104/1/3
f 100/1/3 103/1/3 99/1/3
f 100/1/7 90/1/7 83/1/7
f 90/1/7 100/1/7 99/1/7
f 94/1/2 99/1/2 103/1/2
f 99/1/2 94/1/2 90/1/2
f 90/1/8 91/1/8 83/1/8
f 91/1/8 90/1/8 94/1/8
f 105/1/6 95/1/6 98/1/6
f 95/1/6 105/1/6 106/1/6
f 104/1/5 95/1/5 106/1/5
f 95/1/5 104/1/5 91/1/5
f 105/1/3 104/1/3 106/1/3
f 104/1/3 105/1/3 103/1/3
f 104/1/7 94/1/7 91/1/7
f 94/1/7 104/1/7 103/1/7
f 98/1/2 103/1/2 105/1/2
f 103/1/2 98/1/2 94/1/2
f 94/1/8 95/1/8 91/1/8
f 95/1/8 94/1/8 98/1/8

usemtl color8

f 109/1/5 108/1/5 107/1/5
f 108/1/5 109/1/5 110/1/5
f 110/1/5 109/1/5 111/1/5
f 111/1/5 109/1/5 112/1/5
f 111/1/5 112/1/5 113/1/5
f 113/1/5 112/1/5 114/1/5
f 114/1/5 112/1/5 115/1/5
f 115/1/5 112/1/5 116/1/5
f 111/1/28 117/1/27 110/1/27
f 117/1/27 111/1/28 118/1/28
f 119/1/29 110/1/27 117/1/27
f 110/1/27 119/1/29 108/1/29
f 113/1/30 118/1/28 111/1/28
f 118/1/28 113/1/30 120/1/30
f 113/1/30 121/1/31 120/1/30
f 121/1/31 113/1/30 114/1/31
f 114/1/31 122/1/32 121/1/31
f 122/1/32 114/1/31 115/1/32
f 115/1/32 123/1/33 122/1/32
f 123/1/33 115/1/32 116/1/33
f 119/1/2 125/1/2 124/1/2
f 125/1/2 119/1/2 117/1/2
f 125/1/2 117/1/2 118/1/2
f 125/1/2 118/1/2 126/1/2
f 126/1/2 118/1/2 120/1/2
f 126/1/2 120/1/2 121/1/2
f 126/1/2 121/1/2 122/1/2
f 126/1/2 122/1/2 123/1/2
f 125/1/3 112/1/3 109/1/3
f 112/1/3 125/1/3 126/1/3
f 125/1/6 107/1/6 124/1/6
f 107/1/6 125/1/6 109/1/6
f 108/1/8 124/1/8 107/1/8
f 124/1/8 108/1/8 119/1/8
f 112/1/7 123/1/7 116/1/7
f 123/1/7 112/1/7 126/1/7
f 129/1/13 128/1/34 127/1/34
f 128/1/34 129/1/13 130/1/13
f 131/1/10 127/1/34 128/1/34
f 127/1/34 131/1/10 132/1/10
f 133/1/35 132/1/10 131/1/10
f 132/1/10 133/1/35 134/1/35
f 133/1/35 135/1/14 134/1/35
f 135/1/14 133/1/35 136/1/14
f 136/1/14 137/1/36 135/1/14
f 137/1/36 136/1/14 138/1/36
f 138/1/36 124/1/16 137/1/36
f 124/1/16 138/1/36 107/1/16
f 129/1/3 109/1/3 130/1/3
f 109/1/3 129/1/3 125/1/3
f 109/1/7 124/1/7 107/1/7
f 124/1/7 109/1/7 125/1/7
f 109/1/5 128/1/5 130/1/5
f 128/1/5 109/1/5 131/1/5
f 131/1/5 109/1/5 133/1/5
f 133/1/5 109/1/5 136/1/5
f 136/1/5 109/1/5 138/1/5
f 138/1/5 109/1/5 107/1/5
f 127/1/2 125/1/2 129/1/2
f 125/1/2 127/1/2 132/1/2
f 125/1/2 132/1/2 134/1/2
f 125/1/2 134/1/2 135/1/2
f 125/1/2 135/1/2 137/1/2
f 125/1/2 137/1/2 124/1/2
f 140/1/5 109/1/5 139/1/5
f 109/1/5 140/1/5 141/1/5
f 109/1/5 141/1/5 142/1/5
f 109/1/5 142/1/5 112/1/5
f 112/1/5 142/1/5 143/1/5
f 112/1/5 143/1/5 144/1/5
f 112/1/5 144/1/5 145/1/5
f 112/1/5 145/1/5 146/1/5
f 147/1/37 145/1/38 144/1/37
f 145/1/38 147/1/37 148/1/38
f 144/1/37 149/1/39 147/1/37
f 149/1/39 144/1/37 143/1/39
f 142/1/40 149/1/39 143/1/39
f 149/1/39 142/1/40 150/1/40
f 141/1/41 150/1/40 142/1/40
f 150/1/40 141/1/41 151/1/41
f 140/1/42 151/1/41 141/1/41
f 151/1/41 140/1/42 152/1/42
f 148/1/38 146/1/43 145/1/38
f 146/1/43 148/1/38 153/1/43
f 126/1/2 154/1/2 125/1/2
f 154/1/2 126/1/2 150/1/2
f 154/1/2 150/1/2 151/1/2
f 154/1/2 151/1/2 152/1/2
f 150/1/2 126/1/2 149/1/2
f 149/1/2 126/1/2 147/1/2
f 147/1/2 126/1/2 148/1/2
f 148/1/2 126/1/2 153/1/2
f 154/1/6 109/1/6 125/1/6
f 109/1/6 154/1/6 139/1/6
f 156/1/8 109/1/8 155/1/8
f 109/1/8 156/1/8 125/1/8
f 146/1/7 126/1/7 112/1/7
f 126/1/7 146/1/7 153/1/7
f 154/1/3 140/1/3 139/1/3
f 140/1/3 154/1/3 152/1/3
f 159/1/44 158/1/22 157/1/22
f 158/1/22 159/1/44 160/1/44
f 161/1/45 157/1/22 158/1/22
f 157/1/22 161/1/45 162/1/45
f 130/1/24 162/1/45 161/1/45
f 162/1/45 130/1/24 129/1/24
f 159/1/44 163/1/18 160/1/44
f 163/1/18 159/1/44 164/1/18
f 164/1/18 165/1/46 163/1/18
f 165/1/46 164/1/18 166/1/46
f 166/1/46 139/1/21 165/1/46
f 139/1/21 166/1/46 154/1/21
f 139/1/7 125/1/7 109/1/7
f 125/1/7 139/1/7 154/1/7
f 125/1/8 130/1/8 109/1/8
f 130/1/8 125/1/8 129/1/8
f 161/1/5 109/1/5 130/1/5
f 109/1/5 161/1/5 158/1/5
f 109/1/5 158/1/5 160/1/5
f 109/1/5 160/1/5 163/1/5
f 109/1/5 163/1/5 165/1/5
f 109/1/5 165/1/5 139/1/5
f 125/1/2 162/1/2 129/1/2
f 162/1/2 125/1/2 157/1/2
f 157/1/2 125/1/2 159/1/2
f 159/1/2 125/1/2 164/1/2
f 164/1/2 125/1/2 166/1/2
f 166/1/2 125/1/2 154/1/2

