v 2 1 -0.5
v 2 0.5 -0.5
v 2 1 0.5
v 2 0.5 0.5
v 1 1 -0.5
v 1 1 0.5
v 1 0.5 0.5
v 1 0.5 -0.5
v -1 1 -0.5
v -1 0.5 -0.5
v -1 1 0.5
v -1 0.5 0.5
v -2 1 -0.5
v -2 1 0.5
v -2 0.5 0.5
v -2 0.5 -0.5
v 1 0 1
v 1 0 -1
v -1 0 1
v -1 0 -1
v -1 1 -1
v -1 1 1
v 1 1 -1
v 1 1 1
v 0 8 -0.5
v 0 9 -0.5
v 0 8 0.5
v 0 9 0.5
v 1 8 -0.5
v 1 8 0.5
v 1 2 -0.5
v 1 1.5 -0.5
v 1 2 0.5
v 1 1.5 0.5
v 0 1 0.5
v 0 2 0.5
v 0.5 1 0.5
v 0.5170371 1.12941 0.5
v 0.5669873 1.25 0.5
v 0.6464466 1.353553 0.5
v 0.75 1.433013 0.5
v 0.8705904 1.482963 0.5
v 0.5 1 -0.5
v 0 1 -0.5
v 0 2 -0.5
v 0.75 1.433013 -0.5
v 0.6464466 1.353553 -0.5
v 0.8705904 1.482963 -0.5
v 0.5669873 1.25 -0.5
v 0.5170371 1.12941 -0.5
v -1 8 0.5
v -1 8 -0.5
v -0.5669873 1.25 -0.5
v -0.6464466 1.353553 -0.5
v -0.5669873 1.25 0.5
v -0.6464466 1.353553 0.5
v -0.5170371 1.12941 0.5
v -0.5170371 1.12941 -0.5
v -0.5 1 0.5
v -0.5 1 -0.5
v -0.75 1.433013 0.5
v -0.75 1.433013 -0.5
v -0.8705904 1.482963 0.5
v -0.8705904 1.482963 -0.5
v -1 1.5 0.5
v -1 1.5 -0.5
v -1 2 -0.5
v -1 2 0.5
v 0 -1 -0.5
v 0.5 -1 -0.5
v 0 0 -0.5
v 0.5 0 -0.5
v 0.5 0 0.5
v 0 0 0.5
v 0.5 -1 0.5
v 0 -1 0.5
v 0 -2 -0.5
v 0.5 -2 -0.5
v 0.5 -2 0.5
v 0 -2 0.5
v 0 -3 -0.5
v 0.5 -3 -0.5
v 0.5 -3 0.5
v 0 -3 0.5
v -0.5 -1 0.5
v -0.5 -1 -0.5
v -0.5 0 -0.5
v -0.5 0 0.5
v -0.5 -2 0.5
v -0.5 -2 -0.5
v -0.5 -3 0.5
v -0.5 -3 -0.5

vn 1 0 0
vn 0 1 0
vn 0 -1 0
vn 0 0 -1
vn -1 0 0
vn 0 0 1
vn 0.7071068 0.7071068 0
vn 0.5 -0.8660254 0
vn 0.7071068 -0.7071068 0
vn 0.258819 -0.9659258 0
vn 0.1305262 -0.9914449 0
vn 0.8660254 -0.5 0
vn 0.9659258 -0.258819 0
vn 0.9914449 -0.1305262 0
vn -0.7071068 0.7071068 0
vn -0.8660254 -0.5 0
vn -0.7071068 -0.7071068 0
vn -0.9659258 -0.258819 0
vn -0.9914449 -0.1305262 0
vn -0.5 -0.8660254 0
vn -0.258819 -0.9659258 0
vn -0.1305262 -0.9914449 0

vt 0 0

usemtl color1

f 3/1/1 2/1/1 1/1/1
f 2/1/1 3/1/1 4/1/1
f 5/1/2 3/1/2 1/1/2
f 3/1/2 5/1/2 6/1/2
f 7/1/3 2/1/3 4/1/3
f 2/1/3 7/1/3 8/1/3
f 5/1/4 2/1/4 8/1/4
f 2/1/4 5/1/4 1/1/4
f 7/1/5 5/1/5 8/1/5
f 5/1/5 7/1/5 6/1/5
f 4/1/6 6/1/6 7/1/6
f 6/1/6 4/1/6 3/1/6
f 11/1/1 10/1/1 9/1/1
f 10/1/1 11/1/1 12/1/1
f 13/1/2 11/1/2 9/1/2
f 11/1/2 13/1/2 14/1/2
f 15/1/3 10/1/3 12/1/3
f 10/1/3 15/1/3 16/1/3
f 13/1/4 10/1/4 16/1/4
f 10/1/4 13/1/4 9/1/4
f 15/1/5 13/1/5 16/1/5
f 13/1/5 15/1/5 14/1/5
f 12/1/6 14/1/6 15/1/6
f 14/1/6 12/1/6 11/1/6
f 19/1/3 18/1/3 17/1/3
f 18/1/3 19/1/3 20/1/3
f 19/1/5 21/1/5 20/1/5
f 21/1/5 19/1/5 22/1/5
f 21/1/4 18/1/4 20/1/4
f 18/1/4 21/1/4 23/1/4
f 24/1/6 19/1/6 17/1/6
f 19/1/6 24/1/6 22/1/6
f 24/1/1 18/1/1 23/1/1
f 18/1/1 24/1/1 17/1/1
f 21/1/2 24/1/2 23/1/2
f 24/1/2 21/1/2 22/1/2

usemtl color0

f 27/1/5 26/1/5 25/1/5
f 26/1/5 27/1/5 28/1/5
f 26/1/4 29/1/4 25/1/4
f 26/1/7 30/1/7 29/1/7
f 30/1/7 26/1/7 28/1/7
f 28/1/6 27/1/6 30/1/6
f 27/1/3 29/1/3 30/1/3
f 29/1/3 27/1/3 25/1/3
f 33/1/1 32/1/1 31/1/1
f 32/1/1 33/1/1 34/1/1
f 37/1/6 36/1/6 35/1/6
f 36/1/6 37/1/6 38/1/6
f 36/1/6 38/1/6 39/1/6
f 36/1/6 39/1/6 40/1/6
f 36/1/6 40/1/6 41/1/6
f 36/1/6 41/1/6 42/1/6
f 36/1/6 42/1/6 34/1/6
f 36/1/6 34/1/6 33/1/6
f 35/1/3 43/1/3 37/1/3
f 43/1/3 35/1/3 44/1/3
f 45/1/2 33/1/2 31/1/2
f 33/1/2 45/1/2 36/1/2
f 40/1/9 46/1/8 41/1/8
f 46/1/8 40/1/9 47/1/9
f 48/1/10 41/1/8 46/1/8
f 41/1/8 48/1/10 42/1/10
f 32/1/11 42/1/10 48/1/10
f 42/1/10 32/1/11 34/1/11
f 40/1/9 49/1/12 47/1/9
f 49/1/12 40/1/9 39/1/12
f 39/1/12 50/1/13 49/1/12
f 50/1/13 39/1/12 38/1/13
f 38/1/13 43/1/14 50/1/13
f 43/1/14 38/1/13 37/1/14
f 35/1/5 45/1/5 44/1/5
f 45/1/5 35/1/5 36/1/5
f 45/1/4 43/1/4 44/1/4
f 43/1/4 45/1/4 50/1/4
f 50/1/4 45/1/4 49/1/4
f 49/1/4 45/1/4 47/1/4
f 47/1/4 45/1/4 46/1/4
f 46/1/4 45/1/4 48/1/4
f 48/1/4 45/1/4 32/1/4
f 32/1/4 45/1/4 31/1/4
f 51/1/3 25/1/3 27/1/3
f 25/1/3 51/1/3 52/1/3
f 28/1/6 51/1/6 27/1/6
f 26/1/4 25/1/4 52/1/4
f 28/1/1 25/1/1 26/1/1
f 25/1/1 28/1/1 27/1/1
f 51/1/15 26/1/15 52/1/15
f 26/1/15 51/1/15 28/1/15
f 55/1/16 54/1/17 53/1/16
f 54/1/17 55/1/16 56/1/17
f 53/1/16 57/1/18 55/1/16
f 57/1/18 53/1/16 58/1/18
f 58/1/18 59/1/19 57/1/18
f 59/1/19 58/1/18 60/1/19
f 61/1/20 54/1/17 56/1/17
f 54/1/17 61/1/20 62/1/20
f 63/1/21 62/1/20 61/1/20
f 62/1/20 63/1/21 64/1/21
f 65/1/22 64/1/21 63/1/21
f 64/1/21 65/1/22 66/1/22
f 60/1/4 45/1/4 44/1/4
f 45/1/4 60/1/4 58/1/4
f 45/1/4 58/1/4 53/1/4
f 45/1/4 53/1/4 54/1/4
f 45/1/4 54/1/4 62/1/4
f 45/1/4 62/1/4 64/1/4
f 45/1/4 64/1/4 66/1/4
f 45/1/4 66/1/4 67/1/4
f 36/1/6 59/1/6 35/1/6
f 59/1/6 36/1/6 57/1/6
f 57/1/6 36/1/6 55/1/6
f 55/1/6 36/1/6 56/1/6
f 56/1/6 36/1/6 61/1/6
f 61/1/6 36/1/6 63/1/6
f 63/1/6 36/1/6 65/1/6
f 65/1/6 36/1/6 68/1/6
f 36/1/1 44/1/1 45/1/1
f 44/1/1 36/1/1 35/1/1
f 66/1/5 68/1/5 67/1/5
f 68/1/5 66/1/5 65/1/5
f 59/1/3 44/1/3 35/1/3
f 44/1/3 59/1/3 60/1/3
f 67/1/2 36/1/2 45/1/2
f 36/1/2 67/1/2 68/1/2
f 68/1/3 31/1/3 33/1/3
f 31/1/3 68/1/3 67/1/3
f 68/1/5 52/1/5 67/1/5
f 52/1/5 68/1/5 51/1/5
f 52/1/4 31/1/4 67/1/4
f 31/1/4 52/1/4 29/1/4
f 30/1/6 68/1/6 33/1/6
f 68/1/6 30/1/6 51/1/6
f 30/1/1 31/1/1 29/1/1
f 31/1/1 30/1/1 33/1/1
f 52/1/2 30/1/2 29/1/2
f 30/1/2 52/1/2 51/1/2

usemtl color2

f 71/1/4 70/1/4 69/1/4
f 70/1/4 71/1/4 72/1/4
f 71/1/2 73/1/2 72/1/2
f 73/1/2 71/1/2 74/1/2
f 76/1/3 70/1/3 75/1/3
f 70/1/3 76/1/3 69/1/3
f 76/1/5 71/1/5 69/1/5
f 71/1/5 76/1/5 74/1/5
f 75/1/6 74/1/6 76/1/6
f 74/1/6 75/1/6 73/1/6
f 73/1/1 70/1/1 72/1/1
f 70/1/1 73/1/1 75/1/1
f 69/1/4 78/1/4 77/1/4
f 78/1/4 69/1/4 70/1/4
f 69/1/2 75/1/2 70/1/2
f 75/1/2 69/1/2 76/1/2
f 80/1/3 78/1/3 79/1/3
f 78/1/3 80/1/3 77/1/3
f 80/1/5 69/1/5 77/1/5
f 69/1/5 80/1/5 76/1/5
f 79/1/6 76/1/6 80/1/6
f 76/1/6 79/1/6 75/1/6
f 75/1/1 78/1/1 70/1/1
f 78/1/1 75/1/1 79/1/1
f 77/1/4 82/1/4 81/1/4
f 82/1/4 77/1/4 78/1/4
f 77/1/2 79/1/2 78/1/2
f 79/1/2 77/1/2 80/1/2
f 84/1/3 82/1/3 83/1/3
f 82/1/3 84/1/3 81/1/3
f 84/1/5 77/1/5 81/1/5
f 77/1/5 84/1/5 80/1/5
f 83/1/6 80/1/6 84/1/6
f 80/1/6 83/1/6 79/1/6
f 79/1/1 82/1/1 78/1/1
f 82/1/1 79/1/1 83/1/1
f 85/1/3 69/1/3 76/1/3
f 69/1/3 85/1/3 86/1/3
f 87/1/4 69/1/4 86/1/4
f 69/1/4 87/1/4 71/1/4
f 85/1/5 87/1/5 86/1/5
f 87/1/5 85/1/5 88/1/5
f 87/1/2 74/1/2 71/1/2
f 74/1/2 87/1/2 88/1/2
f 76/1/6 88/1/6 85/1/6
f 88/1/6 76/1/6 74/1/6
f 74/1/1 69/1/1 71/1/1
f 69/1/1 74/1/1 76/1/1
f 89/1/3 77/1/3 80/1/3
f 77/1/3 89/1/3 90/1/3
f 86/1/4 77/1/4 90/1/4
f 77/1/4 86/1/4 69/1/4
f 89/1/5 86/1/5 90/1/5
f 86/1/5 89/1/5 85/1/5
f 86/1/2 76/1/2 69/1/2
f 76/1/2 86/1/2 85/1/2
f 80/1/6 85/1/6 89/1/6
f 85/1/6 80/1/6 76/1/6
f 76/1/1 77/1/1 69/1/1
f 77/1/1 76/1/1 80/1/1
f 91/1/3 81/1/3 84/1/3
f 81/1/3 91/1/3 92/1/3
f 90/1/4 81/1/4 92/1/4
f 81/1/4 90/1/4 77/1/4
f 91/1/5 90/1/5 92/1/5
f 90/1/5 91/1/5 89/1/5
f 90/1/2 80/1/2 77/1/2
f 80/1/2 90/1/2 89/1/2
f 84/1/6 89/1/6 91/1/6
f 89/1/6 84/1/6 80/1/6
f 80/1/1 81/1/1 77/1/1
f 81/1/1 80/1/1 84/1/1

