v 0.741181 2.034074 -0.5
v 0.741181 2.034074 0.5
v 0.5 2.133975 -0.5
v 0.5 2.133975 0.5
v 0.2928932 2.292893 -0.5
v 0.2928932 2.292893 0.5
v 0.1339746 2.5 0.5
v 0.1339746 2.5 -0.5
v 0.03407419 2.741181 0.5
v 0.03407419 2.741181 -0.5
v 1 2 0.5
v 1 2 -0.5
v 0 3 0.5
v 0 3 -0.5
v 0 2 0.5
v 0 2 -0.5
v 1 1 -0.5
v 1 0.5 -0.5
v 1 1 0.5
v 1 0.5 0.5
v 0 0 0.5
v 0 1 0.5
v 0.5 0 0.5
v 0.5170371 0.1294095 0.5
v 0.5669873 0.25 0.5
v 0.6464466 0.3535534 0.5
v 0.75 0.4330127 0.5
v 0.8705904 0.4829629 0.5
v 0.5 0 -0.5
v 0 0 -0.5
v 0 1 -0.5
v 0.75 0.4330127 -0.5
v 0.6464466 0.3535534 -0.5
v 0.8705904 0.4829629 -0.5
v 0.5669873 0.25 -0.5
v 0.5170371 0.1294095 -0.5
v 0 -1 -0.5
v 0.5 -1 -0.5
v 0.5 -1 0.5
v 0 -1 0.5
v 0 -2 -0.5
v 0.5 -2 -0.5
v 0.5 -2 0.5
v 0 -2 0.5
v 0 -3 -0.5
v 0.5 -3 -0.5
v 0.5 -3 0.5
v 0 -3 0.5
v 0 -4 -0.5
v 0.5 -4 -0.5
v 0.5 -4 0.5
v 0 -4 0.5
v 0 13 0.5
v 0 13 -0.5
v -1 13 0.5
v -1 13 -0.5
v 0 14 -0.5
v 0 14 0.5
v -0.741181 13.03407 -0.5
v -0.741181 13.03407 0.5
v -0.5 13.13398 0.5
v -0.5 13.13398 -0.5
v -0.2928932 13.29289 0.5
v -0.2928932 13.29289 -0.5
v -0.1339746 13.5 -0.5
v -0.1339746 13.5 0.5
v -0.03407419 13.74118 -0.5
v -0.03407419 13.74118 0.5
v -0.5669873 0.25 -0.5
v -0.6464466 0.3535534 -0.5
v -0.5669873 0.25 0.5
v -0.6464466 0.3535534 0.5
v -0.5170371 0.1294095 0.5
v -0.5170371 0.1294095 -0.5
v -0.5 0 0.5
v -0.5 0 -0.5
v -0.75 0.4330127 0.5
v -0.75 0.4330127 -0.5
v -0.8705904 0.4829629 0.5
v -0.8705904 0.4829629 -0.5
v -1 0.5 0.5
v -1 0.5 -0.5
v -1 1 -0.5
v -1 1 0.5
v -0.5 -1 0.5
v -0.5 -1 -0.5
v -0.5 -2 0.5
v -0.5 -2 -0.5
v -0.5 -3 0.5
v -0.5 -3 -0.5
v -0.5 -4 0.5
v -0.5 -4 -0.5
v -1 8 0.5
v -1 8 -0.5
v -2 8 0.5
v -2 8 -0.5
v -1 9 -0.5
v -1 9 0.5
v -1.741181 8.034074 -0.5
v -1.741181 8.034074 0.5
v -1.5 8.133975 0.5
v -1.5 8.133975 -0.5
v -1.292893 8.292893 0.5
v -1.292893 8.292893 -0.5
v -1.133975 8.5 -0.5
v -1.133975 8.5 0.5
v -1.034074 8.741181 -0.5
v -1.034074 8.741181 0.5
v -1 4 0.5
v -1.034074 4.258819 0.5
v -1 5 0.5
v -1.133975 4.5 0.5
v -1.292893 4.707107 0.5
v -1.5 4.866025 0.5
v -1.741181 4.965926 0.5
v -2 5 0.5
v -1.133975 4.5 -0.5
v -1.292893 4.707107 -0.5
v -1.5 4.866025 -0.5
v -1.741181 4.965926 -0.5
v -1.034074 4.258819 -0.5
v -1 4 -0.5
v -2 5 -0.5
v -1 5 -0.5
v 0 -6 -0.5
v 0.5 -6 -0.5
v 0 -5 -0.5
v 0.5 -5 -0.5
v 0.5 -5 0.5
v 0 -5 0.5
v 0.5 -6 0.5
v 0 -6 0.5
v 0 -7 -0.5
v 0.5 -7 -0.5
v 0.5 -7 0.5
v 0 -7 0.5
v 0 -8 -0.5
v 0.5 -8 -0.5
v 0.5 -8 0.5
v 0 -8 0.5
v 0 -9 -0.5
v 0.5 -9 -0.5
v 0.5 -9 0.5
v 0 -9 0.5
v -0.5 -6 0.5
v -0.5 -6 -0.5
v -0.5 -5 -0.5
v -0.5 -5 0.5
v -0.5 -7 0.5
v -0.5 -7 -0.5
v -0.5 -8 0.5
v -0.5 -8 -0.5
v -0.5 -9 0.5
v -0.5 -9 -0.5
v 1 -10 -1
v 1 -9.5 -1
v 0 -10 -1
v 0.8705904 -9.482963 -1
v 0.75 -9.433013 -1
v 5.960464E-08 -9 -1
v 0.6464466 -9.353554 -1
v 0.5669873 -9.25 -1
v 0.5170371 -9.12941 -1
v 0.5 -9 -1
v 0.8705904 -9.482963 1
v 0.75 -9.433013 1
v 1 -9.5 1
v 0.6464466 -9.353554 1
v 0.5669873 -9.25 1
v 0.5170371 -9.12941 1
v 0.5 -9 1
v 1 -10 1
v 0 -10 1
v 5.960464E-08 -9 1
v 1 -10.5 -1
v 1 -10.5 1
v 0 -11 1
v 0.5 -11 1
v 0.5170371 -10.87059 1
v 0.5669873 -10.75 1
v 0.6464466 -10.64645 1
v 0.75 -10.56699 1
v 0.8705904 -10.51704 1
v 0.5 -11 -1
v 0 -11 -1
v 0.75 -10.56699 -1
v 0.6464466 -10.64645 -1
v 0.8705904 -10.51704 -1
v 0.5669873 -10.75 -1
v 0.5170371 -10.87059 -1
v -1 -10 -1
v -1 -9.5 -1
v -0.8705904 -9.482963 -1
v -0.75 -9.433013 -1
v -0.6464466 -9.353554 -1
v -0.5669873 -9.25 -1
v -0.5170371 -9.12941 -1
v -0.5 -9 -1
v -0.5669873 -9.25 1
v -0.5170371 -9.12941 1
v -0.6464466 -9.353554 1
v -0.75 -9.433013 1
v -0.8705904 -9.482963 1
v -1 -9.5 1
v -0.5 -9 1
v -1 -10 1
v 0 -9 -1
v 0 -9 1
v -0.5669873 -10.75 -1
v -0.6464466 -10.64645 -1
v -0.5669873 -10.75 1
v -0.6464466 -10.64645 1
v -0.5170371 -10.87059 1
v -0.5170371 -10.87059 -1
v -0.5 -11 1
v -0.5 -11 -1
v -0.75 -10.56699 1
v -0.75 -10.56699 -1
v -0.8705904 -10.51704 1
v -0.8705904 -10.51704 -1
v -1 -10.5 1
v -1 -10.5 -1
v 3 -5 1
v 3 -5 -1
v -3 -5 1
v -3 -5 -1
v -3 -4 -1
v -3 -4 1
v 3 -4 -1
v 3 -4 1

vn 0.258819 0.9659258 0
vn 0.5 0.8660254 0
vn 0.7071068 0.7071068 0
vn 0.8660254 0.5 0
vn 0.9659258 0.258819 0
vn 0.1305262 0.9914449 0
vn 0.9914449 0.1305262 0
vn 0 -1 0
vn 0 0 -1
vn -1 0 0
vn 0 0 1
vn 1 0 0
vn 0 1 0
vn 0.5 -0.8660254 0
vn 0.7071068 -0.7071068 0
vn 0.258819 -0.9659258 0
vn 0.1305262 -0.9914449 0
vn 0.8660254 -0.5 0
vn 0.9659258 -0.258819 0
vn 0.9914449 -0.1305262 0
vn -0.258819 0.9659258 0
vn -0.1305262 0.9914449 0
vn -0.5 0.8660254 0
vn -0.7071068 0.7071068 0
vn -0.8660254 0.5 0
vn -0.9659258 0.258819 0
vn -0.9914449 0.1305262 0
vn -0.8660254 -0.5 0
vn -0.7071068 -0.7071068 0
vn -0.9659258 -0.258819 0
vn -0.9914449 -0.1305262 0
vn -0.5 -0.8660254 0
vn -0.258819 -0.9659258 0
vn -0.1305262 -0.9914449 0
vn 0.2588191 0.9659258 0
vn 0.1305262 0.9914449 0
vn 0.7071068 0.7071068 0
vn 0.9659259 0.2588191 0
vn 0.9914449 0.1305262 0
vn 0.7071068 -0.7071068 0
vn 0.2588191 -0.9659259 0
vn 0.9659259 -0.2588191 0
vn -0.9659259 0.2588191 0
vn -0.7071068 0.7071068 0
vn -0.2588191 0.9659259 0
vn -0.7071068 -0.7071068 0
vn -0.9659259 -0.2588191 0
vn -0.2588191 -0.9659259 0

vt 0 0

usemtl color1

f 3/1/2 2/1/1 1/1/1
f 2/1/1 3/1/2 4/1/2
f 5/1/3 4/1/2 3/1/2
f 4/1/2 5/1/3 6/1/3
f 5/1/3 7/1/4 6/1/3
f 7/1/4 5/1/3 8/1/4
f 8/1/4 9/1/5 7/1/4
f 9/1/5 8/1/4 10/1/5
f 11/1/6 1/1/1 2/1/1
f 1/1/1 11/1/6 12/1/6
f 10/1/5 13/1/7 9/1/5
f 13/1/7 10/1/5 14/1/7
f 15/1/8 12/1/8 11/1/8
f 12/1/8 15/1/8 16/1/8
f 16/1/9 1/1/9 12/1/9
f 1/1/9 16/1/9 3/1/9
f 3/1/9 16/1/9 5/1/9
f 5/1/9 16/1/9 8/1/9
f 8/1/9 16/1/9 10/1/9
f 10/1/9 16/1/9 14/1/9
f 15/1/10 14/1/10 16/1/10
f 14/1/10 15/1/10 13/1/10
f 15/1/11 9/1/11 13/1/11
f 9/1/11 15/1/11 7/1/11
f 7/1/11 15/1/11 6/1/11
f 6/1/11 15/1/11 4/1/11
f 4/1/11 15/1/11 2/1/11
f 2/1/11 15/1/11 11/1/11
f 19/1/12 18/1/12 17/1/12
f 18/1/12 19/1/12 20/1/12
f 23/1/11 22/1/11 21/1/11
f 22/1/11 23/1/11 24/1/11
f 22/1/11 24/1/11 25/1/11
f 22/1/11 25/1/11 26/1/11
f 22/1/11 26/1/11 27/1/11
f 22/1/11 27/1/11 28/1/11
f 22/1/11 28/1/11 20/1/11
f 22/1/11 20/1/11 19/1/11
f 21/1/8 29/1/8 23/1/8
f 29/1/8 21/1/8 30/1/8
f 31/1/13 19/1/13 17/1/13
f 19/1/13 31/1/13 22/1/13
f 26/1/15 32/1/14 27/1/14
f 32/1/14 26/1/15 33/1/15
f 34/1/16 27/1/14 32/1/14
f 27/1/14 34/1/16 28/1/16
f 18/1/17 28/1/16 34/1/16
f 28/1/16 18/1/17 20/1/17
f 26/1/15 35/1/18 33/1/15
f 35/1/18 26/1/15 25/1/18
f 25/1/18 36/1/19 35/1/18
f 36/1/19 25/1/18 24/1/19
f 24/1/19 29/1/20 36/1/19
f 29/1/20 24/1/19 23/1/20
f 21/1/10 31/1/10 30/1/10
f 31/1/10 21/1/10 22/1/10
f 31/1/9 29/1/9 30/1/9
f 29/1/9 31/1/9 36/1/9
f 36/1/9 31/1/9 35/1/9
f 35/1/9 31/1/9 33/1/9
f 33/1/9 31/1/9 32/1/9
f 32/1/9 31/1/9 34/1/9
f 34/1/9 31/1/9 18/1/9
f 18/1/9 31/1/9 17/1/9
f 30/1/9 38/1/9 37/1/9
f 38/1/9 30/1/9 29/1/9
f 30/1/13 23/1/13 29/1/13
f 23/1/13 30/1/13 21/1/13
f 40/1/8 38/1/8 39/1/8
f 38/1/8 40/1/8 37/1/8
f 40/1/10 30/1/10 37/1/10
f 30/1/10 40/1/10 21/1/10
f 39/1/11 21/1/11 40/1/11
f 21/1/11 39/1/11 23/1/11
f 23/1/12 38/1/12 29/1/12
f 38/1/12 23/1/12 39/1/12
f 37/1/9 42/1/9 41/1/9
f 42/1/9 37/1/9 38/1/9
f 37/1/13 39/1/13 38/1/13
f 39/1/13 37/1/13 40/1/13
f 44/1/8 42/1/8 43/1/8
f 42/1/8 44/1/8 41/1/8
f 44/1/10 37/1/10 41/1/10
f 37/1/10 44/1/10 40/1/10
f 43/1/11 40/1/11 44/1/11
f 40/1/11 43/1/11 39/1/11
f 39/1/12 42/1/12 38/1/12
f 42/1/12 39/1/12 43/1/12
f 41/1/9 46/1/9 45/1/9
f 46/1/9 41/1/9 42/1/9
f 41/1/13 43/1/13 42/1/13
f 43/1/13 41/1/13 44/1/13
f 48/1/8 46/1/8 47/1/8
f 46/1/8 48/1/8 45/1/8
f 48/1/10 41/1/10 45/1/10
f 41/1/10 48/1/10 44/1/10
f 47/1/11 44/1/11 48/1/11
f 44/1/11 47/1/11 43/1/11
f 43/1/12 46/1/12 42/1/12
f 46/1/12 43/1/12 47/1/12
f 45/1/9 50/1/9 49/1/9
f 50/1/9 45/1/9 46/1/9
f 45/1/13 47/1/13 46/1/13
f 47/1/13 45/1/13 48/1/13
f 52/1/8 50/1/8 51/1/8
f 50/1/8 52/1/8 49/1/8
f 52/1/10 45/1/10 49/1/10
f 45/1/10 52/1/10 48/1/10
f 51/1/11 48/1/11 52/1/11
f 48/1/11 51/1/11 47/1/11
f 47/1/12 50/1/12 46/1/12
f 50/1/12 47/1/12 51/1/12
f 55/1/8 54/1/8 53/1/8
f 54/1/8 55/1/8 56/1/8
f 58/1/12 54/1/12 57/1/12
f 54/1/12 58/1/12 53/1/12
f 56/1/22 60/1/21 59/1/21
f 60/1/21 56/1/22 55/1/22
f 61/1/23 59/1/21 60/1/21
f 59/1/21 61/1/23 62/1/23
f 63/1/24 62/1/23 61/1/23
f 62/1/23 63/1/24 64/1/24
f 63/1/24 65/1/25 64/1/24
f 65/1/25 63/1/24 66/1/25
f 66/1/25 67/1/26 65/1/25
f 67/1/26 66/1/25 68/1/26
f 68/1/26 57/1/27 67/1/26
f 57/1/27 68/1/26 58/1/27
f 59/1/9 54/1/9 56/1/9
f 54/1/9 59/1/9 62/1/9
f 54/1/9 62/1/9 64/1/9
f 54/1/9 64/1/9 65/1/9
f 54/1/9 65/1/9 67/1/9
f 54/1/9 67/1/9 57/1/9
f 53/1/11 60/1/11 55/1/11
f 60/1/11 53/1/11 61/1/11
f 61/1/11 53/1/11 63/1/11
f 63/1/11 53/1/11 66/1/11
f 66/1/11 53/1/11 68/1/11
f 68/1/11 53/1/11 58/1/11
f 71/1/28 70/1/29 69/1/28
f 70/1/29 71/1/28 72/1/29
f 69/1/28 73/1/30 71/1/28
f 73/1/30 69/1/28 74/1/30
f 74/1/30 75/1/31 73/1/30
f 75/1/31 74/1/30 76/1/31
f 77/1/32 70/1/29 72/1/29
f 70/1/29 77/1/32 78/1/32
f 79/1/33 78/1/32 77/1/32
f 78/1/32 79/1/33 80/1/33
f 81/1/34 80/1/33 79/1/33
f 80/1/33 81/1/34 82/1/34
f 76/1/9 31/1/9 30/1/9
f 31/1/9 76/1/9 74/1/9
f 31/1/9 74/1/9 69/1/9
f 31/1/9 69/1/9 70/1/9
f 31/1/9 70/1/9 78/1/9
f 31/1/9 78/1/9 80/1/9
f 31/1/9 80/1/9 82/1/9
f 31/1/9 82/1/9 83/1/9
f 22/1/11 75/1/11 21/1/11
f 75/1/11 22/1/11 73/1/11
f 73/1/11 22/1/11 71/1/11
f 71/1/11 22/1/11 72/1/11
f 72/1/11 22/1/11 77/1/11
f 77/1/11 22/1/11 79/1/11
f 79/1/11 22/1/11 81/1/11
f 81/1/11 22/1/11 84/1/11
f 22/1/12 30/1/12 31/1/12
f 30/1/12 22/1/12 21/1/12
f 82/1/10 84/1/10 83/1/10
f 84/1/10 82/1/10 81/1/10
f 75/1/8 30/1/8 21/1/8
f 30/1/8 75/1/8 76/1/8
f 83/1/13 22/1/13 31/1/13
f 22/1/13 83/1/13 84/1/13
f 85/1/8 37/1/8 40/1/8
f 37/1/8 85/1/8 86/1/8
f 76/1/9 37/1/9 86/1/9
f 37/1/9 76/1/9 30/1/9
f 85/1/10 76/1/10 86/1/10
f 76/1/10 85/1/10 75/1/10
f 76/1/13 21/1/13 30/1/13
f 21/1/13 76/1/13 75/1/13
f 40/1/11 75/1/11 85/1/11
f 75/1/11 40/1/11 21/1/11
f 21/1/12 37/1/12 30/1/12
f 37/1/12 21/1/12 40/1/12
f 87/1/8 41/1/8 44/1/8
f 41/1/8 87/1/8 88/1/8
f 86/1/9 41/1/9 88/1/9
f 41/1/9 86/1/9 37/1/9
f 87/1/10 86/1/10 88/1/10
f 86/1/10 87/1/10 85/1/10
f 86/1/13 40/1/13 37/1/13
f 40/1/13 86/1/13 85/1/13
f 44/1/11 85/1/11 87/1/11
f 85/1/11 44/1/11 40/1/11
f 40/1/12 41/1/12 37/1/12
f 41/1/12 40/1/12 44/1/12
f 89/1/8 45/1/8 48/1/8
f 45/1/8 89/1/8 90/1/8
f 88/1/9 45/1/9 90/1/9
f 45/1/9 88/1/9 41/1/9
f 89/1/10 88/1/10 90/1/10
f 88/1/10 89/1/10 87/1/10
f 88/1/13 44/1/13 41/1/13
f 44/1/13 88/1/13 87/1/13
f 48/1/11 87/1/11 89/1/11
f 87/1/11 48/1/11 44/1/11
f 44/1/12 45/1/12 41/1/12
f 45/1/12 44/1/12 48/1/12
f 91/1/8 49/1/8 52/1/8
f 49/1/8 91/1/8 92/1/8
f 90/1/9 49/1/9 92/1/9
f 49/1/9 90/1/9 45/1/9
f 91/1/10 90/1/10 92/1/10
f 90/1/10 91/1/10 89/1/10
f 90/1/13 48/1/13 45/1/13
f 48/1/13 90/1/13 89/1/13
f 52/1/11 89/1/11 91/1/11
f 89/1/11 52/1/11 48/1/11
f 48/1/12 49/1/12 45/1/12
f 49/1/12 48/1/12 52/1/12
f 95/1/8 94/1/8 93/1/8
f 94/1/8 95/1/8 96/1/8
f 98/1/12 94/1/12 97/1/12
f 94/1/12 98/1/12 93/1/12
f 96/1/22 100/1/21 99/1/21
f 100/1/21 96/1/22 95/1/22
f 101/1/23 99/1/21 100/1/21
f 99/1/21 101/1/23 102/1/23
f 103/1/24 102/1/23 101/1/23
f 102/1/23 103/1/24 104/1/24
f 103/1/24 105/1/25 104/1/24
f 105/1/25 103/1/24 106/1/25
f 106/1/25 107/1/26 105/1/25
f 107/1/26 106/1/25 108/1/26
f 108/1/26 97/1/27 107/1/26
f 97/1/27 108/1/26 98/1/27
f 99/1/9 94/1/9 96/1/9
f 94/1/9 99/1/9 102/1/9
f 94/1/9 102/1/9 104/1/9
f 94/1/9 104/1/9 105/1/9
f 94/1/9 105/1/9 107/1/9
f 94/1/9 107/1/9 97/1/9
f 93/1/11 100/1/11 95/1/11
f 100/1/11 93/1/11 101/1/11
f 101/1/11 93/1/11 103/1/11
f 103/1/11 93/1/11 106/1/11
f 106/1/11 93/1/11 108/1/11
f 108/1/11 93/1/11 98/1/11
f 111/1/11 110/1/11 109/1/11
f 110/1/11 111/1/11 112/1/11
f 112/1/11 111/1/11 113/1/11
f 113/1/11 111/1/11 114/1/11
f 114/1/11 111/1/11 115/1/11
f 115/1/11 111/1/11 116/1/11
f 112/1/28 118/1/29 117/1/28
f 118/1/29 112/1/28 113/1/29
f 114/1/32 118/1/29 113/1/29
f 118/1/29 114/1/32 119/1/32
f 115/1/33 119/1/32 114/1/32
f 119/1/32 115/1/33 120/1/33
f 117/1/28 110/1/30 112/1/28
f 110/1/30 117/1/28 121/1/30
f 121/1/30 109/1/31 110/1/30
f 109/1/31 121/1/30 122/1/31
f 116/1/34 120/1/33 115/1/33
f 120/1/33 116/1/34 123/1/34
f 121/1/9 124/1/9 122/1/9
f 124/1/9 121/1/9 117/1/9
f 124/1/9 117/1/9 118/1/9
f 124/1/9 118/1/9 119/1/9
f 124/1/9 119/1/9 120/1/9
f 124/1/9 120/1/9 123/1/9
f 111/1/12 122/1/12 124/1/12
f 122/1/12 111/1/12 109/1/12
f 123/1/13 111/1/13 124/1/13
f 111/1/13 123/1/13 116/1/13
f 84/1/8 31/1/8 22/1/8
f 31/1/8 84/1/8 83/1/8
f 84/1/10 56/1/10 83/1/10
f 56/1/10 84/1/10 55/1/10
f 56/1/9 31/1/9 83/1/9
f 31/1/9 56/1/9 54/1/9
f 53/1/11 84/1/11 22/1/11
f 84/1/11 53/1/11 55/1/11
f 53/1/12 31/1/12 54/1/12
f 31/1/12 53/1/12 22/1/12
f 56/1/13 53/1/13 54/1/13
f 53/1/13 56/1/13 55/1/13
f 116/1/8 124/1/8 111/1/8
f 124/1/8 116/1/8 123/1/8
f 116/1/10 96/1/10 123/1/10
f 96/1/10 116/1/10 95/1/10
f 96/1/9 124/1/9 123/1/9
f 124/1/9 96/1/9 94/1/9
f 93/1/11 116/1/11 111/1/11
f 116/1/11 93/1/11 95/1/11
f 93/1/12 124/1/12 94/1/12
f 124/1/12 93/1/12 111/1/12
f 96/1/13 93/1/13 94/1/13
f 93/1/13 96/1/13 95/1/13
f 22/1/8 17/1/8 19/1/8
f 17/1/8 22/1/8 31/1/8
f 22/1/10 16/1/10 31/1/10
f 16/1/10 22/1/10 15/1/10
f 16/1/9 17/1/9 31/1/9
f 17/1/9 16/1/9 12/1/9
f 11/1/11 22/1/11 19/1/11
f 22/1/11 11/1/11 15/1/11
f 11/1/12 17/1/12 12/1/12
f 17/1/12 11/1/12 19/1/12
f 16/1/13 11/1/13 12/1/13
f 11/1/13 16/1/13 15/1/13

usemtl color3

f 127/1/9 126/1/9 125/1/9
f 126/1/9 127/1/9 128/1/9
f 127/1/13 129/1/13 128/1/13
f 129/1/13 127/1/13 130/1/13
f 132/1/8 126/1/8 131/1/8
f 126/1/8 132/1/8 125/1/8
f 132/1/10 127/1/10 125/1/10
f 127/1/10 132/1/10 130/1/10
f 131/1/11 130/1/11 132/1/11
f 130/1/11 131/1/11 129/1/11
f 129/1/12 126/1/12 128/1/12
f 126/1/12 129/1/12 131/1/12
f 125/1/9 134/1/9 133/1/9
f 134/1/9 125/1/9 126/1/9
f 125/1/13 131/1/13 126/1/13
f 131/1/13 125/1/13 132/1/13
f 136/1/8 134/1/8 135/1/8
f 134/1/8 136/1/8 133/1/8
f 136/1/10 125/1/10 133/1/10
f 125/1/10 136/1/10 132/1/10
f 135/1/11 132/1/11 136/1/11
f 132/1/11 135/1/11 131/1/11
f 131/1/12 134/1/12 126/1/12
f 134/1/12 131/1/12 135/1/12
f 133/1/9 138/1/9 137/1/9
f 138/1/9 133/1/9 134/1/9
f 133/1/13 135/1/13 134/1/13
f 135/1/13 133/1/13 136/1/13
f 140/1/8 138/1/8 139/1/8
f 138/1/8 140/1/8 137/1/8
f 140/1/10 133/1/10 137/1/10
f 133/1/10 140/1/10 136/1/10
f 139/1/11 136/1/11 140/1/11
f 136/1/11 139/1/11 135/1/11
f 135/1/12 138/1/12 134/1/12
f 138/1/12 135/1/12 139/1/12
f 137/1/9 142/1/9 141/1/9
f 142/1/9 137/1/9 138/1/9
f 137/1/13 139/1/13 138/1/13
f 139/1/13 137/1/13 140/1/13
f 144/1/8 142/1/8 143/1/8
f 142/1/8 144/1/8 141/1/8
f 144/1/10 137/1/10 141/1/10
f 137/1/10 144/1/10 140/1/10
f 143/1/11 140/1/11 144/1/11
f 140/1/11 143/1/11 139/1/11
f 139/1/12 142/1/12 138/1/12
f 142/1/12 139/1/12 143/1/12
f 145/1/8 125/1/8 132/1/8
f 125/1/8 145/1/8 146/1/8
f 147/1/9 125/1/9 146/1/9
f 125/1/9 147/1/9 127/1/9
f 145/1/10 147/1/10 146/1/10
f 147/1/10 145/1/10 148/1/10
f 147/1/13 130/1/13 127/1/13
f 130/1/13 147/1/13 148/1/13
f 132/1/11 148/1/11 145/1/11
f 148/1/11 132/1/11 130/1/11
f 130/1/12 125/1/12 127/1/12
f 125/1/12 130/1/12 132/1/12
f 149/1/8 133/1/8 136/1/8
f 133/1/8 149/1/8 150/1/8
f 146/1/9 133/1/9 150/1/9
f 133/1/9 146/1/9 125/1/9
f 149/1/10 146/1/10 150/1/10
f 146/1/10 149/1/10 145/1/10
f 146/1/13 132/1/13 125/1/13
f 132/1/13 146/1/13 145/1/13
f 136/1/11 145/1/11 149/1/11
f 145/1/11 136/1/11 132/1/11
f 132/1/12 133/1/12 125/1/12
f 133/1/12 132/1/12 136/1/12
f 151/1/8 137/1/8 140/1/8
f 137/1/8 151/1/8 152/1/8
f 150/1/9 137/1/9 152/1/9
f 137/1/9 150/1/9 133/1/9
f 151/1/10 150/1/10 152/1/10
f 150/1/10 151/1/10 149/1/10
f 150/1/13 136/1/13 133/1/13
f 136/1/13 150/1/13 149/1/13
f 140/1/11 149/1/11 151/1/11
f 149/1/11 140/1/11 136/1/11
f 136/1/12 137/1/12 133/1/12
f 137/1/12 136/1/12 140/1/12
f 153/1/8 141/1/8 144/1/8
f 141/1/8 153/1/8 154/1/8
f 152/1/9 141/1/9 154/1/9
f 141/1/9 152/1/9 137/1/9
f 153/1/10 152/1/10 154/1/10
f 152/1/10 153/1/10 151/1/10
f 152/1/13 140/1/13 137/1/13
f 140/1/13 152/1/13 151/1/13
f 144/1/11 151/1/11 153/1/11
f 151/1/11 144/1/11 140/1/11
f 140/1/12 141/1/12 137/1/12
f 141/1/12 140/1/12 144/1/12

usemtl color2

f 157/1/9 156/1/9 155/1/9
f 156/1/9 157/1/9 158/1/9
f 158/1/9 157/1/9 159/1/9
f 159/1/9 157/1/9 160/1/9
f 159/1/9 160/1/9 161/1/9
f 161/1/9 160/1/9 162/1/9
f 162/1/9 160/1/9 163/1/9
f 163/1/9 160/1/9 164/1/9
f 159/1/2 165/1/35 158/1/35
f 165/1/35 159/1/2 166/1/2
f 167/1/36 158/1/35 165/1/35
f 158/1/35 167/1/36 156/1/36
f 161/1/37 166/1/2 159/1/2
f 166/1/2 161/1/37 168/1/37
f 161/1/37 169/1/4 168/1/37
f 169/1/4 161/1/37 162/1/4
f 162/1/4 170/1/38 169/1/4
f 170/1/38 162/1/4 163/1/38
f 163/1/38 171/1/39 170/1/38
f 171/1/39 163/1/38 164/1/39
f 167/1/11 173/1/11 172/1/11
f 173/1/11 167/1/11 165/1/11
f 173/1/11 165/1/11 166/1/11
f 173/1/11 166/1/11 174/1/11
f 174/1/11 166/1/11 168/1/11
f 174/1/11 168/1/11 169/1/11
f 174/1/11 169/1/11 170/1/11
f 174/1/11 170/1/11 171/1/11
f 173/1/10 160/1/10 157/1/10
f 160/1/10 173/1/10 174/1/10
f 173/1/8 155/1/8 172/1/8
f 155/1/8 173/1/8 157/1/8
f 156/1/12 172/1/12 155/1/12
f 172/1/12 156/1/12 167/1/12
f 160/1/13 171/1/13 164/1/13
f 171/1/13 160/1/13 174/1/13
f 172/1/12 175/1/12 155/1/12
f 175/1/12 172/1/12 176/1/12
f 178/1/11 173/1/11 177/1/11
f 173/1/11 178/1/11 179/1/11
f 173/1/11 179/1/11 180/1/11
f 173/1/11 180/1/11 181/1/11
f 173/1/11 181/1/11 182/1/11
f 173/1/11 182/1/11 183/1/11
f 173/1/11 183/1/11 176/1/11
f 173/1/11 176/1/11 172/1/11
f 177/1/8 184/1/8 178/1/8
f 184/1/8 177/1/8 185/1/8
f 157/1/13 172/1/13 155/1/13
f 172/1/13 157/1/13 173/1/13
f 181/1/40 186/1/14 182/1/14
f 186/1/14 181/1/40 187/1/40
f 188/1/41 182/1/14 186/1/14
f 182/1/14 188/1/41 183/1/41
f 175/1/17 183/1/41 188/1/41
f 183/1/41 175/1/17 176/1/17
f 181/1/40 189/1/18 187/1/40
f 189/1/18 181/1/40 180/1/18
f 180/1/18 190/1/42 189/1/18
f 190/1/42 180/1/18 179/1/42
f 179/1/42 184/1/20 190/1/42
f 184/1/20 179/1/42 178/1/20
f 177/1/10 157/1/10 185/1/10
f 157/1/10 177/1/10 173/1/10
f 157/1/9 184/1/9 185/1/9
f 184/1/9 157/1/9 190/1/9
f 190/1/9 157/1/9 189/1/9
f 189/1/9 157/1/9 187/1/9
f 187/1/9 157/1/9 186/1/9
f 186/1/9 157/1/9 188/1/9
f 188/1/9 157/1/9 175/1/9
f 175/1/9 157/1/9 155/1/9
f 192/1/9 157/1/9 191/1/9
f 157/1/9 192/1/9 193/1/9
f 157/1/9 193/1/9 194/1/9
f 157/1/9 194/1/9 160/1/9
f 160/1/9 194/1/9 195/1/9
f 160/1/9 195/1/9 196/1/9
f 160/1/9 196/1/9 197/1/9
f 160/1/9 197/1/9 198/1/9
f 199/1/25 197/1/43 196/1/25
f 197/1/43 199/1/25 200/1/43
f 196/1/25 201/1/44 199/1/25
f 201/1/44 196/1/25 195/1/44
f 194/1/23 201/1/44 195/1/44
f 201/1/44 194/1/23 202/1/23
f 193/1/45 202/1/23 194/1/23
f 202/1/23 193/1/45 203/1/45
f 192/1/22 203/1/45 193/1/45
f 203/1/45 192/1/22 204/1/22
f 200/1/43 198/1/27 197/1/43
f 198/1/27 200/1/43 205/1/27
f 174/1/11 206/1/11 173/1/11
f 206/1/11 174/1/11 202/1/11
f 206/1/11 202/1/11 203/1/11
f 206/1/11 203/1/11 204/1/11
f 202/1/11 174/1/11 201/1/11
f 201/1/11 174/1/11 199/1/11
f 199/1/11 174/1/11 200/1/11
f 200/1/11 174/1/11 205/1/11
f 206/1/8 157/1/8 173/1/8
f 157/1/8 206/1/8 191/1/8
f 208/1/12 157/1/12 207/1/12
f 157/1/12 208/1/12 173/1/12
f 198/1/13 174/1/13 160/1/13
f 174/1/13 198/1/13 205/1/13
f 206/1/10 192/1/10 191/1/10
f 192/1/10 206/1/10 204/1/10
f 211/1/28 210/1/46 209/1/28
f 210/1/46 211/1/28 212/1/46
f 209/1/28 213/1/47 211/1/28
f 213/1/47 209/1/28 214/1/47
f 214/1/47 215/1/31 213/1/47
f 215/1/31 214/1/47 216/1/31
f 217/1/32 210/1/46 212/1/46
f 210/1/46 217/1/32 218/1/32
f 219/1/48 218/1/32 217/1/32
f 218/1/32 219/1/48 220/1/48
f 221/1/34 220/1/48 219/1/48
f 220/1/48 221/1/34 222/1/34
f 216/1/9 157/1/9 185/1/9
f 157/1/9 216/1/9 214/1/9
f 157/1/9 214/1/9 209/1/9
f 157/1/9 209/1/9 210/1/9
f 157/1/9 210/1/9 218/1/9
f 157/1/9 218/1/9 220/1/9
f 157/1/9 220/1/9 222/1/9
f 157/1/9 222/1/9 191/1/9
f 173/1/11 215/1/11 177/1/11
f 215/1/11 173/1/11 213/1/11
f 213/1/11 173/1/11 211/1/11
f 211/1/11 173/1/11 212/1/11
f 212/1/11 173/1/11 217/1/11
f 217/1/11 173/1/11 219/1/11
f 219/1/11 173/1/11 221/1/11
f 221/1/11 173/1/11 206/1/11
f 173/1/12 185/1/12 157/1/12
f 185/1/12 173/1/12 177/1/12
f 222/1/10 206/1/10 191/1/10
f 206/1/10 222/1/10 221/1/10
f 215/1/8 185/1/8 177/1/8
f 185/1/8 215/1/8 216/1/8
f 191/1/13 173/1/13 157/1/13
f 173/1/13 191/1/13 206/1/13

usemtl color0

f 225/1/8 224/1/8 223/1/8
f 224/1/8 225/1/8 226/1/8
f 225/1/10 227/1/10 226/1/10
f 227/1/10 225/1/10 228/1/10
f 227/1/9 224/1/9 226/1/9
f 224/1/9 227/1/9 229/1/9
f 230/1/11 225/1/11 223/1/11
f 225/1/11 230/1/11 228/1/11
f 230/1/12 224/1/12 229/1/12
f 224/1/12 230/1/12 223/1/12
f 227/1/13 230/1/13 229/1/13
f 230/1/13 227/1/13 228/1/13

