v 1 7 1.5
v 1 7 -1.5
v -1 7 1.5
v -1 7 -1.5
v -1 9 -1.5
v -1 9 1.5
v 1 9 -1.5
v 1 9 1.5
v 2 7 1.5
v 2 7 -1.5
v 1 8 -1.5
v 1 8 1.5
v 2 8 -1.5
v 2 8 1.5
v -2 7 1.5
v -2 7 -1.5
v -2 8 -1.5
v -2 8 1.5
v -1 8 -1.5
v -1 8 1.5
v 2 5 2
v 2 5 -2
v -2 5 2
v -2 5 -2
v -2 7 -2
v -2 7 2
v 2 7 -2
v 2 7 2
v 3 5 2
v 3 5 -2
v 2 6 -2
v 2 6 2
v 3 6 -2
v 3 6 2
v -3 5 2
v -3 5 -2
v -3 6 -2
v -3 6 2
v -2 6 -2
v -2 6 2
v 3 3 2.5
v 3 3 -2.5
v -3 3 2.5
v -3 3 -2.5
v -3 5 -2.5
v -3 5 2.5
v 3 5 -2.5
v 3 5 2.5
v 4 3 2.5
v 4 3 -2.5
v 3 4 -2.5
v 3 4 2.5
v 4 4 -2.5
v 4 4 2.5
v -4 3 2.5
v -4 3 -2.5
v -4 4 -2.5
v -4 4 2.5
v -3 4 -2.5
v -3 4 2.5
v 4 1 3
v 4 1 -3
v -4 1 3
v -4 1 -3
v -4 3 -3
v -4 3 3
v 4 3 -3
v 4 3 3
v 5 1 3
v 5 1 -3
v 4 2 -3
v 4 2 3
v 5 2 -3
v 5 2 3
v -5 1 3
v -5 1 -3
v -5 2 -3
v -5 2 3
v -4 2 -3
v -4 2 3
v 5 -1 3.5
v 5 -1 -3.5
v -5 -1 3.5
v -5 -1 -3.5
v -5 1 -3.5
v -5 1 3.5
v 5 1 -3.5
v 5 1 3.5
v 6 -1 3.5
v 6 -1 -3.5
v 5 0 -3.5
v 5 0 3.5
v 6 0 -3.5
v 6 0 3.5
v -6 -1 3.5
v -6 -1 -3.5
v -6 0 -3.5
v -6 0 3.5
v -5 0 -3.5
v -5 0 3.5
v 6 -3 4
v 6 -3 -4
v -6 -3 4
v -6 -3 -4
v -6 -1 -4
v -6 -1 4
v 6 -1 -4
v 6 -1 4
v 1 -7 1.5
v 1 -7 -1.5
v -1 -7 1.5
v -1 -7 -1.5
v -1 -3 -1.5
v -1 -3 1.5
v 1 -3 -1.5
v 1 -3 1.5

vn 0 -1 0
vn -1 0 0
vn 0 0 -1
vn 0 0 1
vn 1 0 0
vn 0 1 0

vt 0 0

usemtl color6

f 3/1/1 2/1/1 1/1/1
f 2/1/1 3/1/1 4/1/1
f 3/1/2 5/1/2 4/1/2
f 5/1/2 3/1/2 6/1/2
f 5/1/3 2/1/3 4/1/3
f 2/1/3 5/1/3 7/1/3
f 8/1/4 3/1/4 1/1/4
f 3/1/4 8/1/4 6/1/4
f 8/1/5 2/1/5 7/1/5
f 2/1/5 8/1/5 1/1/5
f 5/1/6 8/1/6 7/1/6
f 8/1/6 5/1/6 6/1/6
f 1/1/1 10/1/1 9/1/1
f 10/1/1 1/1/1 2/1/1
f 1/1/2 11/1/2 2/1/2
f 11/1/2 1/1/2 12/1/2
f 11/1/3 10/1/3 2/1/3
f 10/1/3 11/1/3 13/1/3
f 14/1/4 1/1/4 9/1/4
f 1/1/4 14/1/4 12/1/4
f 14/1/5 10/1/5 13/1/5
f 10/1/5 14/1/5 9/1/5
f 11/1/6 14/1/6 13/1/6
f 14/1/6 11/1/6 12/1/6
f 15/1/1 4/1/1 3/1/1
f 4/1/1 15/1/1 16/1/1
f 15/1/2 17/1/2 16/1/2
f 17/1/2 15/1/2 18/1/2
f 17/1/3 4/1/3 16/1/3
f 4/1/3 17/1/3 19/1/3
f 20/1/4 15/1/4 3/1/4
f 15/1/4 20/1/4 18/1/4
f 20/1/5 4/1/5 19/1/5
f 4/1/5 20/1/5 3/1/5
f 17/1/6 20/1/6 19/1/6
f 20/1/6 17/1/6 18/1/6
f 23/1/1 22/1/1 21/1/1
f 22/1/1 23/1/1 24/1/1
f 23/1/2 25/1/2 24/1/2
f 25/1/2 23/1/2 26/1/2
f 25/1/3 22/1/3 24/1/3
f 22/1/3 25/1/3 27/1/3
f 28/1/4 23/1/4 21/1/4
f 23/1/4 28/1/4 26/1/4
f 28/1/5 22/1/5 27/1/5
f 22/1/5 28/1/5 21/1/5
f 25/1/6 28/1/6 27/1/6
f 28/1/6 25/1/6 26/1/6
f 21/1/1 30/1/1 29/1/1
f 30/1/1 21/1/1 22/1/1
f 21/1/2 31/1/2 22/1/2
f 31/1/2 21/1/2 32/1/2
f 31/1/3 30/1/3 22/1/3
f 30/1/3 31/1/3 33/1/3
f 34/1/4 21/1/4 29/1/4
f 21/1/4 34/1/4 32/1/4
f 34/1/5 30/1/5 33/1/5
f 30/1/5 34/1/5 29/1/5
f 31/1/6 34/1/6 33/1/6
f 34/1/6 31/1/6 32/1/6
f 35/1/1 24/1/1 23/1/1
f 24/1/1 35/1/1 36/1/1
f 35/1/2 37/1/2 36/1/2
f 37/1/2 35/1/2 38/1/2
f 37/1/3 24/1/3 36/1/3
f 24/1/3 37/1/3 39/1/3
f 40/1/4 35/1/4 23/1/4
f 35/1/4 40/1/4 38/1/4
f 40/1/5 24/1/5 39/1/5
f 24/1/5 40/1/5 23/1/5
f 37/1/6 40/1/6 39/1/6
f 40/1/6 37/1/6 38/1/6
f 43/1/1 42/1/1 41/1/1
f 42/1/1 43/1/1 44/1/1
f 43/1/2 45/1/2 44/1/2
f 45/1/2 43/1/2 46/1/2
f 45/1/3 42/1/3 44/1/3
f 42/1/3 45/1/3 47/1/3
f 48/1/4 43/1/4 41/1/4
f 43/1/4 48/1/4 46/1/4
f 48/1/5 42/1/5 47/1/5
f 42/1/5 48/1/5 41/1/5
f 45/1/6 48/1/6 47/1/6
f 48/1/6 45/1/6 46/1/6
f 41/1/1 50/1/1 49/1/1
f 50/1/1 41/1/1 42/1/1
f 41/1/2 51/1/2 42/1/2
f 51/1/2 41/1/2 52/1/2
f 51/1/3 50/1/3 42/1/3
f 50/1/3 51/1/3 53/1/3
f 54/1/4 41/1/4 49/1/4
f 41/1/4 54/1/4 52/1/4
f 54/1/5 50/1/5 53/1/5
f 50/1/5 54/1/5 49/1/5
f 51/1/6 54/1/6 53/1/6
f 54/1/6 51/1/6 52/1/6
f 55/1/1 44/1/1 43/1/1
f 44/1/1 55/1/1 56/1/1
f 55/1/2 57/1/2 56/1/2
f 57/1/2 55/1/2 58/1/2
f 57/1/3 44/1/3 56/1/3
f 44/1/3 57/1/3 59/1/3
f 60/1/4 55/1/4 43/1/4
f 55/1/4 60/1/4 58/1/4
f 60/1/5 44/1/5 59/1/5
f 44/1/5 60/1/5 43/1/5
f 57/1/6 60/1/6 59/1/6
f 60/1/6 57/1/6 58/1/6
f 63/1/1 62/1/1 61/1/1
f 62/1/1 63/1/1 64/1/1
f 63/1/2 65/1/2 64/1/2
f 65/1/2 63/1/2 66/1/2
f 65/1/3 62/1/3 64/1/3
f 62/1/3 65/1/3 67/1/3
f 68/1/4 63/1/4 61/1/4
f 63/1/4 68/1/4 66/1/4
f 68/1/5 62/1/5 67/1/5
f 62/1/5 68/1/5 61/1/5
f 65/1/6 68/1/6 67/1/6
f 68/1/6 65/1/6 66/1/6
f 61/1/1 70/1/1 69/1/1
f 70/1/1 61/1/1 62/1/1
f 61/1/2 71/1/2 62/1/2
f 71/1/2 61/1/2 72/1/2
f 71/1/3 70/1/3 62/1/3
f 70/1/3 71/1/3 73/1/3
f 74/1/4 61/1/4 69/1/4
f 61/1/4 74/1/4 72/1/4
f 74/1/5 70/1/5 73/1/5
f 70/1/5 74/1/5 69/1/5
f 71/1/6 74/1/6 73/1/6
f 74/1/6 71/1/6 72/1/6
f 75/1/1 64/1/1 63/1/1
f 64/1/1 75/1/1 76/1/1
f 75/1/2 77/1/2 76/1/2
f 77/1/2 75/1/2 78/1/2
f 77/1/3 64/1/3 76/1/3
f 64/1/3 77/1/3 79/1/3
f 80/1/4 75/1/4 63/1/4
f 75/1/4 80/1/4 78/1/4
f 80/1/5 64/1/5 79/1/5
f 64/1/5 80/1/5 63/1/5
f 77/1/6 80/1/6 79/1/6
f 80/1/6 77/1/6 78/1/6
f 83/1/1 82/1/1 81/1/1
f 82/1/1 83/1/1 84/1/1
f 83/1/2 85/1/2 84/1/2
f 85/1/2 83/1/2 86/1/2
f 85/1/3 82/1/3 84/1/3
f 82/1/3 85/1/3 87/1/3
f 88/1/4 83/1/4 81/1/4
f 83/1/4 88/1/4 86/1/4
f 88/1/5 82/1/5 87/1/5
f 82/1/5 88/1/5 81/1/5
f 85/1/6 88/1/6 87/1/6
f 88/1/6 85/1/6 86/1/6
f 81/1/1 90/1/1 89/1/1
f 90/1/1 81/1/1 82/1/1
f 81/1/2 91/1/2 82/1/2
f 91/1/2 81/1/2 92/1/2
f 91/1/3 90/1/3 82/1/3
f 90/1/3 91/1/3 93/1/3
f 94/1/4 81/1/4 89/1/4
f 81/1/4 94/1/4 92/1/4
f 94/1/5 90/1/5 93/1/5
f 90/1/5 94/1/5 89/1/5
f 91/1/6 94/1/6 93/1/6
f 94/1/6 91/1/6 92/1/6
f 95/1/1 84/1/1 83/1/1
f 84/1/1 95/1/1 96/1/1
f 95/1/2 97/1/2 96/1/2
f 97/1/2 95/1/2 98/1/2
f 97/1/3 84/1/3 96/1/3
f 84/1/3 97/1/3 99/1/3
f 100/1/4 95/1/4 83/1/4
f 95/1/4 100/1/4 98/1/4
f 100/1/5 84/1/5 99/1/5
f 84/1/5 100/1/5 83/1/5
f 97/1/6 100/1/6 99/1/6
f 100/1/6 97/1/6 98/1/6
f 103/1/1 102/1/1 101/1/1
f 102/1/1 103/1/1 104/1/1
f 103/1/2 105/1/2 104/1/2
f 105/1/2 103/1/2 106/1/2
f 105/1/3 102/1/3 104/1/3
f 102/1/3 105/1/3 107/1/3
f 108/1/4 103/1/4 101/1/4
f 103/1/4 108/1/4 106/1/4
f 108/1/5 102/1/5 107/1/5
f 102/1/5 108/1/5 101/1/5
f 105/1/6 108/1/6 107/1/6
f 108/1/6 105/1/6 106/1/6

usemtl color3

f 111/1/1 110/1/1 109/1/1
f 110/1/1 111/1/1 112/1/1
f 111/1/2 113/1/2 112/1/2
f 113/1/2 111/1/2 114/1/2
f 113/1/3 110/1/3 112/1/3
f 110/1/3 113/1/3 115/1/3
f 116/1/4 111/1/4 109/1/4
f 111/1/4 116/1/4 114/1/4
f 116/1/5 110/1/5 115/1/5
f 110/1/5 116/1/5 109/1/5
f 113/1/6 116/1/6 115/1/6
f 116/1/6 113/1/6 114/1/6

