v 4 4 1.5
v 3 4 1.5
v 3.965926 4.258819 1.5
v 3 5 1.5
v 3.866025 4.5 1.5
v 3.707107 4.707107 1.5
v 3.5 4.866025 1.5
v 3.258819 4.965926 1.5
v 3.707107 4.707107 -1.5
v 3.5 4.866025 -1.5
v 3.866025 4.5 -1.5
v 3.965926 4.258819 -1.5
v 4 4 -1.5
v 3.258819 4.965926 -1.5
v 3 5 -1.5
v 3 4 -1.5
v 4 -1 -1
v 3.5 0 -1
v 3 -0.5 -1
v 3 0 -1
v 3.5 0 1
v 4 -1 1
v 3 -0.5 1
v 3 0 1
v 3 3 1.5
v 3 3 -1.5
v 2.5 3 1.5
v 2.5 3 -1.5
v 2.5 4 -1.5
v 2.5 4 1.5
v 3 2 1.5
v 3 2 -1.5
v 2.5 2 1.5
v 2.5 2 -1.5
v 2 1 -1.5
v 3 1 -1.5
v 2 1.5 -1.5
v 2.12941 1.517037 -1.5
v 2.25 1.566987 -1.5
v 2.353553 1.646447 -1.5
v 2.433013 1.75 -1.5
v 2.482963 1.87059 -1.5
v 2.433013 1.75 1.5
v 2.482963 1.87059 1.5
v 2.353553 1.646447 1.5
v 2.25 1.566987 1.5
v 2.12941 1.517037 1.5
v 2 1.5 1.5
v 3 1 1.5
v 2 1 1.5
v 3 -2 -1
v 2.5 -1 -1
v 2 -1.5 -1
v 2 -1 -1
v 2.5 -1 1
v 3 -2 1
v 2 -1.5 1
v 2 -1 1
v 2 5 2
v 1 5 2
v 1.965926 5.258819 2
v 1 6 2
v 1.866025 5.5 2
v 1.707107 5.707107 2
v 1.5 5.866025 2
v 1.258819 5.965926 2
v 1.707107 5.707107 -2
v 1.5 5.866025 -2
v 1.866025 5.5 -2
v 1.965926 5.258819 -2
v 2 5 -2
v 1.258819 5.965926 -2
v 1 6 -2
v 1 5 -2
v -1.258819 5.965926 -2
v -1.258819 5.965926 2
v -1.5 5.866025 -2
v -1.5 5.866025 2
v -1 6 2
v -1 6 -2
v -1.707107 5.707107 -2
v -1.707107 5.707107 2
v -1.866025 5.5 2
v -1.866025 5.5 -2
v -1.965926 5.258819 2
v -1.965926 5.258819 -2
v -2 5 2
v -2 5 -2
v -1 5 -2
v -1 5 2
v 1 3 2
v 1 3 -2
v -1 3 2
v -1 3 -2
v 2 4 1.5
v 2 4 -1.5
v 2 5 -1.5
v 2 5 1.5
v 2 2 2
v 2 2 -2
v 1 2 2
v 1 2 -2
v -1 4 2
v -1 4 -2
v -2 4 2
v -2 4 -2
v 4 0 1.5
v 4 0 -1.5
v 3 0 1.5
v 3 0 -1.5
v 3 -1 1.5
v 3 -1 -1.5
v 2 -1 1.5
v 2 -1 -1.5
v 1.258819 1.034074 1.5
v 1.258819 1.034074 -1.5
v 1 1 1.5
v 1 1 -1.5
v 1.5 1.133975 -1.5
v 1.5 1.133975 1.5
v 1.707107 1.292893 -1.5
v 1.707107 1.292893 1.5
v 1.866025 1.5 1.5
v 1.866025 1.5 -1.5
v 1.965926 1.741181 1.5
v 1.965926 1.741181 -1.5
v 2 2 1.5
v 2 2 -1.5
v 1 2 -1.5
v 1 2 1.5
v -1.5 1.133975 1.5
v -1.5 1.133975 -1.5
v -1.707107 1.292893 1.5
v -1.707107 1.292893 -1.5
v -1.258819 1.034074 -1.5
v -1.258819 1.034074 1.5
v -1 1 -1.5
v -1 1 1.5
v -1.866025 1.5 -1.5
v -1.866025 1.5 1.5
v -1.965926 1.741181 -1.5
v -1.965926 1.741181 1.5
v -2 2 -1.5
v -2 2 1.5
v -1 2 -1.5
v -1 2 1.5
v -2 4 -1.5
v -2 4 1.5
v -1 4 -1.5
v -1 4 1.5
v -1 3 -1.5
v -1 3 1.5
v 1 3 -1.5
v 1 3 1.5
v 2 0 2
v 1 0 2
v 1.965926 0.258819 2
v 1 1 2
v 1.866025 0.5 2
v 1.707107 0.7071068 2
v 1.5 0.8660254 2
v 1.258819 0.9659258 2
v 1.707107 0.7071068 -2
v 1.5 0.8660254 -2
v 1.866025 0.5 -2
v 1.965926 0.258819 -2
v 2 0 -2
v 1.258819 0.9659258 -2
v 1 1 -2
v 1 0 -2
v -1.258819 0.9659258 -2
v -1.258819 0.9659258 2
v -1.5 0.8660254 -2
v -1.5 0.8660254 2
v -1 1 2
v -1 1 -2
v -1.707107 0.7071068 -2
v -1.707107 0.7071068 2
v -1.866025 0.5 2
v -1.866025 0.5 -2
v -1.965926 0.258819 2
v -1.965926 0.258819 -2
v -2 0 2
v -2 0 -2
v -1 0 -2
v -1 0 2
v 1 -2 2
v 1 -2 -2
v -1 -2 2
v -1 -2 -2
v 2 -2 2
v 2 -2 -2
v -2 -2 2
v -2 -2 -2
v 1.258819 -3.965926 1.5
v 1.258819 -3.965926 -1.5
v 1 -4 1.5
v 1 -4 -1.5
v 1.5 -3.866025 -1.5
v 1.5 -3.866025 1.5
v 1.707107 -3.707107 -1.5
v 1.707107 -3.707107 1.5
v 1.866025 -3.5 1.5
v 1.866025 -3.5 -1.5
v 1.965926 -3.258819 1.5
v 1.965926 -3.258819 -1.5
v 2 -3 1.5
v 2 -3 -1.5
v 1 -3 -1.5
v 1 -3 1.5
v -1.5 -3.866025 1.5
v -1.5 -3.866025 -1.5
v -1.707107 -3.707107 1.5
v -1.707107 -3.707107 -1.5
v -1.258819 -3.965926 -1.5
v -1.258819 -3.965926 1.5
v -1 -4 -1.5
v -1 -4 1.5
v -1.866025 -3.5 -1.5
v -1.866025 -3.5 1.5
v -1.965926 -3.258819 -1.5
v -1.965926 -3.258819 1.5
v -2 -3 -1.5
v -2 -3 1.5
v -1 -3 -1.5
v -1 -3 1.5
v -2 -2 -1.5
v -2 -2 1.5
v 2 -2 -1.5
v 2 -2 1.5

vn 0 0 1
vn 0.7071068 0.7071068 0
vn 0.5 0.8660254 0
vn 0.8660254 0.5 0
vn 0.9659259 0.2588191 0
vn 0.9914449 0.1305262 0
vn 0.2588191 0.9659258 0
vn 0.1305262 0.9914449 0
vn 0 0 -1
vn 0 -1 0
vn -1 0 0
vn 0.8944272 0.4472136 0
vn -0.4472136 -0.8944272 0
vn 0 1 0
vn 1 0 0
vn -0.8660254 0.5 0
vn -0.9659259 0.2588191 0
vn -0.7071068 0.7071068 0
vn -0.5 0.8660254 0
vn -0.2588191 0.9659259 0
vn -0.1305262 0.9914449 0
vn -0.9914449 0.1305262 0
vn 0.2588191 -0.9659259 0
vn 0.1305262 -0.9914449 0
vn 0.5 -0.8660254 0
vn 0.7071068 -0.7071068 0
vn 0.8660254 -0.5 0
vn 0.9659259 -0.2588191 0
vn 0.9914449 -0.1305262 0
vn -0.5 -0.8660254 0
vn -0.7071068 -0.7071068 0
vn -0.2588191 -0.9659259 0
vn -0.1305262 -0.9914449 0
vn -0.8660254 -0.5 0
vn -0.9659259 -0.2588191 0
vn -0.9914449 -0.1305262 0

vt 0 0

usemtl color2

f 3/1/1 2/1/1 1/1/1
f 2/1/1 3/1/1 4/1/1
f 4/1/1 3/1/1 5/1/1
f 4/1/1 5/1/1 6/1/1
f 4/1/1 6/1/1 7/1/1
f 4/1/1 7/1/1 8/1/1
f 10/1/3 6/1/2 9/1/2
f 6/1/2 10/1/3 7/1/3
f 6/1/2 11/1/4 9/1/2
f 11/1/4 6/1/2 5/1/4
f 5/1/4 12/1/5 11/1/4
f 12/1/5 5/1/4 3/1/5
f 3/1/5 13/1/6 12/1/5
f 13/1/6 3/1/5 1/1/6
f 14/1/7 7/1/3 10/1/3
f 7/1/3 14/1/7 8/1/7
f 15/1/8 8/1/7 14/1/7
f 8/1/7 15/1/8 4/1/8
f 16/1/9 12/1/9 13/1/9
f 12/1/9 16/1/9 15/1/9
f 12/1/9 15/1/9 11/1/9
f 11/1/9 15/1/9 9/1/9
f 9/1/9 15/1/9 10/1/9
f 10/1/9 15/1/9 14/1/9
f 2/1/10 13/1/10 1/1/10
f 13/1/10 2/1/10 16/1/10
f 2/1/11 15/1/11 16/1/11
f 15/1/11 2/1/11 4/1/11
f 19/1/9 18/1/9 17/1/9
f 18/1/9 19/1/9 20/1/9
f 21/1/12 17/1/12 18/1/12
f 17/1/12 21/1/12 22/1/12
f 23/1/13 17/1/13 22/1/13
f 17/1/13 23/1/13 19/1/13
f 21/1/1 23/1/1 22/1/1
f 23/1/1 21/1/1 24/1/1
f 23/1/11 20/1/11 19/1/11
f 20/1/11 23/1/11 24/1/11
f 20/1/14 21/1/14 18/1/14
f 21/1/14 20/1/14 24/1/14
f 27/1/10 26/1/10 25/1/10
f 26/1/10 27/1/10 28/1/10
f 29/1/9 26/1/9 28/1/9
f 26/1/9 29/1/9 16/1/9
f 27/1/11 29/1/11 28/1/11
f 29/1/11 27/1/11 30/1/11
f 29/1/14 2/1/14 16/1/14
f 2/1/14 29/1/14 30/1/14
f 25/1/1 30/1/1 27/1/1
f 30/1/1 25/1/1 2/1/1
f 2/1/15 26/1/15 16/1/15
f 26/1/15 2/1/15 25/1/15
f 33/1/10 32/1/10 31/1/10
f 32/1/10 33/1/10 34/1/10
f 28/1/9 32/1/9 34/1/9
f 32/1/9 28/1/9 26/1/9
f 33/1/11 28/1/11 34/1/11
f 28/1/11 33/1/11 27/1/11
f 28/1/14 25/1/14 26/1/14
f 25/1/14 28/1/14 27/1/14
f 31/1/1 27/1/1 33/1/1
f 27/1/1 31/1/1 25/1/1
f 25/1/15 32/1/15 26/1/15
f 32/1/15 25/1/15 31/1/15
f 37/1/9 36/1/9 35/1/9
f 36/1/9 37/1/9 38/1/9
f 36/1/9 38/1/9 39/1/9
f 36/1/9 39/1/9 32/1/9
f 32/1/9 39/1/9 40/1/9
f 32/1/9 40/1/9 41/1/9
f 32/1/9 41/1/9 42/1/9
f 32/1/9 42/1/9 34/1/9
f 43/1/16 42/1/17 41/1/16
f 42/1/17 43/1/16 44/1/17
f 41/1/16 45/1/18 43/1/16
f 45/1/18 41/1/16 40/1/18
f 39/1/19 45/1/18 40/1/18
f 45/1/18 39/1/19 46/1/19
f 38/1/20 46/1/19 39/1/19
f 46/1/19 38/1/20 47/1/20
f 37/1/21 47/1/20 38/1/20
f 47/1/20 37/1/21 48/1/21
f 44/1/17 34/1/22 42/1/17
f 34/1/22 44/1/17 33/1/22
f 31/1/1 50/1/1 49/1/1
f 50/1/1 31/1/1 46/1/1
f 50/1/1 46/1/1 47/1/1
f 50/1/1 47/1/1 48/1/1
f 46/1/1 31/1/1 45/1/1
f 45/1/1 31/1/1 43/1/1
f 43/1/1 31/1/1 44/1/1
f 44/1/1 31/1/1 33/1/1
f 50/1/10 36/1/10 49/1/10
f 36/1/10 50/1/10 35/1/10
f 31/1/15 36/1/15 32/1/15
f 36/1/15 31/1/15 49/1/15
f 34/1/14 31/1/14 32/1/14
f 31/1/14 34/1/14 33/1/14
f 50/1/11 37/1/11 35/1/11
f 37/1/11 50/1/11 48/1/11
f 53/1/9 52/1/9 51/1/9
f 52/1/9 53/1/9 54/1/9
f 55/1/12 51/1/12 52/1/12
f 51/1/12 55/1/12 56/1/12
f 57/1/13 51/1/13 56/1/13
f 51/1/13 57/1/13 53/1/13
f 55/1/1 57/1/1 56/1/1
f 57/1/1 55/1/1 58/1/1
f 57/1/11 54/1/11 53/1/11
f 54/1/11 57/1/11 58/1/11
f 54/1/14 55/1/14 52/1/14
f 55/1/14 54/1/14 58/1/14
f 61/1/1 60/1/1 59/1/1
f 60/1/1 61/1/1 62/1/1
f 62/1/1 61/1/1 63/1/1
f 62/1/1 63/1/1 64/1/1
f 62/1/1 64/1/1 65/1/1
f 62/1/1 65/1/1 66/1/1
f 68/1/3 64/1/2 67/1/2
f 64/1/2 68/1/3 65/1/3
f 64/1/2 69/1/4 67/1/2
f 69/1/4 64/1/2 63/1/4
f 63/1/4 70/1/5 69/1/4
f 70/1/5 63/1/4 61/1/5
f 61/1/5 71/1/6 70/1/5
f 71/1/6 61/1/5 59/1/6
f 72/1/7 65/1/3 68/1/3
f 65/1/3 72/1/7 66/1/7
f 73/1/8 66/1/7 72/1/7
f 66/1/7 73/1/8 62/1/8
f 74/1/9 70/1/9 71/1/9
f 70/1/9 74/1/9 73/1/9
f 70/1/9 73/1/9 69/1/9
f 69/1/9 73/1/9 67/1/9
f 67/1/9 73/1/9 68/1/9
f 68/1/9 73/1/9 72/1/9
f 60/1/10 71/1/10 59/1/10
f 71/1/10 60/1/10 74/1/10
f 60/1/11 73/1/11 74/1/11
f 73/1/11 60/1/11 62/1/11
f 77/1/19 76/1/20 75/1/20
f 76/1/20 77/1/19 78/1/19
f 79/1/21 75/1/20 76/1/20
f 75/1/20 79/1/21 80/1/21
f 81/1/18 78/1/19 77/1/19
f 78/1/19 81/1/18 82/1/18
f 81/1/18 83/1/16 82/1/18
f 83/1/16 81/1/18 84/1/16
f 84/1/16 85/1/17 83/1/16
f 85/1/17 84/1/16 86/1/17
f 86/1/17 87/1/22 85/1/17
f 87/1/22 86/1/17 88/1/22
f 79/1/15 89/1/15 80/1/15
f 89/1/15 79/1/15 90/1/15
f 86/1/9 89/1/9 88/1/9
f 89/1/9 86/1/9 80/1/9
f 80/1/9 86/1/9 84/1/9
f 80/1/9 84/1/9 81/1/9
f 80/1/9 81/1/9 77/1/9
f 80/1/9 77/1/9 75/1/9
f 79/1/1 87/1/1 90/1/1
f 87/1/1 79/1/1 85/1/1
f 85/1/1 79/1/1 83/1/1
f 83/1/1 79/1/1 82/1/1
f 82/1/1 79/1/1 78/1/1
f 78/1/1 79/1/1 76/1/1
f 87/1/10 89/1/10 90/1/10
f 89/1/10 87/1/10 88/1/10
f 93/1/10 92/1/10 91/1/10
f 92/1/10 93/1/10 94/1/10
f 93/1/11 80/1/11 94/1/11
f 80/1/11 93/1/11 79/1/11
f 80/1/9 92/1/9 94/1/9
f 92/1/9 80/1/9 73/1/9
f 62/1/1 93/1/1 91/1/1
f 93/1/1 62/1/1 79/1/1
f 62/1/15 92/1/15 73/1/15
f 92/1/15 62/1/15 91/1/15
f 80/1/14 62/1/14 73/1/14
f 62/1/14 80/1/14 79/1/14
f 95/1/10 16/1/10 2/1/10
f 16/1/10 95/1/10 96/1/10
f 95/1/11 97/1/11 96/1/11
f 97/1/11 95/1/11 98/1/11
f 97/1/9 16/1/9 96/1/9
f 16/1/9 97/1/9 15/1/9
f 4/1/1 95/1/1 2/1/1
f 95/1/1 4/1/1 98/1/1
f 4/1/15 16/1/15 15/1/15
f 16/1/15 4/1/15 2/1/15
f 97/1/14 4/1/14 15/1/14
f 4/1/14 97/1/14 98/1/14
f 101/1/10 100/1/10 99/1/10
f 100/1/10 101/1/10 102/1/10
f 101/1/11 74/1/11 102/1/11
f 74/1/11 101/1/11 60/1/11
f 74/1/9 100/1/9 102/1/9
f 100/1/9 74/1/9 71/1/9
f 59/1/1 101/1/1 99/1/1
f 101/1/1 59/1/1 60/1/1
f 59/1/15 100/1/15 71/1/15
f 100/1/15 59/1/15 99/1/15
f 74/1/14 59/1/14 71/1/14
f 59/1/14 74/1/14 60/1/14
f 105/1/10 104/1/10 103/1/10
f 104/1/10 105/1/10 106/1/10
f 105/1/11 88/1/11 106/1/11
f 88/1/11 105/1/11 87/1/11
f 88/1/9 104/1/9 106/1/9
f 104/1/9 88/1/9 89/1/9
f 90/1/1 105/1/1 103/1/1
f 105/1/1 90/1/1 87/1/1
f 90/1/15 104/1/15 89/1/15
f 104/1/15 90/1/15 103/1/15
f 88/1/14 90/1/14 89/1/14
f 90/1/14 88/1/14 87/1/14
f 109/1/10 108/1/10 107/1/10
f 108/1/10 109/1/10 110/1/10
f 109/1/11 16/1/11 110/1/11
f 16/1/11 109/1/11 2/1/11
f 16/1/9 108/1/9 110/1/9
f 108/1/9 16/1/9 13/1/9
f 1/1/1 109/1/1 107/1/1
f 109/1/1 1/1/1 2/1/1
f 1/1/15 108/1/15 13/1/15
f 108/1/15 1/1/15 107/1/15
f 16/1/14 1/1/14 13/1/14
f 1/1/14 16/1/14 2/1/14
f 113/1/10 112/1/10 111/1/10
f 112/1/10 113/1/10 114/1/10
f 113/1/11 35/1/11 114/1/11
f 35/1/11 113/1/11 50/1/11
f 35/1/9 112/1/9 114/1/9
f 112/1/9 35/1/9 36/1/9
f 49/1/1 113/1/1 111/1/1
f 113/1/1 49/1/1 50/1/1
f 49/1/15 112/1/15 36/1/15
f 112/1/15 49/1/15 111/1/15
f 35/1/14 49/1/14 36/1/14
f 49/1/14 35/1/14 50/1/14

usemtl color1

f 117/1/24 116/1/23 115/1/23
f 116/1/23 117/1/24 118/1/24
f 119/1/25 115/1/23 116/1/23
f 115/1/23 119/1/25 120/1/25
f 121/1/26 120/1/25 119/1/25
f 120/1/25 121/1/26 122/1/26
f 121/1/26 123/1/27 122/1/26
f 123/1/27 121/1/26 124/1/27
f 124/1/27 125/1/28 123/1/27
f 125/1/28 124/1/27 126/1/28
f 126/1/28 127/1/29 125/1/28
f 127/1/29 126/1/28 128/1/29
f 117/1/11 129/1/11 118/1/11
f 129/1/11 117/1/11 130/1/11
f 129/1/14 127/1/14 128/1/14
f 127/1/14 129/1/14 130/1/14
f 129/1/9 116/1/9 118/1/9
f 116/1/9 129/1/9 119/1/9
f 119/1/9 129/1/9 121/1/9
f 121/1/9 129/1/9 124/1/9
f 124/1/9 129/1/9 126/1/9
f 126/1/9 129/1/9 128/1/9
f 115/1/1 130/1/1 117/1/1
f 130/1/1 115/1/1 120/1/1
f 130/1/1 120/1/1 122/1/1
f 130/1/1 122/1/1 123/1/1
f 130/1/1 123/1/1 125/1/1
f 130/1/1 125/1/1 127/1/1
f 133/1/31 132/1/30 131/1/30
f 132/1/30 133/1/31 134/1/31
f 135/1/32 131/1/30 132/1/30
f 131/1/30 135/1/32 136/1/32
f 137/1/33 136/1/32 135/1/32
f 136/1/32 137/1/33 138/1/33
f 133/1/31 139/1/34 134/1/31
f 139/1/34 133/1/31 140/1/34
f 140/1/34 141/1/35 139/1/34
f 141/1/35 140/1/34 142/1/35
f 142/1/35 143/1/36 141/1/35
f 143/1/36 142/1/35 144/1/36
f 143/1/14 146/1/14 145/1/14
f 146/1/14 143/1/14 144/1/14
f 146/1/15 137/1/15 145/1/15
f 137/1/15 146/1/15 138/1/15
f 135/1/9 145/1/9 137/1/9
f 145/1/9 135/1/9 132/1/9
f 145/1/9 132/1/9 134/1/9
f 145/1/9 134/1/9 139/1/9
f 145/1/9 139/1/9 141/1/9
f 145/1/9 141/1/9 143/1/9
f 146/1/1 136/1/1 138/1/1
f 136/1/1 146/1/1 131/1/1
f 131/1/1 146/1/1 133/1/1
f 133/1/1 146/1/1 140/1/1
f 140/1/1 146/1/1 142/1/1
f 142/1/1 146/1/1 144/1/1
f 144/1/10 145/1/10 146/1/10
f 145/1/10 144/1/10 143/1/10
f 144/1/11 147/1/11 143/1/11
f 147/1/11 144/1/11 148/1/11
f 147/1/9 145/1/9 143/1/9
f 145/1/9 147/1/9 149/1/9
f 150/1/1 144/1/1 146/1/1
f 144/1/1 150/1/1 148/1/1
f 150/1/15 145/1/15 149/1/15
f 145/1/15 150/1/15 146/1/15
f 147/1/14 150/1/14 149/1/14
f 150/1/14 147/1/14 148/1/14
f 138/1/10 118/1/10 117/1/10
f 118/1/10 138/1/10 137/1/10
f 138/1/11 151/1/11 137/1/11
f 151/1/11 138/1/11 152/1/11
f 151/1/9 118/1/9 137/1/9
f 118/1/9 151/1/9 153/1/9
f 154/1/1 138/1/1 117/1/1
f 138/1/1 154/1/1 152/1/1
f 154/1/15 118/1/15 153/1/15
f 118/1/15 154/1/15 117/1/15
f 151/1/14 154/1/14 153/1/14
f 154/1/14 151/1/14 152/1/14

usemtl color9

f 157/1/1 156/1/1 155/1/1
f 156/1/1 157/1/1 158/1/1
f 158/1/1 157/1/1 159/1/1
f 158/1/1 159/1/1 160/1/1
f 158/1/1 160/1/1 161/1/1
f 158/1/1 161/1/1 162/1/1
f 164/1/3 160/1/2 163/1/2
f 160/1/2 164/1/3 161/1/3
f 160/1/2 165/1/4 163/1/2
f 165/1/4 160/1/2 159/1/4
f 159/1/4 166/1/5 165/1/4
f 166/1/5 159/1/4 157/1/5
f 157/1/5 167/1/6 166/1/5
f 167/1/6 157/1/5 155/1/6
f 168/1/7 161/1/3 164/1/3
f 161/1/3 168/1/7 162/1/7
f 169/1/8 162/1/7 168/1/7
f 162/1/7 169/1/8 158/1/8
f 170/1/9 166/1/9 167/1/9
f 166/1/9 170/1/9 169/1/9
f 166/1/9 169/1/9 165/1/9
f 165/1/9 169/1/9 163/1/9
f 163/1/9 169/1/9 164/1/9
f 164/1/9 169/1/9 168/1/9
f 156/1/10 167/1/10 155/1/10
f 167/1/10 156/1/10 170/1/10
f 156/1/11 169/1/11 170/1/11
f 169/1/11 156/1/11 158/1/11
f 173/1/19 172/1/20 171/1/20
f 172/1/20 173/1/19 174/1/19
f 175/1/21 171/1/20 172/1/20
f 171/1/20 175/1/21 176/1/21
f 177/1/18 174/1/19 173/1/19
f 174/1/19 177/1/18 178/1/18
f 177/1/18 179/1/16 178/1/18
f 179/1/16 177/1/18 180/1/16
f 180/1/16 181/1/17 179/1/16
f 181/1/17 180/1/16 182/1/17
f 182/1/17 183/1/22 181/1/17
f 183/1/22 182/1/17 184/1/22
f 175/1/15 185/1/15 176/1/15
f 185/1/15 175/1/15 186/1/15
f 182/1/9 185/1/9 184/1/9
f 185/1/9 182/1/9 176/1/9
f 176/1/9 182/1/9 180/1/9
f 176/1/9 180/1/9 177/1/9
f 176/1/9 177/1/9 173/1/9
f 176/1/9 173/1/9 171/1/9
f 175/1/1 183/1/1 186/1/1
f 183/1/1 175/1/1 181/1/1
f 181/1/1 175/1/1 179/1/1
f 179/1/1 175/1/1 178/1/1
f 178/1/1 175/1/1 174/1/1
f 174/1/1 175/1/1 172/1/1
f 183/1/10 185/1/10 186/1/10
f 185/1/10 183/1/10 184/1/10
f 189/1/10 188/1/10 187/1/10
f 188/1/10 189/1/10 190/1/10
f 189/1/11 176/1/11 190/1/11
f 176/1/11 189/1/11 175/1/11
f 176/1/9 188/1/9 190/1/9
f 188/1/9 176/1/9 169/1/9
f 158/1/1 189/1/1 187/1/1
f 189/1/1 158/1/1 175/1/1
f 158/1/15 188/1/15 169/1/15
f 188/1/15 158/1/15 187/1/15
f 176/1/14 158/1/14 169/1/14
f 158/1/14 176/1/14 175/1/14
f 187/1/10 192/1/10 191/1/10
f 192/1/10 187/1/10 188/1/10
f 187/1/11 170/1/11 188/1/11
f 170/1/11 187/1/11 156/1/11
f 170/1/9 192/1/9 188/1/9
f 192/1/9 170/1/9 167/1/9
f 155/1/1 187/1/1 191/1/1
f 187/1/1 155/1/1 156/1/1
f 155/1/15 192/1/15 167/1/15
f 192/1/15 155/1/15 191/1/15
f 170/1/14 155/1/14 167/1/14
f 155/1/14 170/1/14 156/1/14
f 193/1/10 190/1/10 189/1/10
f 190/1/10 193/1/10 194/1/10
f 193/1/11 184/1/11 194/1/11
f 184/1/11 193/1/11 183/1/11
f 184/1/9 190/1/9 194/1/9
f 190/1/9 184/1/9 185/1/9
f 186/1/1 193/1/1 189/1/1
f 193/1/1 186/1/1 183/1/1
f 186/1/15 190/1/15 185/1/15
f 190/1/15 186/1/15 189/1/15
f 184/1/14 186/1/14 185/1/14
f 186/1/14 184/1/14 183/1/14

usemtl color11

f 197/1/24 196/1/23 195/1/23
f 196/1/23 197/1/24 198/1/24
f 199/1/25 195/1/23 196/1/23
f 195/1/23 199/1/25 200/1/25
f 201/1/26 200/1/25 199/1/25
f 200/1/25 201/1/26 202/1/26
f 201/1/26 203/1/27 202/1/26
f 203/1/27 201/1/26 204/1/27
f 204/1/27 205/1/28 203/1/27
f 205/1/28 204/1/27 206/1/28
f 206/1/28 207/1/29 205/1/28
f 207/1/29 206/1/28 208/1/29
f 197/1/11 209/1/11 198/1/11
f 209/1/11 197/1/11 210/1/11
f 209/1/14 207/1/14 208/1/14
f 207/1/14 209/1/14 210/1/14
f 209/1/9 196/1/9 198/1/9
f 196/1/9 209/1/9 199/1/9
f 199/1/9 209/1/9 201/1/9
f 201/1/9 209/1/9 204/1/9
f 204/1/9 209/1/9 206/1/9
f 206/1/9 209/1/9 208/1/9
f 195/1/1 210/1/1 197/1/1
f 210/1/1 195/1/1 200/1/1
f 210/1/1 200/1/1 202/1/1
f 210/1/1 202/1/1 203/1/1
f 210/1/1 203/1/1 205/1/1
f 210/1/1 205/1/1 207/1/1
f 213/1/31 212/1/30 211/1/30
f 212/1/30 213/1/31 214/1/31
f 215/1/32 211/1/30 212/1/30
f 211/1/30 215/1/32 216/1/32
f 217/1/33 216/1/32 215/1/32
f 216/1/32 217/1/33 218/1/33
f 213/1/31 219/1/34 214/1/31
f 219/1/34 213/1/31 220/1/34
f 220/1/34 221/1/35 219/1/34
f 221/1/35 220/1/34 222/1/35
f 222/1/35 223/1/36 221/1/35
f 223/1/36 222/1/35 224/1/36
f 223/1/14 226/1/14 225/1/14
f 226/1/14 223/1/14 224/1/14
f 226/1/15 217/1/15 225/1/15
f 217/1/15 226/1/15 218/1/15
f 215/1/9 225/1/9 217/1/9
f 225/1/9 215/1/9 212/1/9
f 225/1/9 212/1/9 214/1/9
f 225/1/9 214/1/9 219/1/9
f 225/1/9 219/1/9 221/1/9
f 225/1/9 221/1/9 223/1/9
f 226/1/1 216/1/1 218/1/1
f 216/1/1 226/1/1 211/1/1
f 211/1/1 226/1/1 213/1/1
f 213/1/1 226/1/1 220/1/1
f 220/1/1 226/1/1 222/1/1
f 222/1/1 226/1/1 224/1/1
f 224/1/10 208/1/10 207/1/10
f 208/1/10 224/1/10 223/1/10
f 224/1/11 227/1/11 223/1/11
f 227/1/11 224/1/11 228/1/11
f 227/1/9 208/1/9 223/1/9
f 208/1/9 227/1/9 229/1/9
f 230/1/1 224/1/1 207/1/1
f 224/1/1 230/1/1 228/1/1
f 230/1/15 208/1/15 229/1/15
f 208/1/15 230/1/15 207/1/15
f 227/1/14 230/1/14 229/1/14
f 230/1/14 227/1/14 228/1/14
f 218/1/10 198/1/10 197/1/10
f 198/1/10 218/1/10 217/1/10
f 218/1/11 225/1/11 217/1/11
f 225/1/11 218/1/11 226/1/11
f 225/1/9 198/1/9 217/1/9
f 198/1/9 225/1/9 209/1/9
f 210/1/1 218/1/1 197/1/1
f 218/1/1 210/1/1 226/1/1
f 210/1/15 198/1/15 209/1/15
f 198/1/15 210/1/15 197/1/15
f 225/1/14 210/1/14 209/1/14
f 210/1/14 225/1/14 226/1/14

