v 2.853553 0.8535534 -1.5
v 2.853553 0.8535534 1.5
v 2.75 0.9330127 -1.5
v 2.75 0.9330127 1.5
v 2.933013 0.75 -1.5
v 2.933013 0.75 1.5
v 2.62941 0.9829629 -1.5
v 2.62941 0.9829629 1.5
v 2.5 1 -1.5
v 2.5 1 1.5
v 2.982963 0.6294096 -1.5
v 2.982963 0.6294096 1.5
v 3 0.5 -1.5
v 3 0.5 1.5
v 2.982963 0.3705905 -1.5
v 2.982963 0.3705905 1.5
v 2.933013 0.25 -1.5
v 2.933013 0.25 1.5
v 2.853553 0.1464466 -1.5
v 2.853553 0.1464466 1.5
v 2.75 0.06698734 1.5
v 2.75 0.06698734 -1.5
v 2.62941 0.01703709 1.5
v 2.62941 0.01703709 -1.5
v 2.5 0 1.5
v 2.5 0 -1.5
v 2 0 1.5
v 2 1 1.5
v 2 0 -1.5
v 2 1 -1.5
v 2 1.5 -1.5
v 1 1 -1.5
v 1.87059 1.517037 -1.5
v 1.75 1.566987 -1.5
v 1 2 -1.5
v 1.646447 1.646447 -1.5
v 1.566987 1.75 -1.5
v 1.517037 1.87059 -1.5
v 1.5 2 -1.5
v 1.87059 1.517037 1.5
v 1.75 1.566987 1.5
v 2 1.5 1.5
v 1.646447 1.646447 1.5
v 1.566987 1.75 1.5
v 1.517037 1.87059 1.5
v 1.5 2 1.5
v 1 1 1.5
v 1 2 1.5
v -1.258819 1.965926 -2
v -1.258819 1.965926 2
v -1.5 1.866025 -2
v -1.5 1.866025 2
v -1 2 2
v -1 2 -2
v -1.707107 1.707107 -2
v -1.707107 1.707107 2
v -1.866025 1.5 2
v -1.866025 1.5 -2
v -1.965926 1.258819 2
v -1.965926 1.258819 -2
v -2 1 2
v -2 1 -2
v -1 1 -2
v -1 1 2
v -1.5 -1.866025 2
v -1.5 -1.866025 -2
v -1.707107 -1.707107 2
v -1.707107 -1.707107 -2
v -1.258819 -1.965926 -2
v -1.258819 -1.965926 2
v -1 -2 -2
v -1 -2 2
v -1.866025 -1.5 -2
v -1.866025 -1.5 2
v -1.965926 -1.258819 -2
v -1.965926 -1.258819 2
v -2 -1 -2
v -2 -1 2
v -1 -1 -2
v -1 -1 2
v 1 -2 2
v 1 -2 -2
v 1 2 -2
v 1 2 2
v 2 -2 2
v 2 -2 -2
v 1 1 -2
v 1 1 2
v 2 1 -2
v 2 1 2
v 3 -2 1.5
v 3 -2 -1.5
v 2 -2 1.5
v 2 -2 -1.5
v 3 0 -1.5
v 3 0 1.5
v 2.258819 -3.965926 1
v 2.258819 -3.965926 -1
v 2 -4 1
v 2 -4 -1
v 2.5 -3.866025 -1
v 2.5 -3.866025 1
v 2.707107 -3.707107 -1
v 2.707107 -3.707107 1
v 2.866025 -3.5 1
v 2.866025 -3.5 -1
v 2.965926 -3.258819 1
v 2.965926 -3.258819 -1
v 3 -3 1
v 3 -3 -1
v 2 -3 -1
v 2 -3 1
v -0.5 -3.866025 1.5
v -0.5 -3.866025 -1.5
v -0.7071068 -3.707107 1.5
v -0.7071068 -3.707107 -1.5
v -0.258819 -3.965926 -1.5
v -0.258819 -3.965926 1.5
v 0 -4 -1.5
v 0 -4 1.5
v -0.8660254 -3.5 -1.5
v -0.8660254 -3.5 1.5
v -0.9659258 -3.258819 -1.5
v -0.9659258 -3.258819 1.5
v -1 -3 -1.5
v -1 -3 1.5
v 0 -3 -1.5
v 0 -3 1.5
v 2 -2 -1
v 2 -2 1
v 3 -2 -1
v 3 -2 1
v 2 -4 1.5
v 2 -4 -1.5
v 0 -2 -1.5
v 0 -2 1.5
v -1 -2 -1.5
v -1 -2 1.5
v 1 4 1.5
v 0 4 1.5
v 0.9659258 4.258819 1.5
v 5.960464E-08 5 1.5
v 0.8660254 4.5 1.5
v 0.7071068 4.707107 1.5
v 0.5 4.866025 1.5
v 0.258819 4.965926 1.5
v 0.7071068 4.707107 -1.5
v 0.5 4.866025 -1.5
v 0.8660254 4.5 -1.5
v 0.9659258 4.258819 -1.5
v 1 4 -1.5
v 0.258819 4.965926 -1.5
v 5.960464E-08 5 -1.5
v 0 4 -1.5
v 0.258819 2.034074 1.5
v 0.258819 2.034074 -1.5
v 0 2 1.5
v 0 2 -1.5
v 0.5 2.133975 -1.5
v 0.5 2.133975 1.5
v 0.7071068 2.292893 -1.5
v 0.7071068 2.292893 1.5
v 0.8660254 2.5 1.5
v 0.8660254 2.5 -1.5
v 0.9659258 2.741181 1.5
v 0.9659258 2.741181 -1.5
v 1 3 1.5
v 1 3 -1.5
v 0 3 -1.5
v 0 3 1.5
v -1.258819 4.965926 -1.5
v -1.258819 4.965926 1.5
v -1.5 4.866025 -1.5
v -1.5 4.866025 1.5
v -1 5 1.5
v -1 5 -1.5
v -1.707107 4.707107 -1.5
v -1.707107 4.707107 1.5
v -1.866025 4.5 1.5
v -1.866025 4.5 -1.5
v -1.965926 4.258819 1.5
v -1.965926 4.258819 -1.5
v -2 4 1.5
v -2 4 -1.5
v -1 4 -1.5
v -1 4 1.5
v -1.5 2.133975 1.5
v -1.5 2.133975 -1.5
v -1.707107 2.292893 1.5
v -1.707107 2.292893 -1.5
v -1.258819 2.034074 -1.5
v -1.258819 2.034074 1.5
v -1 2 -1.5
v -1 2 1.5
v -1.866025 2.5 -1.5
v -1.866025 2.5 1.5
v -1.965926 2.741181 -1.5
v -1.965926 2.741181 1.5
v -2 3 -1.5
v -2 3 1.5
v -1 3 -1.5
v -1 3 1.5
v 0 4 2.5
v 0 4 -2.5
v -1 4 2.5
v -1 4 -2.5
v -1 5 -2.5
v -1 5 2.5
v 0 5 -2.5
v 0 5 2.5
v 0 3 2
v 0 3 -2
v -1 3 2
v -1 3 -2
v -1 4 -2
v -1 4 2
v 0 4 -2
v 0 4 2

vn 0.7071068 0.7071068 0
vn 0.5 0.8660254 0
vn 0.8660254 0.5 0
vn 0.2588191 0.9659259 0
vn 0.1305262 0.9914449 0
vn 0.9659258 0.2588191 0
vn 1 0 0
vn 0.9659259 -0.2588191 0
vn 0.8660254 -0.5 0
vn 0.7071068 -0.7071068 0
vn 0.5 -0.8660254 0
vn 0.2588191 -0.9659258 0
vn 0.1305262 -0.9914449 0
vn 0 0 1
vn -1 0 0
vn 0 1 0
vn 0 0 -1
vn 0 -1 0
vn 0.2588191 0.9659258 0
vn 0.1305262 0.9914449 0
vn 0.9659259 0.2588191 0
vn 0.9914449 0.1305262 0
vn -0.2588191 0.9659259 0
vn -0.5 0.8660254 0
vn -0.1305262 0.9914449 0
vn -0.7071068 0.7071068 0
vn -0.8660254 0.5 0
vn -0.9659259 0.2588191 0
vn -0.9914449 0.1305262 0
vn -0.5 -0.8660254 0
vn -0.7071068 -0.7071068 0
vn -0.2588191 -0.9659259 0
vn -0.1305262 -0.9914449 0
vn -0.8660254 -0.5 0
vn -0.9659259 -0.2588191 0
vn -0.9914449 -0.1305262 0
vn 0.2588191 -0.9659259 0
vn 0.1305262 -0.9914449 0
vn 0.9914449 -0.1305262 0

vt 0 0

usemtl color2

f 3/1/2 2/1/1 1/1/1
f 2/1/1 3/1/2 4/1/2
f 2/1/1 5/1/3 1/1/1
f 5/1/3 2/1/1 6/1/3
f 7/1/4 4/1/2 3/1/2
f 4/1/2 7/1/4 8/1/4
f 9/1/5 8/1/4 7/1/4
f 8/1/4 9/1/5 10/1/5
f 6/1/3 11/1/6 5/1/3
f 11/1/6 6/1/3 12/1/6
f 12/1/6 13/1/7 11/1/6
f 13/1/7 12/1/6 14/1/7
f 14/1/7 15/1/8 13/1/7
f 15/1/8 14/1/7 16/1/8
f 16/1/8 17/1/9 15/1/8
f 17/1/9 16/1/8 18/1/9
f 18/1/9 19/1/10 17/1/9
f 19/1/10 18/1/9 20/1/10
f 21/1/11 19/1/10 20/1/10
f 19/1/10 21/1/11 22/1/11
f 23/1/12 22/1/11 21/1/11
f 22/1/11 23/1/12 24/1/12
f 25/1/13 24/1/12 23/1/12
f 24/1/12 25/1/13 26/1/13
f 25/1/14 28/1/14 27/1/14
f 28/1/14 25/1/14 23/1/14
f 28/1/14 23/1/14 21/1/14
f 28/1/14 21/1/14 20/1/14
f 28/1/14 20/1/14 18/1/14
f 28/1/14 18/1/14 16/1/14
f 28/1/14 16/1/14 14/1/14
f 28/1/14 14/1/14 12/1/14
f 28/1/14 12/1/14 6/1/14
f 28/1/14 6/1/14 2/1/14
f 28/1/14 2/1/14 4/1/14
f 28/1/14 4/1/14 8/1/14
f 28/1/14 8/1/14 10/1/14
f 27/1/15 30/1/15 29/1/15
f 30/1/15 27/1/15 28/1/15
f 30/1/16 10/1/16 9/1/16
f 10/1/16 30/1/16 28/1/16
f 30/1/17 26/1/17 29/1/17
f 26/1/17 30/1/17 24/1/17
f 24/1/17 30/1/17 22/1/17
f 22/1/17 30/1/17 19/1/17
f 19/1/17 30/1/17 17/1/17
f 17/1/17 30/1/17 15/1/17
f 15/1/17 30/1/17 13/1/17
f 13/1/17 30/1/17 11/1/17
f 11/1/17 30/1/17 5/1/17
f 5/1/17 30/1/17 1/1/17
f 1/1/17 30/1/17 3/1/17
f 3/1/17 30/1/17 7/1/17
f 7/1/17 30/1/17 9/1/17
f 27/1/18 26/1/18 25/1/18
f 26/1/18 27/1/18 29/1/18
f 32/1/17 31/1/17 30/1/17
f 31/1/17 32/1/17 33/1/17
f 33/1/17 32/1/17 34/1/17
f 34/1/17 32/1/17 35/1/17
f 34/1/17 35/1/17 36/1/17
f 36/1/17 35/1/17 37/1/17
f 37/1/17 35/1/17 38/1/17
f 38/1/17 35/1/17 39/1/17
f 34/1/2 40/1/19 33/1/19
f 40/1/19 34/1/2 41/1/2
f 42/1/20 33/1/19 40/1/19
f 33/1/19 42/1/20 31/1/20
f 36/1/1 41/1/2 34/1/2
f 41/1/2 36/1/1 43/1/1
f 36/1/1 44/1/3 43/1/1
f 44/1/3 36/1/1 37/1/3
f 37/1/3 45/1/21 44/1/3
f 45/1/21 37/1/3 38/1/21
f 38/1/21 46/1/22 45/1/21
f 46/1/22 38/1/21 39/1/22
f 42/1/14 47/1/14 28/1/14
f 47/1/14 42/1/14 40/1/14
f 47/1/14 40/1/14 41/1/14
f 47/1/14 41/1/14 48/1/14
f 48/1/14 41/1/14 43/1/14
f 48/1/14 43/1/14 44/1/14
f 48/1/14 44/1/14 45/1/14
f 48/1/14 45/1/14 46/1/14
f 47/1/15 35/1/15 32/1/15
f 35/1/15 47/1/15 48/1/15
f 47/1/18 30/1/18 28/1/18
f 30/1/18 47/1/18 32/1/18
f 31/1/7 28/1/7 30/1/7
f 28/1/7 31/1/7 42/1/7
f 35/1/16 46/1/16 39/1/16
f 46/1/16 35/1/16 48/1/16
f 51/1/24 50/1/23 49/1/23
f 50/1/23 51/1/24 52/1/24
f 53/1/25 49/1/23 50/1/23
f 49/1/23 53/1/25 54/1/25
f 55/1/26 52/1/24 51/1/24
f 52/1/24 55/1/26 56/1/26
f 55/1/26 57/1/27 56/1/26
f 57/1/27 55/1/26 58/1/27
f 58/1/27 59/1/28 57/1/27
f 59/1/28 58/1/27 60/1/28
f 60/1/28 61/1/29 59/1/28
f 61/1/29 60/1/28 62/1/29
f 53/1/7 63/1/7 54/1/7
f 63/1/7 53/1/7 64/1/7
f 60/1/17 63/1/17 62/1/17
f 63/1/17 60/1/17 54/1/17
f 54/1/17 60/1/17 58/1/17
f 54/1/17 58/1/17 55/1/17
f 54/1/17 55/1/17 51/1/17
f 54/1/17 51/1/17 49/1/17
f 53/1/14 61/1/14 64/1/14
f 61/1/14 53/1/14 59/1/14
f 59/1/14 53/1/14 57/1/14
f 57/1/14 53/1/14 56/1/14
f 56/1/14 53/1/14 52/1/14
f 52/1/14 53/1/14 50/1/14
f 61/1/18 63/1/18 64/1/18
f 63/1/18 61/1/18 62/1/18
f 67/1/31 66/1/30 65/1/30
f 66/1/30 67/1/31 68/1/31
f 69/1/32 65/1/30 66/1/30
f 65/1/30 69/1/32 70/1/32
f 71/1/33 70/1/32 69/1/32
f 70/1/32 71/1/33 72/1/33
f 67/1/31 73/1/34 68/1/31
f 73/1/34 67/1/31 74/1/34
f 74/1/34 75/1/35 73/1/34
f 75/1/35 74/1/34 76/1/35
f 76/1/35 77/1/36 75/1/35
f 77/1/36 76/1/35 78/1/36
f 77/1/16 80/1/16 79/1/16
f 80/1/16 77/1/16 78/1/16
f 80/1/7 71/1/7 79/1/7
f 71/1/7 80/1/7 72/1/7
f 69/1/17 79/1/17 71/1/17
f 79/1/17 69/1/17 66/1/17
f 79/1/17 66/1/17 68/1/17
f 79/1/17 68/1/17 73/1/17
f 79/1/17 73/1/17 75/1/17
f 79/1/17 75/1/17 77/1/17
f 80/1/14 70/1/14 72/1/14
f 70/1/14 80/1/14 65/1/14
f 65/1/14 80/1/14 67/1/14
f 67/1/14 80/1/14 74/1/14
f 74/1/14 80/1/14 76/1/14
f 76/1/14 80/1/14 78/1/14
f 72/1/18 82/1/18 81/1/18
f 82/1/18 72/1/18 71/1/18
f 72/1/15 54/1/15 71/1/15
f 54/1/15 72/1/15 53/1/15
f 54/1/17 82/1/17 71/1/17
f 82/1/17 54/1/17 83/1/17
f 84/1/14 72/1/14 81/1/14
f 72/1/14 84/1/14 53/1/14
f 84/1/7 82/1/7 83/1/7
f 82/1/7 84/1/7 81/1/7
f 54/1/16 84/1/16 83/1/16
f 84/1/16 54/1/16 53/1/16
f 81/1/18 86/1/18 85/1/18
f 86/1/18 81/1/18 82/1/18
f 81/1/15 87/1/15 82/1/15
f 87/1/15 81/1/15 88/1/15
f 87/1/17 86/1/17 82/1/17
f 86/1/17 87/1/17 89/1/17
f 90/1/14 81/1/14 85/1/14
f 81/1/14 90/1/14 88/1/14
f 90/1/7 86/1/7 89/1/7
f 86/1/7 90/1/7 85/1/7
f 87/1/16 90/1/16 89/1/16
f 90/1/16 87/1/16 88/1/16
f 78/1/18 79/1/18 80/1/18
f 79/1/18 78/1/18 77/1/18
f 78/1/15 62/1/15 77/1/15
f 62/1/15 78/1/15 61/1/15
f 62/1/17 79/1/17 77/1/17
f 79/1/17 62/1/17 63/1/17
f 64/1/14 78/1/14 80/1/14
f 78/1/14 64/1/14 61/1/14
f 64/1/7 79/1/7 63/1/7
f 79/1/7 64/1/7 80/1/7
f 62/1/16 64/1/16 63/1/16
f 64/1/16 62/1/16 61/1/16
f 93/1/18 92/1/18 91/1/18
f 92/1/18 93/1/18 94/1/18
f 93/1/15 29/1/15 94/1/15
f 29/1/15 93/1/15 27/1/15
f 29/1/17 92/1/17 94/1/17
f 92/1/17 29/1/17 95/1/17
f 96/1/14 93/1/14 91/1/14
f 93/1/14 96/1/14 27/1/14
f 96/1/7 92/1/7 95/1/7
f 92/1/7 96/1/7 91/1/7
f 29/1/16 96/1/16 95/1/16
f 96/1/16 29/1/16 27/1/16

usemtl color10

f 99/1/38 98/1/37 97/1/37
f 98/1/37 99/1/38 100/1/38
f 101/1/11 97/1/37 98/1/37
f 97/1/37 101/1/11 102/1/11
f 103/1/10 102/1/11 101/1/11
f 102/1/11 103/1/10 104/1/10
f 103/1/10 105/1/9 104/1/10
f 105/1/9 103/1/10 106/1/9
f 106/1/9 107/1/8 105/1/9
f 107/1/8 106/1/9 108/1/8
f 108/1/8 109/1/39 107/1/8
f 109/1/39 108/1/8 110/1/39
f 99/1/15 111/1/15 100/1/15
f 111/1/15 99/1/15 112/1/15
f 111/1/16 109/1/16 110/1/16
f 109/1/16 111/1/16 112/1/16
f 111/1/17 98/1/17 100/1/17
f 98/1/17 111/1/17 101/1/17
f 101/1/17 111/1/17 103/1/17
f 103/1/17 111/1/17 106/1/17
f 106/1/17 111/1/17 108/1/17
f 108/1/17 111/1/17 110/1/17
f 97/1/14 112/1/14 99/1/14
f 112/1/14 97/1/14 102/1/14
f 112/1/14 102/1/14 104/1/14
f 112/1/14 104/1/14 105/1/14
f 112/1/14 105/1/14 107/1/14
f 112/1/14 107/1/14 109/1/14
f 115/1/31 114/1/30 113/1/30
f 114/1/30 115/1/31 116/1/31
f 117/1/32 113/1/30 114/1/30
f 113/1/30 117/1/32 118/1/32
f 119/1/33 118/1/32 117/1/32
f 118/1/32 119/1/33 120/1/33
f 115/1/31 121/1/34 116/1/31
f 121/1/34 115/1/31 122/1/34
f 122/1/34 123/1/35 121/1/34
f 123/1/35 122/1/34 124/1/35
f 124/1/35 125/1/36 123/1/35
f 125/1/36 124/1/35 126/1/36
f 125/1/16 128/1/16 127/1/16
f 128/1/16 125/1/16 126/1/16
f 128/1/7 119/1/7 127/1/7
f 119/1/7 128/1/7 120/1/7
f 117/1/17 127/1/17 119/1/17
f 127/1/17 117/1/17 114/1/17
f 127/1/17 114/1/17 116/1/17
f 127/1/17 116/1/17 121/1/17
f 127/1/17 121/1/17 123/1/17
f 127/1/17 123/1/17 125/1/17
f 128/1/14 118/1/14 120/1/14
f 118/1/14 128/1/14 113/1/14
f 113/1/14 128/1/14 115/1/14
f 115/1/14 128/1/14 122/1/14
f 122/1/14 128/1/14 124/1/14
f 124/1/14 128/1/14 126/1/14
f 112/1/18 110/1/18 109/1/18
f 110/1/18 112/1/18 111/1/18
f 112/1/15 129/1/15 111/1/15
f 129/1/15 112/1/15 130/1/15
f 129/1/17 110/1/17 111/1/17
f 110/1/17 129/1/17 131/1/17
f 132/1/14 112/1/14 109/1/14
f 112/1/14 132/1/14 130/1/14
f 132/1/7 110/1/7 131/1/7
f 110/1/7 132/1/7 109/1/7
f 129/1/16 132/1/16 131/1/16
f 132/1/16 129/1/16 130/1/16
f 120/1/18 134/1/18 133/1/18
f 134/1/18 120/1/18 119/1/18
f 120/1/15 135/1/15 119/1/15
f 135/1/15 120/1/15 136/1/15
f 135/1/17 134/1/17 119/1/17
f 134/1/17 135/1/17 94/1/17
f 93/1/14 120/1/14 133/1/14
f 120/1/14 93/1/14 136/1/14
f 93/1/7 134/1/7 94/1/7
f 134/1/7 93/1/7 133/1/7
f 135/1/16 93/1/16 94/1/16
f 93/1/16 135/1/16 136/1/16
f 126/1/18 127/1/18 128/1/18
f 127/1/18 126/1/18 125/1/18
f 126/1/15 137/1/15 125/1/15
f 137/1/15 126/1/15 138/1/15
f 137/1/17 127/1/17 125/1/17
f 127/1/17 137/1/17 135/1/17
f 136/1/14 126/1/14 128/1/14
f 126/1/14 136/1/14 138/1/14
f 136/1/7 127/1/7 135/1/7
f 127/1/7 136/1/7 128/1/7
f 137/1/16 136/1/16 135/1/16
f 136/1/16 137/1/16 138/1/16
f 126/1/18 127/1/18 128/1/18
f 127/1/18 126/1/18 125/1/18
f 126/1/15 137/1/15 125/1/15
f 137/1/15 126/1/15 138/1/15
f 137/1/17 127/1/17 125/1/17
f 127/1/17 137/1/17 135/1/17
f 136/1/14 126/1/14 128/1/14
f 126/1/14 136/1/14 138/1/14
f 136/1/7 127/1/7 135/1/7
f 127/1/7 136/1/7 128/1/7
f 137/1/16 136/1/16 135/1/16
f 136/1/16 137/1/16 138/1/16

usemtl color7

f 141/1/14 140/1/14 139/1/14
f 140/1/14 141/1/14 142/1/14
f 142/1/14 141/1/14 143/1/14
f 142/1/14 143/1/14 144/1/14
f 142/1/14 144/1/14 145/1/14
f 142/1/14 145/1/14 146/1/14
f 148/1/2 144/1/1 147/1/1
f 144/1/1 148/1/2 145/1/2
f 144/1/1 149/1/3 147/1/1
f 149/1/3 144/1/1 143/1/3
f 143/1/3 150/1/21 149/1/3
f 150/1/21 143/1/3 141/1/21
f 141/1/21 151/1/22 150/1/21
f 151/1/22 141/1/21 139/1/22
f 152/1/19 145/1/2 148/1/2
f 145/1/2 152/1/19 146/1/19
f 153/1/20 146/1/19 152/1/19
f 146/1/19 153/1/20 142/1/20
f 154/1/17 150/1/17 151/1/17
f 150/1/17 154/1/17 153/1/17
f 150/1/17 153/1/17 149/1/17
f 149/1/17 153/1/17 147/1/17
f 147/1/17 153/1/17 148/1/17
f 148/1/17 153/1/17 152/1/17
f 140/1/18 151/1/18 139/1/18
f 151/1/18 140/1/18 154/1/18
f 140/1/15 153/1/15 154/1/15
f 153/1/15 140/1/15 142/1/15
f 157/1/38 156/1/37 155/1/37
f 156/1/37 157/1/38 158/1/38
f 159/1/11 155/1/37 156/1/37
f 155/1/37 159/1/11 160/1/11
f 161/1/10 160/1/11 159/1/11
f 160/1/11 161/1/10 162/1/10
f 161/1/10 163/1/9 162/1/10
f 163/1/9 161/1/10 164/1/9
f 164/1/9 165/1/8 163/1/9
f 165/1/8 164/1/9 166/1/8
f 166/1/8 167/1/39 165/1/8
f 167/1/39 166/1/8 168/1/39
f 157/1/15 169/1/15 158/1/15
f 169/1/15 157/1/15 170/1/15
f 169/1/16 167/1/16 168/1/16
f 167/1/16 169/1/16 170/1/16
f 169/1/17 156/1/17 158/1/17
f 156/1/17 169/1/17 159/1/17
f 159/1/17 169/1/17 161/1/17
f 161/1/17 169/1/17 164/1/17
f 164/1/17 169/1/17 166/1/17
f 166/1/17 169/1/17 168/1/17
f 155/1/14 170/1/14 157/1/14
f 170/1/14 155/1/14 160/1/14
f 170/1/14 160/1/14 162/1/14
f 170/1/14 162/1/14 163/1/14
f 170/1/14 163/1/14 165/1/14
f 170/1/14 165/1/14 167/1/14
f 173/1/24 172/1/23 171/1/23
f 172/1/23 173/1/24 174/1/24
f 175/1/25 171/1/23 172/1/23
f 171/1/23 175/1/25 176/1/25
f 177/1/26 174/1/24 173/1/24
f 174/1/24 177/1/26 178/1/26
f 177/1/26 179/1/27 178/1/26
f 179/1/27 177/1/26 180/1/27
f 180/1/27 181/1/28 179/1/27
f 181/1/28 180/1/27 182/1/28
f 182/1/28 183/1/29 181/1/28
f 183/1/29 182/1/28 184/1/29
f 175/1/7 185/1/7 176/1/7
f 185/1/7 175/1/7 186/1/7
f 182/1/17 185/1/17 184/1/17
f 185/1/17 182/1/17 176/1/17
f 176/1/17 182/1/17 180/1/17
f 176/1/17 180/1/17 177/1/17
f 176/1/17 177/1/17 173/1/17
f 176/1/17 173/1/17 171/1/17
f 175/1/14 183/1/14 186/1/14
f 183/1/14 175/1/14 181/1/14
f 181/1/14 175/1/14 179/1/14
f 179/1/14 175/1/14 178/1/14
f 178/1/14 175/1/14 174/1/14
f 174/1/14 175/1/14 172/1/14
f 183/1/18 185/1/18 186/1/18
f 185/1/18 183/1/18 184/1/18
f 189/1/31 188/1/30 187/1/30
f 188/1/30 189/1/31 190/1/31
f 191/1/32 187/1/30 188/1/30
f 187/1/30 191/1/32 192/1/32
f 193/1/33 192/1/32 191/1/32
f 192/1/32 193/1/33 194/1/33
f 189/1/31 195/1/34 190/1/31
f 195/1/34 189/1/31 196/1/34
f 196/1/34 197/1/35 195/1/34
f 197/1/35 196/1/34 198/1/35
f 198/1/35 199/1/36 197/1/35
f 199/1/36 198/1/35 200/1/36
f 199/1/16 202/1/16 201/1/16
f 202/1/16 199/1/16 200/1/16
f 202/1/7 193/1/7 201/1/7
f 193/1/7 202/1/7 194/1/7
f 191/1/17 201/1/17 193/1/17
f 201/1/17 191/1/17 188/1/17
f 201/1/17 188/1/17 190/1/17
f 201/1/17 190/1/17 195/1/17
f 201/1/17 195/1/17 197/1/17
f 201/1/17 197/1/17 199/1/17
f 202/1/14 192/1/14 194/1/14
f 192/1/14 202/1/14 187/1/14
f 187/1/14 202/1/14 189/1/14
f 189/1/14 202/1/14 196/1/14
f 196/1/14 202/1/14 198/1/14
f 198/1/14 202/1/14 200/1/14
f 205/1/18 204/1/18 203/1/18
f 204/1/18 205/1/18 206/1/18
f 205/1/15 207/1/15 206/1/15
f 207/1/15 205/1/15 208/1/15
f 207/1/17 204/1/17 206/1/17
f 204/1/17 207/1/17 209/1/17
f 210/1/14 205/1/14 203/1/14
f 205/1/14 210/1/14 208/1/14
f 210/1/7 204/1/7 209/1/7
f 204/1/7 210/1/7 203/1/7
f 207/1/16 210/1/16 209/1/16
f 210/1/16 207/1/16 208/1/16
f 170/1/18 168/1/18 167/1/18
f 168/1/18 170/1/18 169/1/18
f 170/1/15 154/1/15 169/1/15
f 154/1/15 170/1/15 140/1/15
f 154/1/17 168/1/17 169/1/17
f 168/1/17 154/1/17 151/1/17
f 139/1/14 170/1/14 167/1/14
f 170/1/14 139/1/14 140/1/14
f 139/1/7 168/1/7 151/1/7
f 168/1/7 139/1/7 167/1/7
f 154/1/16 139/1/16 151/1/16
f 139/1/16 154/1/16 140/1/16
f 213/1/18 212/1/18 211/1/18
f 212/1/18 213/1/18 214/1/18
f 213/1/15 215/1/15 214/1/15
f 215/1/15 213/1/15 216/1/15
f 215/1/17 212/1/17 214/1/17
f 212/1/17 215/1/17 217/1/17
f 218/1/14 213/1/14 211/1/14
f 213/1/14 218/1/14 216/1/14
f 218/1/7 212/1/7 217/1/7
f 212/1/7 218/1/7 211/1/7
f 215/1/16 218/1/16 217/1/16
f 218/1/16 215/1/16 216/1/16
f 200/1/18 201/1/18 202/1/18
f 201/1/18 200/1/18 199/1/18
f 200/1/15 184/1/15 199/1/15
f 184/1/15 200/1/15 183/1/15
f 184/1/17 201/1/17 199/1/17
f 201/1/17 184/1/17 185/1/17
f 186/1/14 200/1/14 202/1/14
f 200/1/14 186/1/14 183/1/14
f 186/1/7 201/1/7 185/1/7
f 201/1/7 186/1/7 202/1/7
f 184/1/16 186/1/16 185/1/16
f 186/1/16 184/1/16 183/1/16
f 194/1/18 158/1/18 157/1/18
f 158/1/18 194/1/18 193/1/18
f 194/1/15 201/1/15 193/1/15
f 201/1/15 194/1/15 202/1/15
f 201/1/17 158/1/17 193/1/17
f 158/1/17 201/1/17 169/1/17
f 170/1/14 194/1/14 157/1/14
f 194/1/14 170/1/14 202/1/14
f 170/1/7 158/1/7 169/1/7
f 158/1/7 170/1/7 157/1/7
f 201/1/16 170/1/16 169/1/16
f 170/1/16 201/1/16 202/1/16

