v 2 3 -0.5
v 2 3 0.5
v 1 2.5 -0.5
v 1 2.5 0.5
v 1 2 0.5
v 1.5 2 0.5
v 1 2 -0.5
v 1.5 2 -0.5
v 1 3 1.5
v 0 3 1.5
v 0.9659258 3.258819 1.5
v 5.960464E-08 4 1.5
v 0.8660254 3.5 1.5
v 0.7071068 3.707107 1.5
v 0.5 3.866025 1.5
v 0.258819 3.965926 1.5
v 0.7071068 3.707107 -1.5
v 0.5 3.866025 -1.5
v 0.8660254 3.5 -1.5
v 0.9659258 3.258819 -1.5
v 1 3 -1.5
v 0.258819 3.965926 -1.5
v 5.960464E-08 4 -1.5
v 0 3 -1.5
v 0.258819 1.034074 1.5
v 0.258819 1.034074 -1.5
v 0 1 1.5
v 0 1 -1.5
v 0.5 1.133975 -1.5
v 0.5 1.133975 1.5
v 0.7071068 1.292893 -1.5
v 0.7071068 1.292893 1.5
v 0.8660254 1.5 1.5
v 0.8660254 1.5 -1.5
v 0.9659258 1.741181 1.5
v 0.9659258 1.741181 -1.5
v 1 2 1.5
v 1 2 -1.5
v 0 2 -1.5
v 0 2 1.5
v -1.258819 3.965926 -1.5
v -1.258819 3.965926 1.5
v -1.5 3.866025 -1.5
v -1.5 3.866025 1.5
v -1 4 1.5
v -1 4 -1.5
v -1.707107 3.707107 -1.5
v -1.707107 3.707107 1.5
v -1.866025 3.5 1.5
v -1.866025 3.5 -1.5
v -1.965926 3.258819 1.5
v -1.965926 3.258819 -1.5
v -2 3 1.5
v -2 3 -1.5
v -1 3 -1.5
v -1 3 1.5
v -1.5 1.133975 1.5
v -1.5 1.133975 -1.5
v -1.707107 1.292893 1.5
v -1.707107 1.292893 -1.5
v -1.258819 1.034074 -1.5
v -1.258819 1.034074 1.5
v -1 1 -1.5
v -1 1 1.5
v -1.866025 1.5 -1.5
v -1.866025 1.5 1.5
v -1.965926 1.741181 -1.5
v -1.965926 1.741181 1.5
v -2 2 -1.5
v -2 2 1.5
v -1 2 -1.5
v -1 2 1.5
v -2.5 2 0.5
v -3 3 0.5
v -2 2 0.5
v -2 2.5 0.5
v -2 2.5 -0.5
v -2 2 -0.5
v -2.5 2 -0.5
v -3 3 -0.5
v 0 4 -1.5
v 0 4 1.5
v 2 0 2
v 1 0 2
v 1.965926 0.258819 2
v 1 1 2
v 1.866025 0.5 2
v 1.707107 0.7071068 2
v 1.5 0.8660254 2
v 1.258819 0.9659258 2
v 1.707107 0.7071068 -2
v 1.5 0.8660254 -2
v 1.866025 0.5 -2
v 1.965926 0.258819 -2
v 2 0 -2
v 1.258819 0.9659258 -2
v 1 1 -2
v 1 0 -2
v 1.258819 -2.965926 2
v 1.258819 -2.965926 -2
v 1 -3 2
v 1 -3 -2
v 1.5 -2.866025 -2
v 1.5 -2.866025 2
v 1.707107 -2.707107 -2
v 1.707107 -2.707107 2
v 1.866025 -2.5 2
v 1.866025 -2.5 -2
v 1.965926 -2.258819 2
v 1.965926 -2.258819 -2
v 2 -2 2
v 2 -2 -2
v 1 -2 -2
v 1 -2 2
v -2.258819 0.9659258 -2
v -2.258819 0.9659258 2
v -2.5 0.8660254 -2
v -2.5 0.8660254 2
v -2 1 2
v -2 1 -2
v -2.707107 0.7071068 -2
v -2.707107 0.7071068 2
v -2.866025 0.5 2
v -2.866025 0.5 -2
v -2.965926 0.258819 2
v -2.965926 0.258819 -2
v -3 0 2
v -3 0 -2
v -2 0 -2
v -2 0 2
v -2.5 -2.866025 2
v -2.5 -2.866025 -2
v -2.707107 -2.707107 2
v -2.707107 -2.707107 -2
v -2.258819 -2.965926 -2
v -2.258819 -2.965926 2
v -2 -3 -2
v -2 -3 2
v -2.866025 -2.5 -2
v -2.866025 -2.5 2
v -2.965926 -2.258819 -2
v -2.965926 -2.258819 2
v -3 -2 -2
v -3 -2 2
v -2 -2 -2
v -2 -2 2
v 1 -5 1.5
v 1 -5 -1.5
v -2 -5 1.5
v -2 -5 -1.5
v -2 -3 -1.5
v -2 -3 1.5
v 1 -3 -1.5
v 1 -3 1.5

vn -0.4472136 0.8944272 0
vn 0 0 1
vn -1 0 0
vn 0.8944272 -0.4472136 0
vn 0 0 -1
vn 0 -1 0
vn 0.7071068 0.7071068 0
vn 0.5 0.8660254 0
vn 0.8660254 0.5 0
vn 0.9659259 0.2588191 0
vn 0.9914449 0.1305262 0
vn 0.2588191 0.9659258 0
vn 0.1305262 0.9914449 0
vn 0.2588191 -0.9659259 0
vn 0.1305262 -0.9914449 0
vn 0.5 -0.8660254 0
vn 0.7071068 -0.7071068 0
vn 0.8660254 -0.5 0
vn 0.9659259 -0.2588191 0
vn 0.9914449 -0.1305262 0
vn 0 1 0
vn -0.2588191 0.9659259 0
vn -0.5 0.8660254 0
vn -0.1305262 0.9914449 0
vn -0.7071068 0.7071068 0
vn -0.8660254 0.5 0
vn -0.9659259 0.2588191 0
vn -0.9914449 0.1305262 0
vn 1 0 0
vn -0.5 -0.8660254 0
vn -0.7071068 -0.7071068 0
vn -0.2588191 -0.9659259 0
vn -0.1305262 -0.9914449 0
vn -0.8660254 -0.5 0
vn -0.9659259 -0.2588191 0
vn -0.9914449 -0.1305262 0
vn 0.4472136 0.8944272 0
vn -0.8944272 -0.4472136 0

vt 0 0

usemtl color7

f 3/1/1 2/1/1 1/1/1
f 2/1/1 3/1/1 4/1/1
f 6/1/2 4/1/2 5/1/2
f 4/1/2 6/1/2 2/1/2
f 5/1/3 3/1/3 7/1/3
f 3/1/3 5/1/3 4/1/3
f 1/1/4 6/1/4 8/1/4
f 6/1/4 1/1/4 2/1/4
f 3/1/5 8/1/5 7/1/5
f 8/1/5 3/1/5 1/1/5
f 5/1/6 8/1/6 6/1/6
f 8/1/6 5/1/6 7/1/6
f 11/1/2 10/1/2 9/1/2
f 10/1/2 11/1/2 12/1/2
f 12/1/2 11/1/2 13/1/2
f 12/1/2 13/1/2 14/1/2
f 12/1/2 14/1/2 15/1/2
f 12/1/2 15/1/2 16/1/2
f 18/1/8 14/1/7 17/1/7
f 14/1/7 18/1/8 15/1/8
f 14/1/7 19/1/9 17/1/7
f 19/1/9 14/1/7 13/1/9
f 13/1/9 20/1/10 19/1/9
f 20/1/10 13/1/9 11/1/10
f 11/1/10 21/1/11 20/1/10
f 21/1/11 11/1/10 9/1/11
f 22/1/12 15/1/8 18/1/8
f 15/1/8 22/1/12 16/1/12
f 23/1/13 16/1/12 22/1/12
f 16/1/12 23/1/13 12/1/13
f 24/1/5 20/1/5 21/1/5
f 20/1/5 24/1/5 23/1/5
f 20/1/5 23/1/5 19/1/5
f 19/1/5 23/1/5 17/1/5
f 17/1/5 23/1/5 18/1/5
f 18/1/5 23/1/5 22/1/5
f 10/1/6 21/1/6 9/1/6
f 21/1/6 10/1/6 24/1/6
f 10/1/3 23/1/3 24/1/3
f 23/1/3 10/1/3 12/1/3
f 27/1/15 26/1/14 25/1/14
f 26/1/14 27/1/15 28/1/15
f 29/1/16 25/1/14 26/1/14
f 25/1/14 29/1/16 30/1/16
f 31/1/17 30/1/16 29/1/16
f 30/1/16 31/1/17 32/1/17
f 31/1/17 33/1/18 32/1/17
f 33/1/18 31/1/17 34/1/18
f 34/1/18 35/1/19 33/1/18
f 35/1/19 34/1/18 36/1/19
f 36/1/19 37/1/20 35/1/19
f 37/1/20 36/1/19 38/1/20
f 27/1/3 39/1/3 28/1/3
f 39/1/3 27/1/3 40/1/3
f 39/1/21 37/1/21 38/1/21
f 37/1/21 39/1/21 40/1/21
f 39/1/5 26/1/5 28/1/5
f 26/1/5 39/1/5 29/1/5
f 29/1/5 39/1/5 31/1/5
f 31/1/5 39/1/5 34/1/5
f 34/1/5 39/1/5 36/1/5
f 36/1/5 39/1/5 38/1/5
f 25/1/2 40/1/2 27/1/2
f 40/1/2 25/1/2 30/1/2
f 40/1/2 30/1/2 32/1/2
f 40/1/2 32/1/2 33/1/2
f 40/1/2 33/1/2 35/1/2
f 40/1/2 35/1/2 37/1/2
f 43/1/23 42/1/22 41/1/22
f 42/1/22 43/1/23 44/1/23
f 45/1/24 41/1/22 42/1/22
f 41/1/22 45/1/24 46/1/24
f 47/1/25 44/1/23 43/1/23
f 44/1/23 47/1/25 48/1/25
f 47/1/25 49/1/26 48/1/25
f 49/1/26 47/1/25 50/1/26
f 50/1/26 51/1/27 49/1/26
f 51/1/27 50/1/26 52/1/27
f 52/1/27 53/1/28 51/1/27
f 53/1/28 52/1/27 54/1/28
f 45/1/29 55/1/29 46/1/29
f 55/1/29 45/1/29 56/1/29
f 52/1/5 55/1/5 54/1/5
f 55/1/5 52/1/5 46/1/5
f 46/1/5 52/1/5 50/1/5
f 46/1/5 50/1/5 47/1/5
f 46/1/5 47/1/5 43/1/5
f 46/1/5 43/1/5 41/1/5
f 45/1/2 53/1/2 56/1/2
f 53/1/2 45/1/2 51/1/2
f 51/1/2 45/1/2 49/1/2
f 49/1/2 45/1/2 48/1/2
f 48/1/2 45/1/2 44/1/2
f 44/1/2 45/1/2 42/1/2
f 53/1/6 55/1/6 56/1/6
f 55/1/6 53/1/6 54/1/6
f 59/1/31 58/1/30 57/1/30
f 58/1/30 59/1/31 60/1/31
f 61/1/32 57/1/30 58/1/30
f 57/1/30 61/1/32 62/1/32
f 63/1/33 62/1/32 61/1/32
f 62/1/32 63/1/33 64/1/33
f 59/1/31 65/1/34 60/1/31
f 65/1/34 59/1/31 66/1/34
f 66/1/34 67/1/35 65/1/34
f 67/1/35 66/1/34 68/1/35
f 68/1/35 69/1/36 67/1/35
f 69/1/36 68/1/35 70/1/36
f 69/1/21 72/1/21 71/1/21
f 72/1/21 69/1/21 70/1/21
f 72/1/29 63/1/29 71/1/29
f 63/1/29 72/1/29 64/1/29
f 61/1/5 71/1/5 63/1/5
f 71/1/5 61/1/5 58/1/5
f 71/1/5 58/1/5 60/1/5
f 71/1/5 60/1/5 65/1/5
f 71/1/5 65/1/5 67/1/5
f 71/1/5 67/1/5 69/1/5
f 72/1/2 62/1/2 64/1/2
f 62/1/2 72/1/2 57/1/2
f 57/1/2 72/1/2 59/1/2
f 59/1/2 72/1/2 66/1/2
f 66/1/2 72/1/2 68/1/2
f 68/1/2 72/1/2 70/1/2
f 75/1/2 74/1/2 73/1/2
f 74/1/2 75/1/2 76/1/2
f 76/1/29 78/1/29 77/1/29
f 78/1/29 76/1/29 75/1/29
f 73/1/6 78/1/6 75/1/6
f 78/1/6 73/1/6 79/1/6
f 77/1/37 74/1/37 76/1/37
f 74/1/37 77/1/37 80/1/37
f 80/1/5 78/1/5 79/1/5
f 78/1/5 80/1/5 77/1/5
f 73/1/38 80/1/38 79/1/38
f 80/1/38 73/1/38 74/1/38
f 64/1/6 28/1/6 27/1/6
f 28/1/6 64/1/6 63/1/6
f 64/1/3 46/1/3 63/1/3
f 46/1/3 64/1/3 45/1/3
f 46/1/5 28/1/5 63/1/5
f 28/1/5 46/1/5 23/1/5
f 12/1/2 64/1/2 27/1/2
f 64/1/2 12/1/2 45/1/2
f 82/1/29 28/1/29 81/1/29
f 28/1/29 82/1/29 27/1/29
f 46/1/21 82/1/21 81/1/21
f 82/1/21 46/1/21 45/1/21
f 40/1/6 38/1/6 37/1/6
f 38/1/6 40/1/6 39/1/6
f 40/1/3 24/1/3 39/1/3
f 24/1/3 40/1/3 10/1/3
f 24/1/5 38/1/5 39/1/5
f 38/1/5 24/1/5 21/1/5
f 9/1/2 40/1/2 37/1/2
f 40/1/2 9/1/2 10/1/2
f 9/1/29 38/1/29 21/1/29
f 38/1/29 9/1/29 37/1/29
f 24/1/21 9/1/21 21/1/21
f 9/1/21 24/1/21 10/1/21
f 70/1/6 71/1/6 72/1/6
f 71/1/6 70/1/6 69/1/6
f 70/1/3 54/1/3 69/1/3
f 54/1/3 70/1/3 53/1/3
f 54/1/5 71/1/5 69/1/5
f 71/1/5 54/1/5 55/1/5
f 56/1/2 70/1/2 72/1/2
f 70/1/2 56/1/2 53/1/2
f 56/1/29 71/1/29 55/1/29
f 71/1/29 56/1/29 72/1/29
f 54/1/21 56/1/21 55/1/21
f 56/1/21 54/1/21 53/1/21

usemtl color2

f 85/1/2 84/1/2 83/1/2
f 84/1/2 85/1/2 86/1/2
f 86/1/2 85/1/2 87/1/2
f 86/1/2 87/1/2 88/1/2
f 86/1/2 88/1/2 89/1/2
f 86/1/2 89/1/2 90/1/2
f 92/1/8 88/1/7 91/1/7
f 88/1/7 92/1/8 89/1/8
f 88/1/7 93/1/9 91/1/7
f 93/1/9 88/1/7 87/1/9
f 87/1/9 94/1/10 93/1/9
f 94/1/10 87/1/9 85/1/10
f 85/1/10 95/1/11 94/1/10
f 95/1/11 85/1/10 83/1/11
f 96/1/12 89/1/8 92/1/8
f 89/1/8 96/1/12 90/1/12
f 97/1/13 90/1/12 96/1/12
f 90/1/12 97/1/13 86/1/13
f 98/1/5 94/1/5 95/1/5
f 94/1/5 98/1/5 97/1/5
f 94/1/5 97/1/5 93/1/5
f 93/1/5 97/1/5 91/1/5
f 91/1/5 97/1/5 92/1/5
f 92/1/5 97/1/5 96/1/5
f 84/1/6 95/1/6 83/1/6
f 95/1/6 84/1/6 98/1/6
f 84/1/3 97/1/3 98/1/3
f 97/1/3 84/1/3 86/1/3
f 101/1/15 100/1/14 99/1/14
f 100/1/14 101/1/15 102/1/15
f 103/1/16 99/1/14 100/1/14
f 99/1/14 103/1/16 104/1/16
f 105/1/17 104/1/16 103/1/16
f 104/1/16 105/1/17 106/1/17
f 105/1/17 107/1/18 106/1/17
f 107/1/18 105/1/17 108/1/18
f 108/1/18 109/1/19 107/1/18
f 109/1/19 108/1/18 110/1/19
f 110/1/19 111/1/20 109/1/19
f 111/1/20 110/1/19 112/1/20
f 101/1/3 113/1/3 102/1/3
f 113/1/3 101/1/3 114/1/3
f 113/1/21 111/1/21 112/1/21
f 111/1/21 113/1/21 114/1/21
f 113/1/5 100/1/5 102/1/5
f 100/1/5 113/1/5 103/1/5
f 103/1/5 113/1/5 105/1/5
f 105/1/5 113/1/5 108/1/5
f 108/1/5 113/1/5 110/1/5
f 110/1/5 113/1/5 112/1/5
f 99/1/2 114/1/2 101/1/2
f 114/1/2 99/1/2 104/1/2
f 114/1/2 104/1/2 106/1/2
f 114/1/2 106/1/2 107/1/2
f 114/1/2 107/1/2 109/1/2
f 114/1/2 109/1/2 111/1/2
f 117/1/23 116/1/22 115/1/22
f 116/1/22 117/1/23 118/1/23
f 119/1/24 115/1/22 116/1/22
f 115/1/22 119/1/24 120/1/24
f 121/1/25 118/1/23 117/1/23
f 118/1/23 121/1/25 122/1/25
f 121/1/25 123/1/26 122/1/25
f 123/1/26 121/1/25 124/1/26
f 124/1/26 125/1/27 123/1/26
f 125/1/27 124/1/26 126/1/27
f 126/1/27 127/1/28 125/1/27
f 127/1/28 126/1/27 128/1/28
f 119/1/29 129/1/29 120/1/29
f 129/1/29 119/1/29 130/1/29
f 126/1/5 129/1/5 128/1/5
f 129/1/5 126/1/5 120/1/5
f 120/1/5 126/1/5 124/1/5
f 120/1/5 124/1/5 121/1/5
f 120/1/5 121/1/5 117/1/5
f 120/1/5 117/1/5 115/1/5
f 119/1/2 127/1/2 130/1/2
f 127/1/2 119/1/2 125/1/2
f 125/1/2 119/1/2 123/1/2
f 123/1/2 119/1/2 122/1/2
f 122/1/2 119/1/2 118/1/2
f 118/1/2 119/1/2 116/1/2
f 127/1/6 129/1/6 130/1/6
f 129/1/6 127/1/6 128/1/6
f 133/1/31 132/1/30 131/1/30
f 132/1/30 133/1/31 134/1/31
f 135/1/32 131/1/30 132/1/30
f 131/1/30 135/1/32 136/1/32
f 137/1/33 136/1/32 135/1/32
f 136/1/32 137/1/33 138/1/33
f 133/1/31 139/1/34 134/1/31
f 139/1/34 133/1/31 140/1/34
f 140/1/34 141/1/35 139/1/34
f 141/1/35 140/1/34 142/1/35
f 142/1/35 143/1/36 141/1/35
f 143/1/36 142/1/35 144/1/36
f 143/1/21 146/1/21 145/1/21
f 146/1/21 143/1/21 144/1/21
f 146/1/29 137/1/29 145/1/29
f 137/1/29 146/1/29 138/1/29
f 135/1/5 145/1/5 137/1/5
f 145/1/5 135/1/5 132/1/5
f 145/1/5 132/1/5 134/1/5
f 145/1/5 134/1/5 139/1/5
f 145/1/5 139/1/5 141/1/5
f 145/1/5 141/1/5 143/1/5
f 146/1/2 136/1/2 138/1/2
f 136/1/2 146/1/2 131/1/2
f 131/1/2 146/1/2 133/1/2
f 133/1/2 146/1/2 140/1/2
f 140/1/2 146/1/2 142/1/2
f 142/1/2 146/1/2 144/1/2
f 138/1/6 102/1/6 101/1/6
f 102/1/6 138/1/6 137/1/6
f 138/1/3 120/1/3 137/1/3
f 120/1/3 138/1/3 119/1/3
f 120/1/5 102/1/5 137/1/5
f 102/1/5 120/1/5 97/1/5
f 86/1/2 138/1/2 101/1/2
f 138/1/2 86/1/2 119/1/2
f 86/1/29 102/1/29 97/1/29
f 102/1/29 86/1/29 101/1/29
f 120/1/21 86/1/21 97/1/21
f 86/1/21 120/1/21 119/1/21
f 114/1/6 112/1/6 111/1/6
f 112/1/6 114/1/6 113/1/6
f 114/1/3 98/1/3 113/1/3
f 98/1/3 114/1/3 84/1/3
f 98/1/5 112/1/5 113/1/5
f 112/1/5 98/1/5 95/1/5
f 83/1/2 114/1/2 111/1/2
f 114/1/2 83/1/2 84/1/2
f 83/1/29 112/1/29 95/1/29
f 112/1/29 83/1/29 111/1/29
f 98/1/21 83/1/21 95/1/21
f 83/1/21 98/1/21 84/1/21
f 144/1/6 145/1/6 146/1/6
f 145/1/6 144/1/6 143/1/6
f 144/1/3 128/1/3 143/1/3
f 128/1/3 144/1/3 127/1/3
f 128/1/5 145/1/5 143/1/5
f 145/1/5 128/1/5 129/1/5
f 130/1/2 144/1/2 146/1/2
f 144/1/2 130/1/2 127/1/2
f 130/1/29 145/1/29 129/1/29
f 145/1/29 130/1/29 146/1/29
f 128/1/21 130/1/21 129/1/21
f 130/1/21 128/1/21 127/1/21

usemtl color11

f 149/1/6 148/1/6 147/1/6
f 148/1/6 149/1/6 150/1/6
f 149/1/3 151/1/3 150/1/3
f 151/1/3 149/1/3 152/1/3
f 151/1/5 148/1/5 150/1/5
f 148/1/5 151/1/5 153/1/5
f 154/1/2 149/1/2 147/1/2
f 149/1/2 154/1/2 152/1/2
f 154/1/29 148/1/29 153/1/29
f 148/1/29 154/1/29 147/1/29
f 151/1/21 154/1/21 153/1/21
f 154/1/21 151/1/21 152/1/21

