v 7.741181 -4.965926 -0.65
v 7.741181 -4.965926 0.65
v 7.5 -4.866025 -0.65
v 7.5 -4.866025 0.65
v 7.292893 -4.707107 -0.65
v 7.292893 -4.707107 0.65
v 7.133975 -4.5 0.65
v 7.133975 -4.5 -0.65
v 7.034074 -4.258819 0.65
v 7.034074 -4.258819 -0.65
v 8 -5 0.65
v 8 -5 -0.65
v 7 -4 0.65
v 7 -4 -0.65
v 7 -5 0.65
v 7 -5 -0.65
v 6 -4 0.65
v 6.965926 -3.741181 0.65
v 6 -3 0.65
v 6.866025 -3.5 0.65
v 6.707107 -3.292893 0.65
v 6.5 -3.133975 0.65
v 6.258819 -3.034074 0.65
v 6.707107 -3.292893 -0.65
v 6.5 -3.133975 -0.65
v 6.866025 -3.5 -0.65
v 6.965926 -3.741181 -0.65
v 6.258819 -3.034074 -0.65
v 6 -3 -0.65
v 6 -4 -0.65
v 6 -3 1.3
v 5 -3 1.3
v 5.965926 -2.741181 1.3
v 5 -2 1.3
v 5.866025 -2.5 1.3
v 5.707107 -2.292893 1.3
v 5.5 -2.133975 1.3
v 5.258819 -2.034074 1.3
v 5.707107 -2.292893 -1.3
v 5.5 -2.133975 -1.3
v 5.866025 -2.5 -1.3
v 5.965926 -2.741181 -1.3
v 6 -3 -1.3
v 5.258819 -2.034074 -1.3
v 5 -2 -1.3
v 5 -3 -1.3
v 4 -2 1.3
v 4.965926 -1.741181 1.3
v 4 -1 1.3
v 4.866025 -1.5 1.3
v 4.707107 -1.292893 1.3
v 4.5 -1.133975 1.3
v 4.258819 -1.034074 1.3
v 4.707107 -1.292893 -1.3
v 4.5 -1.133975 -1.3
v 4.866025 -1.5 -1.3
v 4.965926 -1.741181 -1.3
v 4.258819 -1.034074 -1.3
v 4 -1 -1.3
v 4 -2 -1.3
v 4 -1 0.65
v 3 -1 0.65
v 3.965926 -0.741181 0.65
v 3 0 0.65
v 3.866025 -0.5 0.65
v 3.707107 -0.2928932 0.65
v 3.5 -0.1339746 0.65
v 3.258819 -0.03407419 0.65
v 3.707107 -0.2928932 -0.65
v 3.5 -0.1339746 -0.65
v 3.866025 -0.5 -0.65
v 3.965926 -0.741181 -0.65
v 4 -1 -0.65
v 3.258819 -0.03407419 -0.65
v 3 0 -0.65
v 3 -1 -0.65
v 2 0 0.65
v 2.965926 0.258819 0.65
v 2 1 0.65
v 2.866025 0.5 0.65
v 2.707107 0.7071068 0.65
v 2.5 0.8660254 0.65
v 2.258819 0.9659258 0.65
v 2.707107 0.7071068 -0.65
v 2.5 0.8660254 -0.65
v 2.866025 0.5 -0.65
v 2.965926 0.258819 -0.65
v 2.258819 0.9659258 -0.65
v 2 1 -0.65
v 2 0 -0.65
v -2.258819 0.9659258 -0.65
v -2.258819 0.9659258 0.65
v -2.5 0.8660254 -0.65
v -2.5 0.8660254 0.65
v -2 1 0.65
v -2 1 -0.65
v -2.707107 0.7071068 -0.65
v -2.707107 0.7071068 0.65
v -2.866025 0.5 0.65
v -2.866025 0.5 -0.65
v -2.965926 0.258819 0.65
v -2.965926 0.258819 -0.65
v -3 0 0.65
v -3 0 -0.65
v -2 0 -0.65
v -2 0 0.65
v -3.258819 -0.03407419 -1.95
v -3.258819 -0.03407419 1.95
v -3.5 -0.1339746 -1.95
v -3.5 -0.1339746 1.95
v -3 0 1.95
v -3 0 -1.95
v -3.707107 -0.2928932 -1.95
v -3.707107 -0.2928932 1.95
v -3.866025 -0.5 1.95
v -3.866025 -0.5 -1.95
v -3.965926 -0.741181 1.95
v -3.965926 -0.741181 -1.95
v -4 -1 1.95
v -4 -1 -1.95
v -3 -1 -1.95
v -3 -1 1.95
v -4.258819 -1.034074 -1.3
v -4.258819 -1.034074 1.3
v -4.5 -1.133975 -1.3
v -4.5 -1.133975 1.3
v -4 -1 1.3
v -4 -1 -1.3
v -4.707107 -1.292893 -1.3
v -4.707107 -1.292893 1.3
v -4.866025 -1.5 1.3
v -4.866025 -1.5 -1.3
v -4.965926 -1.741181 1.3
v -4.965926 -1.741181 -1.3
v -5 -2 1.3
v -5 -2 -1.3
v -4 -2 -1.3
v -4 -2 1.3
v 2 -1 1.3
v 2 -1 -1.3
v 1 -1 1.3
v 1 -1 -1.3
v 1 1 -1.3
v 1 1 1.3
v 2 1 -1.3
v 2 1 1.3
v 1 -1 1.95
v 1 -1 -1.95
v -1 -1 1.95
v -1 -1 -1.95
v -1 1 -1.95
v -1 1 1.95
v 1 1 -1.95
v 1 1 1.95
v -1 0 1.3
v -1 0 -1.3
v -2 0 1.3
v -2 0 -1.3
v -2 1 -1.3
v -2 1 1.3
v -1 1 -1.3
v -1 1 1.3
v 3 -1 1.3
v 3 -1 -1.3
v 2 0 -1.3
v 2 0 1.3
v 3 0 -1.3
v 3 0 1.3
v -1 -1 2.6
v -1 -1 -2.6
v -3 -1 2.6
v -3 -1 -2.6
v -3 0 -2.6
v -3 0 2.6
v -1 0 -2.6
v -1 0 2.6
v 3 -2 1.3
v 3 -2 -1.3
v 3 -2 1.95
v 3 -2 -1.95
v 2 -2 1.95
v 2 -2 -1.95
v 2 -1 -1.95
v 2 -1 1.95
v 3 -1 -1.95
v 3 -1 1.95
v 2 -2 2.6
v 2 -2 -2.6
v -1 -2 2.6
v -1 -2 -2.6
v 2 -1 -2.6
v 2 -1 2.6
v -1 -2 3.25
v -1 -2 -3.25
v -3 -2 3.25
v -3 -2 -3.25
v -3 -1 -3.25
v -3 -1 3.25
v -1 -1 -3.25
v -1 -1 3.25
v -3 -2 2.6
v -3 -2 -2.6
v -4 -2 2.6
v -4 -2 -2.6
v -4 -1 -2.6
v -4 -1 2.6
v 5 -3 1.95
v 5 -3 -1.95
v 3 -3 1.95
v 3 -3 -1.95
v 5 -2 -1.95
v 5 -2 1.95
v 3 -3 2.6
v 3 -3 -2.6
v 2 -3 2.6
v 2 -3 -2.6
v 3 -2 -2.6
v 3 -2 2.6
v 2 -3 3.25
v 2 -3 -3.25
v 0 -3 3.25
v 0 -3 -3.25
v 0 -2 -3.25
v 0 -2 3.25
v 2 -2 -3.25
v 2 -2 3.25
v -3 -3 3.25
v -3 -3 -3.25
v -4 -3 3.25
v -4 -3 -3.25
v -4 -2 -3.25
v -4 -2 3.25
v -4 -3 2.6
v -4 -3 -2.6
v -5 -3 2.6
v -5 -3 -2.6
v -5 -2 -2.6
v -5 -2 2.6
v 6 -4 1.95
v 6 -4 -1.95
v 5 -4 1.95
v 5 -4 -1.95
v 6 -3 -1.95
v 6 -3 1.95
v 5 -4 2.6
v 5 -4 -2.6
v 4 -4 2.6
v 4 -4 -2.6
v 4 -3 -2.6
v 4 -3 2.6
v 5 -3 -2.6
v 5 -3 2.6
v 4 -4 3.25
v 4 -4 -3.25
v 2 -4 3.25
v 2 -4 -3.25
v 4 -3 -3.25
v 4 -3 3.25
v 7 -5 1.95
v 7 -5 -1.95
v 6 -5 1.95
v 6 -5 -1.95
v 7 -4 -1.95
v 7 -4 1.95
v 6 -5 3.25
v 6 -5 -3.25
v 4 -5 3.25
v 4 -5 -3.25
v 6 -4 -3.25
v 6 -4 3.25
v 4 -5 3.9
v 4 -5 -3.9
v 3 -5 3.9
v 3 -5 -3.9
v 3 -4 -3.9
v 3 -4 3.9
v 4 -4 -3.9
v 4 -4 3.9
v -5.258819 -3.034074 -1.95
v -5.258819 -3.034074 1.95
v -5.5 -3.133975 -1.95
v -5.5 -3.133975 1.95
v -5 -3 1.95
v -5 -3 -1.95
v -5.707107 -3.292893 -1.95
v -5.707107 -3.292893 1.95
v -5.866025 -3.5 1.95
v -5.866025 -3.5 -1.95
v -5.965926 -3.741181 1.95
v -5.965926 -3.741181 -1.95
v -6 -4 1.95
v -6 -4 -1.95
v -5 -4 -1.95
v -5 -4 1.95
v 0 -3 3.9
v 0 -3 -3.9
v -2 -3 3.9
v -2 -3 -3.9
v -2 -2 -3.9
v -2 -2 3.9
v 0 -2 -3.9
v 0 -2 3.9
v -2 -3 3.25
v -2 -3 -3.25
v -2 -2 -3.25
v -2 -2 3.25
v 2 -4 3.9
v 2 -4 -3.9
v 1 -4 3.9
v 1 -4 -3.9
v 1 -3 -3.9
v 1 -3 3.9
v 2 -3 -3.9
v 2 -3 3.9
v 1 -4 4.55
v 1 -4 -4.55
v -2 -4 4.55
v -2 -4 -4.55
v -2 -3 -4.55
v -2 -3 4.55
v 1 -3 -4.55
v 1 -3 4.55
v -2 -4 3.9
v -2 -4 -3.9
v -3 -4 3.9
v -3 -4 -3.9
v -3 -3 -3.9
v -3 -3 3.9
v -3 -4 3.25
v -3 -4 -3.25
v -5 -4 3.25
v -5 -4 -3.25
v -5 -3 -3.25
v -5 -3 3.25
v 2 -5 3.9
v 2 -5 -3.9
v 2 -5 4.55
v 2 -5 -4.55
v 1 -5 4.55
v 1 -5 -4.55
v 2 -4 -4.55
v 2 -4 4.55
v 1 -5 5.2
v 1 -5 -5.2
v -2 -5 5.2
v -2 -5 -5.2
v -2 -4 -5.2
v -2 -4 5.2
v 1 -4 -5.2
v 1 -4 5.2
v -2 -5 4.55
v -2 -5 -4.55
v -3 -5 4.55
v -3 -5 -4.55
v -3 -4 -4.55
v -3 -4 4.55
v -3 -5 3.9
v -3 -5 -3.9
v -4 -5 3.9
v -4 -5 -3.9
v -4 -4 -3.9
v -4 -4 3.9
v -4 -5 3.25
v -4 -5 -3.25
v -5 -5 3.25
v -5 -5 -3.25
v -4 -4 -3.25
v -4 -4 3.25
v -5 -5 2.6
v -5 -5 -2.6
v -6 -5 2.6
v -6 -5 -2.6
v -6 -4 -2.6
v -6 -4 2.6
v -5 -4 -2.6
v -5 -4 2.6

vn 0.2588191 0.9659259 0
vn 0.5 0.8660254 0
vn 0.7071068 0.7071068 0
vn 0.8660254 0.5 0
vn 0.9659259 0.2588191 0
vn 0.1305262 0.9914449 0
vn 0.9914449 0.1305262 0
vn 0 -1 0
vn 0 0 -1
vn -1 0 0
vn 0 0 1
vn 0.2588191 0.9659258 0
vn 0.1305262 0.9914449 0
vn 0.9914449 0.1305262 0
vn -0.2588191 0.9659259 0
vn -0.5 0.8660254 0
vn -0.1305262 0.9914449 0
vn -0.7071068 0.7071068 0
vn -0.8660254 0.5 0
vn -0.9659259 0.2588191 0
vn -0.9914449 0.1305262 0
vn 1 0 0
vn 0 1 0

vt 0 0

usemtl color7

f 3/1/2 2/1/1 1/1/1
f 2/1/1 3/1/2 4/1/2
f 5/1/3 4/1/2 3/1/2
f 4/1/2 5/1/3 6/1/3
f 5/1/3 7/1/4 6/1/3
f 7/1/4 5/1/3 8/1/4
f 8/1/4 9/1/5 7/1/4
f 9/1/5 8/1/4 10/1/5
f 11/1/6 1/1/1 2/1/1
f 1/1/1 11/1/6 12/1/6
f 10/1/5 13/1/7 9/1/5
f 13/1/7 10/1/5 14/1/7
f 15/1/8 12/1/8 11/1/8
f 12/1/8 15/1/8 16/1/8
f 16/1/9 1/1/9 12/1/9
f 1/1/9 16/1/9 3/1/9
f 3/1/9 16/1/9 5/1/9
f 5/1/9 16/1/9 8/1/9
f 8/1/9 16/1/9 10/1/9
f 10/1/9 16/1/9 14/1/9
f 15/1/10 14/1/10 16/1/10
f 14/1/10 15/1/10 13/1/10
f 15/1/11 9/1/11 13/1/11
f 9/1/11 15/1/11 7/1/11
f 7/1/11 15/1/11 6/1/11
f 6/1/11 15/1/11 4/1/11
f 4/1/11 15/1/11 2/1/11
f 2/1/11 15/1/11 11/1/11
f 18/1/11 17/1/11 13/1/11
f 17/1/11 18/1/11 19/1/11
f 19/1/11 18/1/11 20/1/11
f 19/1/11 20/1/11 21/1/11
f 19/1/11 21/1/11 22/1/11
f 19/1/11 22/1/11 23/1/11
f 25/1/2 21/1/3 24/1/3
f 21/1/3 25/1/2 22/1/2
f 21/1/3 26/1/4 24/1/3
f 26/1/4 21/1/3 20/1/4
f 20/1/4 27/1/5 26/1/4
f 27/1/5 20/1/4 18/1/5
f 18/1/5 14/1/7 27/1/5
f 14/1/7 18/1/5 13/1/7
f 28/1/12 22/1/2 25/1/2
f 22/1/2 28/1/12 23/1/12
f 29/1/13 23/1/12 28/1/12
f 23/1/12 29/1/13 19/1/13
f 30/1/9 27/1/9 14/1/9
f 27/1/9 30/1/9 29/1/9
f 27/1/9 29/1/9 26/1/9
f 26/1/9 29/1/9 24/1/9
f 24/1/9 29/1/9 25/1/9
f 25/1/9 29/1/9 28/1/9
f 17/1/8 14/1/8 13/1/8
f 14/1/8 17/1/8 30/1/8
f 17/1/10 29/1/10 30/1/10
f 29/1/10 17/1/10 19/1/10
f 33/1/11 32/1/11 31/1/11
f 32/1/11 33/1/11 34/1/11
f 34/1/11 33/1/11 35/1/11
f 34/1/11 35/1/11 36/1/11
f 34/1/11 36/1/11 37/1/11
f 34/1/11 37/1/11 38/1/11
f 40/1/2 36/1/3 39/1/3
f 36/1/3 40/1/2 37/1/2
f 36/1/3 41/1/4 39/1/3
f 41/1/4 36/1/3 35/1/4
f 35/1/4 42/1/5 41/1/4
f 42/1/5 35/1/4 33/1/5
f 33/1/5 43/1/14 42/1/5
f 43/1/14 33/1/5 31/1/14
f 44/1/12 37/1/2 40/1/2
f 37/1/2 44/1/12 38/1/12
f 45/1/13 38/1/12 44/1/12
f 38/1/12 45/1/13 34/1/13
f 46/1/9 42/1/9 43/1/9
f 42/1/9 46/1/9 45/1/9
f 42/1/9 45/1/9 41/1/9
f 41/1/9 45/1/9 39/1/9
f 39/1/9 45/1/9 40/1/9
f 40/1/9 45/1/9 44/1/9
f 32/1/8 43/1/8 31/1/8
f 43/1/8 32/1/8 46/1/8
f 32/1/10 45/1/10 46/1/10
f 45/1/10 32/1/10 34/1/10
f 48/1/11 47/1/11 34/1/11
f 47/1/11 48/1/11 49/1/11
f 49/1/11 48/1/11 50/1/11
f 49/1/11 50/1/11 51/1/11
f 49/1/11 51/1/11 52/1/11
f 49/1/11 52/1/11 53/1/11
f 55/1/2 51/1/3 54/1/3
f 51/1/3 55/1/2 52/1/2
f 51/1/3 56/1/4 54/1/3
f 56/1/4 51/1/3 50/1/4
f 50/1/4 57/1/5 56/1/4
f 57/1/5 50/1/4 48/1/5
f 48/1/5 45/1/14 57/1/5
f 45/1/14 48/1/5 34/1/14
f 58/1/12 52/1/2 55/1/2
f 52/1/2 58/1/12 53/1/12
f 59/1/13 53/1/12 58/1/12
f 53/1/12 59/1/13 49/1/13
f 60/1/9 57/1/9 45/1/9
f 57/1/9 60/1/9 59/1/9
f 57/1/9 59/1/9 56/1/9
f 56/1/9 59/1/9 54/1/9
f 54/1/9 59/1/9 55/1/9
f 55/1/9 59/1/9 58/1/9
f 47/1/8 45/1/8 34/1/8
f 45/1/8 47/1/8 60/1/8
f 47/1/10 59/1/10 60/1/10
f 59/1/10 47/1/10 49/1/10
f 63/1/11 62/1/11 61/1/11
f 62/1/11 63/1/11 64/1/11
f 64/1/11 63/1/11 65/1/11
f 64/1/11 65/1/11 66/1/11
f 64/1/11 66/1/11 67/1/11
f 64/1/11 67/1/11 68/1/11
f 70/1/2 66/1/3 69/1/3
f 66/1/3 70/1/2 67/1/2
f 66/1/3 71/1/4 69/1/3
f 71/1/4 66/1/3 65/1/4
f 65/1/4 72/1/5 71/1/4
f 72/1/5 65/1/4 63/1/5
f 63/1/5 73/1/14 72/1/5
f 73/1/14 63/1/5 61/1/14
f 74/1/12 67/1/2 70/1/2
f 67/1/2 74/1/12 68/1/12
f 75/1/13 68/1/12 74/1/12
f 68/1/12 75/1/13 64/1/13
f 76/1/9 72/1/9 73/1/9
f 72/1/9 76/1/9 75/1/9
f 72/1/9 75/1/9 71/1/9
f 71/1/9 75/1/9 69/1/9
f 69/1/9 75/1/9 70/1/9
f 70/1/9 75/1/9 74/1/9
f 62/1/8 73/1/8 61/1/8
f 73/1/8 62/1/8 76/1/8
f 62/1/10 75/1/10 76/1/10
f 75/1/10 62/1/10 64/1/10
f 78/1/11 77/1/11 64/1/11
f 77/1/11 78/1/11 79/1/11
f 79/1/11 78/1/11 80/1/11
f 79/1/11 80/1/11 81/1/11
f 79/1/11 81/1/11 82/1/11
f 79/1/11 82/1/11 83/1/11
f 85/1/2 81/1/3 84/1/3
f 81/1/3 85/1/2 82/1/2
f 81/1/3 86/1/4 84/1/3
f 86/1/4 81/1/3 80/1/4
f 80/1/4 87/1/5 86/1/4
f 87/1/5 80/1/4 78/1/5
f 78/1/5 75/1/14 87/1/5
f 75/1/14 78/1/5 64/1/14
f 88/1/12 82/1/2 85/1/2
f 82/1/2 88/1/12 83/1/12
f 89/1/13 83/1/12 88/1/12
f 83/1/12 89/1/13 79/1/13
f 90/1/9 87/1/9 75/1/9
f 87/1/9 90/1/9 89/1/9
f 87/1/9 89/1/9 86/1/9
f 86/1/9 89/1/9 84/1/9
f 84/1/9 89/1/9 85/1/9
f 85/1/9 89/1/9 88/1/9
f 77/1/8 75/1/8 64/1/8
f 75/1/8 77/1/8 90/1/8
f 77/1/10 89/1/10 90/1/10
f 89/1/10 77/1/10 79/1/10
f 93/1/16 92/1/15 91/1/15
f 92/1/15 93/1/16 94/1/16
f 95/1/17 91/1/15 92/1/15
f 91/1/15 95/1/17 96/1/17
f 97/1/18 94/1/16 93/1/16
f 94/1/16 97/1/18 98/1/18
f 97/1/18 99/1/19 98/1/18
f 99/1/19 97/1/18 100/1/19
f 100/1/19 101/1/20 99/1/19
f 101/1/20 100/1/19 102/1/20
f 102/1/20 103/1/21 101/1/20
f 103/1/21 102/1/20 104/1/21
f 95/1/22 105/1/22 96/1/22
f 105/1/22 95/1/22 106/1/22
f 102/1/9 105/1/9 104/1/9
f 105/1/9 102/1/9 96/1/9
f 96/1/9 102/1/9 100/1/9
f 96/1/9 100/1/9 97/1/9
f 96/1/9 97/1/9 93/1/9
f 96/1/9 93/1/9 91/1/9
f 95/1/11 103/1/11 106/1/11
f 103/1/11 95/1/11 101/1/11
f 101/1/11 95/1/11 99/1/11
f 99/1/11 95/1/11 98/1/11
f 98/1/11 95/1/11 94/1/11
f 94/1/11 95/1/11 92/1/11
f 103/1/8 105/1/8 106/1/8
f 105/1/8 103/1/8 104/1/8
f 109/1/16 108/1/15 107/1/15
f 108/1/15 109/1/16 110/1/16
f 111/1/17 107/1/15 108/1/15
f 107/1/15 111/1/17 112/1/17
f 113/1/18 110/1/16 109/1/16
f 110/1/16 113/1/18 114/1/18
f 113/1/18 115/1/19 114/1/18
f 115/1/19 113/1/18 116/1/19
f 116/1/19 117/1/20 115/1/19
f 117/1/20 116/1/19 118/1/20
f 118/1/20 119/1/21 117/1/20
f 119/1/21 118/1/20 120/1/21
f 111/1/22 121/1/22 112/1/22
f 121/1/22 111/1/22 122/1/22
f 118/1/9 121/1/9 120/1/9
f 121/1/9 118/1/9 112/1/9
f 112/1/9 118/1/9 116/1/9
f 112/1/9 116/1/9 113/1/9
f 112/1/9 113/1/9 109/1/9
f 112/1/9 109/1/9 107/1/9
f 111/1/11 119/1/11 122/1/11
f 119/1/11 111/1/11 117/1/11
f 117/1/11 111/1/11 115/1/11
f 115/1/11 111/1/11 114/1/11
f 114/1/11 111/1/11 110/1/11
f 110/1/11 111/1/11 108/1/11
f 119/1/8 121/1/8 122/1/8
f 121/1/8 119/1/8 120/1/8
f 125/1/16 124/1/15 123/1/15
f 124/1/15 125/1/16 126/1/16
f 127/1/17 123/1/15 124/1/15
f 123/1/15 127/1/17 128/1/17
f 129/1/18 126/1/16 125/1/16
f 126/1/16 129/1/18 130/1/18
f 129/1/18 131/1/19 130/1/18
f 131/1/19 129/1/18 132/1/19
f 132/1/19 133/1/20 131/1/19
f 133/1/20 132/1/19 134/1/20
f 134/1/20 135/1/21 133/1/20
f 135/1/21 134/1/20 136/1/21
f 127/1/22 137/1/22 128/1/22
f 137/1/22 127/1/22 138/1/22
f 134/1/9 137/1/9 136/1/9
f 137/1/9 134/1/9 128/1/9
f 128/1/9 134/1/9 132/1/9
f 128/1/9 132/1/9 129/1/9
f 128/1/9 129/1/9 125/1/9
f 128/1/9 125/1/9 123/1/9
f 127/1/11 135/1/11 138/1/11
f 135/1/11 127/1/11 133/1/11
f 133/1/11 127/1/11 131/1/11
f 131/1/11 127/1/11 130/1/11
f 130/1/11 127/1/11 126/1/11
f 126/1/11 127/1/11 124/1/11
f 135/1/8 137/1/8 138/1/8
f 137/1/8 135/1/8 136/1/8
f 141/1/8 140/1/8 139/1/8
f 140/1/8 141/1/8 142/1/8
f 141/1/10 143/1/10 142/1/10
f 143/1/10 141/1/10 144/1/10
f 143/1/9 140/1/9 142/1/9
f 140/1/9 143/1/9 145/1/9
f 146/1/11 141/1/11 139/1/11
f 141/1/11 146/1/11 144/1/11
f 146/1/22 140/1/22 145/1/22
f 140/1/22 146/1/22 139/1/22
f 143/1/23 146/1/23 145/1/23
f 146/1/23 143/1/23 144/1/23
f 149/1/8 148/1/8 147/1/8
f 148/1/8 149/1/8 150/1/8
f 149/1/10 151/1/10 150/1/10
f 151/1/10 149/1/10 152/1/10
f 151/1/9 148/1/9 150/1/9
f 148/1/9 151/1/9 153/1/9
f 154/1/11 149/1/11 147/1/11
f 149/1/11 154/1/11 152/1/11
f 154/1/22 148/1/22 153/1/22
f 148/1/22 154/1/22 147/1/22
f 151/1/23 154/1/23 153/1/23
f 154/1/23 151/1/23 152/1/23
f 157/1/8 156/1/8 155/1/8
f 156/1/8 157/1/8 158/1/8
f 157/1/10 159/1/10 158/1/10
f 159/1/10 157/1/10 160/1/10
f 159/1/9 156/1/9 158/1/9
f 156/1/9 159/1/9 161/1/9
f 162/1/11 157/1/11 155/1/11
f 157/1/11 162/1/11 160/1/11
f 162/1/22 156/1/22 161/1/22
f 156/1/22 162/1/22 155/1/22
f 159/1/23 162/1/23 161/1/23
f 162/1/23 159/1/23 160/1/23
f 139/1/8 164/1/8 163/1/8
f 164/1/8 139/1/8 140/1/8
f 139/1/10 165/1/10 140/1/10
f 165/1/10 139/1/10 166/1/10
f 165/1/9 164/1/9 140/1/9
f 164/1/9 165/1/9 167/1/9
f 168/1/11 139/1/11 163/1/11
f 139/1/11 168/1/11 166/1/11
f 168/1/22 164/1/22 167/1/22
f 164/1/22 168/1/22 163/1/22
f 165/1/23 168/1/23 167/1/23
f 168/1/23 165/1/23 166/1/23
f 171/1/8 170/1/8 169/1/8
f 170/1/8 171/1/8 172/1/8
f 171/1/10 173/1/10 172/1/10
f 173/1/10 171/1/10 174/1/10
f 173/1/9 170/1/9 172/1/9
f 170/1/9 173/1/9 175/1/9
f 176/1/11 171/1/11 169/1/11
f 171/1/11 176/1/11 174/1/11
f 176/1/22 170/1/22 175/1/22
f 170/1/22 176/1/22 169/1/22
f 173/1/23 176/1/23 175/1/23
f 176/1/23 173/1/23 174/1/23
f 177/1/8 60/1/8 47/1/8
f 60/1/8 177/1/8 178/1/8
f 177/1/10 164/1/10 178/1/10
f 164/1/10 177/1/10 163/1/10
f 164/1/9 60/1/9 178/1/9
f 60/1/9 164/1/9 59/1/9
f 49/1/11 177/1/11 47/1/11
f 177/1/11 49/1/11 163/1/11
f 49/1/22 60/1/22 59/1/22
f 60/1/22 49/1/22 47/1/22
f 164/1/23 49/1/23 59/1/23
f 49/1/23 164/1/23 163/1/23
f 181/1/8 180/1/8 179/1/8
f 180/1/8 181/1/8 182/1/8
f 181/1/10 183/1/10 182/1/10
f 183/1/10 181/1/10 184/1/10
f 183/1/9 180/1/9 182/1/9
f 180/1/9 183/1/9 185/1/9
f 186/1/11 181/1/11 179/1/11
f 181/1/11 186/1/11 184/1/11
f 186/1/22 180/1/22 185/1/22
f 180/1/22 186/1/22 179/1/22
f 183/1/23 186/1/23 185/1/23
f 186/1/23 183/1/23 184/1/23
f 189/1/8 188/1/8 187/1/8
f 188/1/8 189/1/8 190/1/8
f 189/1/10 170/1/10 190/1/10
f 170/1/10 189/1/10 169/1/10
f 170/1/9 188/1/9 190/1/9
f 188/1/9 170/1/9 191/1/9
f 192/1/11 189/1/11 187/1/11
f 189/1/11 192/1/11 169/1/11
f 192/1/22 188/1/22 191/1/22
f 188/1/22 192/1/22 187/1/22
f 170/1/23 192/1/23 191/1/23
f 192/1/23 170/1/23 169/1/23
f 195/1/8 194/1/8 193/1/8
f 194/1/8 195/1/8 196/1/8
f 195/1/10 197/1/10 196/1/10
f 197/1/10 195/1/10 198/1/10
f 197/1/9 194/1/9 196/1/9
f 194/1/9 197/1/9 199/1/9
f 200/1/11 195/1/11 193/1/11
f 195/1/11 200/1/11 198/1/11
f 200/1/22 194/1/22 199/1/22
f 194/1/22 200/1/22 193/1/22
f 197/1/23 200/1/23 199/1/23
f 200/1/23 197/1/23 198/1/23
f 203/1/8 202/1/8 201/1/8
f 202/1/8 203/1/8 204/1/8
f 203/1/10 205/1/10 204/1/10
f 205/1/10 203/1/10 206/1/10
f 205/1/9 202/1/9 204/1/9
f 202/1/9 205/1/9 172/1/9
f 171/1/11 203/1/11 201/1/11
f 203/1/11 171/1/11 206/1/11
f 171/1/22 202/1/22 172/1/22
f 202/1/22 171/1/22 201/1/22
f 205/1/23 171/1/23 172/1/23
f 171/1/23 205/1/23 206/1/23
f 209/1/8 208/1/8 207/1/8
f 208/1/8 209/1/8 210/1/8
f 209/1/10 180/1/10 210/1/10
f 180/1/10 209/1/10 179/1/10
f 180/1/9 208/1/9 210/1/9
f 208/1/9 180/1/9 211/1/9
f 212/1/11 209/1/11 207/1/11
f 209/1/11 212/1/11 179/1/11
f 212/1/22 208/1/22 211/1/22
f 208/1/22 212/1/22 207/1/22
f 180/1/23 212/1/23 211/1/23
f 212/1/23 180/1/23 179/1/23
f 215/1/8 214/1/8 213/1/8
f 214/1/8 215/1/8 216/1/8
f 215/1/10 188/1/10 216/1/10
f 188/1/10 215/1/10 187/1/10
f 188/1/9 214/1/9 216/1/9
f 214/1/9 188/1/9 217/1/9
f 218/1/11 215/1/11 213/1/11
f 215/1/11 218/1/11 187/1/11
f 218/1/22 214/1/22 217/1/22
f 214/1/22 218/1/22 213/1/22
f 188/1/23 218/1/23 217/1/23
f 218/1/23 188/1/23 187/1/23
f 221/1/8 220/1/8 219/1/8
f 220/1/8 221/1/8 222/1/8
f 221/1/10 223/1/10 222/1/10
f 223/1/10 221/1/10 224/1/10
f 223/1/9 220/1/9 222/1/9
f 220/1/9 223/1/9 225/1/9
f 226/1/11 221/1/11 219/1/11
f 221/1/11 226/1/11 224/1/11
f 226/1/22 220/1/22 225/1/22
f 220/1/22 226/1/22 219/1/22
f 223/1/23 226/1/23 225/1/23
f 226/1/23 223/1/23 224/1/23
f 229/1/8 228/1/8 227/1/8
f 228/1/8 229/1/8 230/1/8
f 229/1/10 231/1/10 230/1/10
f 231/1/10 229/1/10 232/1/10
f 231/1/9 228/1/9 230/1/9
f 228/1/9 231/1/9 196/1/9
f 195/1/11 229/1/11 227/1/11
f 229/1/11 195/1/11 232/1/11
f 195/1/22 228/1/22 196/1/22
f 228/1/22 195/1/22 227/1/22
f 231/1/23 195/1/23 196/1/23
f 195/1/23 231/1/23 232/1/23
f 235/1/8 234/1/8 233/1/8
f 234/1/8 235/1/8 236/1/8
f 235/1/10 237/1/10 236/1/10
f 237/1/10 235/1/10 238/1/10
f 237/1/9 234/1/9 236/1/9
f 234/1/9 237/1/9 204/1/9
f 203/1/11 235/1/11 233/1/11
f 235/1/11 203/1/11 238/1/11
f 203/1/22 234/1/22 204/1/22
f 234/1/22 203/1/22 233/1/22
f 237/1/23 203/1/23 204/1/23
f 203/1/23 237/1/23 238/1/23
f 241/1/8 240/1/8 239/1/8
f 240/1/8 241/1/8 242/1/8
f 241/1/10 208/1/10 242/1/10
f 208/1/10 241/1/10 207/1/10
f 208/1/9 240/1/9 242/1/9
f 240/1/9 208/1/9 243/1/9
f 244/1/11 241/1/11 239/1/11
f 241/1/11 244/1/11 207/1/11
f 244/1/22 240/1/22 243/1/22
f 240/1/22 244/1/22 239/1/22
f 208/1/23 244/1/23 243/1/23
f 244/1/23 208/1/23 207/1/23
f 247/1/8 246/1/8 245/1/8
f 246/1/8 247/1/8 248/1/8
f 247/1/10 249/1/10 248/1/10
f 249/1/10 247/1/10 250/1/10
f 249/1/9 246/1/9 248/1/9
f 246/1/9 249/1/9 251/1/9
f 252/1/11 247/1/11 245/1/11
f 247/1/11 252/1/11 250/1/11
f 252/1/22 246/1/22 251/1/22
f 246/1/22 252/1/22 245/1/22
f 249/1/23 252/1/23 251/1/23
f 252/1/23 249/1/23 250/1/23
f 255/1/8 254/1/8 253/1/8
f 254/1/8 255/1/8 256/1/8
f 255/1/10 220/1/10 256/1/10
f 220/1/10 255/1/10 219/1/10
f 220/1/9 254/1/9 256/1/9
f 254/1/9 220/1/9 257/1/9
f 258/1/11 255/1/11 253/1/11
f 255/1/11 258/1/11 219/1/11
f 258/1/22 254/1/22 257/1/22
f 254/1/22 258/1/22 253/1/22
f 220/1/23 258/1/23 257/1/23
f 258/1/23 220/1/23 219/1/23
f 261/1/8 260/1/8 259/1/8
f 260/1/8 261/1/8 262/1/8
f 261/1/10 240/1/10 262/1/10
f 240/1/10 261/1/10 239/1/10
f 240/1/9 260/1/9 262/1/9
f 260/1/9 240/1/9 263/1/9
f 264/1/11 261/1/11 259/1/11
f 261/1/11 264/1/11 239/1/11
f 264/1/22 260/1/22 263/1/22
f 260/1/22 264/1/22 259/1/22
f 240/1/23 264/1/23 263/1/23
f 264/1/23 240/1/23 239/1/23
f 267/1/8 266/1/8 265/1/8
f 266/1/8 267/1/8 268/1/8
f 267/1/10 254/1/10 268/1/10
f 254/1/10 267/1/10 253/1/10
f 254/1/9 266/1/9 268/1/9
f 266/1/9 254/1/9 269/1/9
f 270/1/11 267/1/11 265/1/11
f 267/1/11 270/1/11 253/1/11
f 270/1/22 266/1/22 269/1/22
f 266/1/22 270/1/22 265/1/22
f 254/1/23 270/1/23 269/1/23
f 270/1/23 254/1/23 253/1/23
f 273/1/8 272/1/8 271/1/8
f 272/1/8 273/1/8 274/1/8
f 273/1/10 275/1/10 274/1/10
f 275/1/10 273/1/10 276/1/10
f 275/1/9 272/1/9 274/1/9
f 272/1/9 275/1/9 277/1/9
f 278/1/11 273/1/11 271/1/11
f 273/1/11 278/1/11 276/1/11
f 278/1/22 272/1/22 277/1/22
f 272/1/22 278/1/22 271/1/22
f 275/1/23 278/1/23 277/1/23
f 278/1/23 275/1/23 276/1/23

usemtl color6

f 281/1/16 280/1/15 279/1/15
f 280/1/15 281/1/16 282/1/16
f 283/1/17 279/1/15 280/1/15
f 279/1/15 283/1/17 284/1/17
f 285/1/18 282/1/16 281/1/16
f 282/1/16 285/1/18 286/1/18
f 285/1/18 287/1/19 286/1/18
f 287/1/19 285/1/18 288/1/19
f 288/1/19 289/1/20 287/1/19
f 289/1/20 288/1/19 290/1/20
f 290/1/20 291/1/21 289/1/20
f 291/1/21 290/1/20 292/1/21
f 283/1/22 293/1/22 284/1/22
f 293/1/22 283/1/22 294/1/22
f 290/1/9 293/1/9 292/1/9
f 293/1/9 290/1/9 284/1/9
f 284/1/9 290/1/9 288/1/9
f 284/1/9 288/1/9 285/1/9
f 284/1/9 285/1/9 281/1/9
f 284/1/9 281/1/9 279/1/9
f 283/1/11 291/1/11 294/1/11
f 291/1/11 283/1/11 289/1/11
f 289/1/11 283/1/11 287/1/11
f 287/1/11 283/1/11 286/1/11
f 286/1/11 283/1/11 282/1/11
f 282/1/11 283/1/11 280/1/11
f 291/1/8 293/1/8 294/1/8
f 293/1/8 291/1/8 292/1/8
f 297/1/8 296/1/8 295/1/8
f 296/1/8 297/1/8 298/1/8
f 297/1/10 299/1/10 298/1/10
f 299/1/10 297/1/10 300/1/10
f 299/1/9 296/1/9 298/1/9
f 296/1/9 299/1/9 301/1/9
f 302/1/11 297/1/11 295/1/11
f 297/1/11 302/1/11 300/1/11
f 302/1/22 296/1/22 301/1/22
f 296/1/22 302/1/22 295/1/22
f 299/1/23 302/1/23 301/1/23
f 302/1/23 299/1/23 300/1/23
f 227/1/8 304/1/8 303/1/8
f 304/1/8 227/1/8 228/1/8
f 227/1/10 196/1/10 228/1/10
f 196/1/10 227/1/10 195/1/10
f 196/1/9 304/1/9 228/1/9
f 304/1/9 196/1/9 305/1/9
f 306/1/11 227/1/11 303/1/11
f 227/1/11 306/1/11 195/1/11
f 306/1/22 304/1/22 305/1/22
f 304/1/22 306/1/22 303/1/22
f 196/1/23 306/1/23 305/1/23
f 306/1/23 196/1/23 195/1/23
f 309/1/8 308/1/8 307/1/8
f 308/1/8 309/1/8 310/1/8
f 309/1/10 311/1/10 310/1/10
f 311/1/10 309/1/10 312/1/10
f 311/1/9 308/1/9 310/1/9
f 308/1/9 311/1/9 313/1/9
f 314/1/11 309/1/11 307/1/11
f 309/1/11 314/1/11 312/1/11
f 314/1/22 308/1/22 313/1/22
f 308/1/22 314/1/22 307/1/22
f 311/1/23 314/1/23 313/1/23
f 314/1/23 311/1/23 312/1/23
f 317/1/8 316/1/8 315/1/8
f 316/1/8 317/1/8 318/1/8
f 317/1/10 319/1/10 318/1/10
f 319/1/10 317/1/10 320/1/10
f 319/1/9 316/1/9 318/1/9
f 316/1/9 319/1/9 321/1/9
f 322/1/11 317/1/11 315/1/11
f 317/1/11 322/1/11 320/1/11
f 322/1/22 316/1/22 321/1/22
f 316/1/22 322/1/22 315/1/22
f 319/1/23 322/1/23 321/1/23
f 322/1/23 319/1/23 320/1/23
f 325/1/8 324/1/8 323/1/8
f 324/1/8 325/1/8 326/1/8
f 325/1/10 327/1/10 326/1/10
f 327/1/10 325/1/10 328/1/10
f 327/1/9 324/1/9 326/1/9
f 324/1/9 327/1/9 298/1/9
f 297/1/11 325/1/11 323/1/11
f 325/1/11 297/1/11 328/1/11
f 297/1/22 324/1/22 298/1/22
f 324/1/22 297/1/22 323/1/22
f 327/1/23 297/1/23 298/1/23
f 297/1/23 327/1/23 328/1/23
f 331/1/8 330/1/8 329/1/8
f 330/1/8 331/1/8 332/1/8
f 331/1/10 333/1/10 332/1/10
f 333/1/10 331/1/10 334/1/10
f 333/1/9 330/1/9 332/1/9
f 330/1/9 333/1/9 228/1/9
f 227/1/11 331/1/11 329/1/11
f 331/1/11 227/1/11 334/1/11
f 227/1/22 330/1/22 228/1/22
f 330/1/22 227/1/22 329/1/22
f 333/1/23 227/1/23 228/1/23
f 227/1/23 333/1/23 334/1/23
f 335/1/8 274/1/8 273/1/8
f 274/1/8 335/1/8 336/1/8
f 335/1/10 308/1/10 336/1/10
f 308/1/10 335/1/10 307/1/10
f 308/1/9 274/1/9 336/1/9
f 274/1/9 308/1/9 275/1/9
f 276/1/11 335/1/11 273/1/11
f 335/1/11 276/1/11 307/1/11
f 276/1/22 274/1/22 275/1/22
f 274/1/22 276/1/22 273/1/22
f 308/1/23 276/1/23 275/1/23
f 276/1/23 308/1/23 307/1/23
f 339/1/8 338/1/8 337/1/8
f 338/1/8 339/1/8 340/1/8
f 339/1/10 316/1/10 340/1/10
f 316/1/10 339/1/10 315/1/10
f 316/1/9 338/1/9 340/1/9
f 338/1/9 316/1/9 341/1/9
f 342/1/11 339/1/11 337/1/11
f 339/1/11 342/1/11 315/1/11
f 342/1/22 338/1/22 341/1/22
f 338/1/22 342/1/22 337/1/22
f 316/1/23 342/1/23 341/1/23
f 342/1/23 316/1/23 315/1/23
f 345/1/8 344/1/8 343/1/8
f 344/1/8 345/1/8 346/1/8
f 345/1/10 347/1/10 346/1/10
f 347/1/10 345/1/10 348/1/10
f 347/1/9 344/1/9 346/1/9
f 344/1/9 347/1/9 349/1/9
f 350/1/11 345/1/11 343/1/11
f 345/1/11 350/1/11 348/1/11
f 350/1/22 344/1/22 349/1/22
f 344/1/22 350/1/22 343/1/22
f 347/1/23 350/1/23 349/1/23
f 350/1/23 347/1/23 348/1/23
f 353/1/8 352/1/8 351/1/8
f 352/1/8 353/1/8 354/1/8
f 353/1/10 355/1/10 354/1/10
f 355/1/10 353/1/10 356/1/10
f 355/1/9 352/1/9 354/1/9
f 352/1/9 355/1/9 318/1/9
f 317/1/11 353/1/11 351/1/11
f 353/1/11 317/1/11 356/1/11
f 317/1/22 352/1/22 318/1/22
f 352/1/22 317/1/22 351/1/22
f 355/1/23 317/1/23 318/1/23
f 317/1/23 355/1/23 356/1/23
f 359/1/8 358/1/8 357/1/8
f 358/1/8 359/1/8 360/1/8
f 359/1/10 361/1/10 360/1/10
f 361/1/10 359/1/10 362/1/10
f 361/1/9 358/1/9 360/1/9
f 358/1/9 361/1/9 326/1/9
f 325/1/11 359/1/11 357/1/11
f 359/1/11 325/1/11 362/1/11
f 325/1/22 358/1/22 326/1/22
f 358/1/22 325/1/22 357/1/22
f 361/1/23 325/1/23 326/1/23
f 325/1/23 361/1/23 362/1/23
f 365/1/8 364/1/8 363/1/8
f 364/1/8 365/1/8 366/1/8
f 365/1/10 332/1/10 366/1/10
f 332/1/10 365/1/10 331/1/10
f 332/1/9 364/1/9 366/1/9
f 364/1/9 332/1/9 367/1/9
f 368/1/11 365/1/11 363/1/11
f 365/1/11 368/1/11 331/1/11
f 368/1/22 364/1/22 367/1/22
f 364/1/22 368/1/22 363/1/22
f 332/1/23 368/1/23 367/1/23
f 368/1/23 332/1/23 331/1/23
f 371/1/8 370/1/8 369/1/8
f 370/1/8 371/1/8 372/1/8
f 371/1/10 373/1/10 372/1/10
f 373/1/10 371/1/10 374/1/10
f 373/1/9 370/1/9 372/1/9
f 370/1/9 373/1/9 375/1/9
f 376/1/11 371/1/11 369/1/11
f 371/1/11 376/1/11 374/1/11
f 376/1/22 370/1/22 375/1/22
f 370/1/22 376/1/22 369/1/22
f 373/1/23 376/1/23 375/1/23
f 376/1/23 373/1/23 374/1/23

